font.ufo
<glyph name="exclam" format="1">
  <advance width="335"/>
  <unicode hex="0021"/>
  <outline>
    <contour>
      <point x="269" y="509" type="curve" smooth="yes"/>
      <point x="289" y="607"/>
      <point x="337" y="705"/>
      <point x="337" y="735" type="curve" smooth="yes"/>
      <point x="337" y="772"/>
      <point x="265" y="829"/>
      <point x="216" y="829" type="curve" smooth="yes"/>
      <point x="162" y="829"/>
      <point x="103" y="388"/>
      <point x="104" y="334" type="curve" smooth="yes"/>
      <point x="104" y="302"/>
      <point x="180" y="244"/>
      <point x="219" y="259" type="curve" smooth="yes"/>
      <point x="249" y="270"/>
      <point x="244" y="387"/>
    </contour>
    <contour>
      <point x="250" y="89" type="curve" smooth="yes"/>
      <point x="250" y="122"/>
      <point x="215" y="190"/>
      <point x="178" y="190" type="curve" smooth="yes"/>
      <point x="126" y="190"/>
      <point x="39" y="144"/>
      <point x="39" y="109" type="curve" smooth="yes"/>
      <point x="39" y="69"/>
      <point x="83" y="0"/>
      <point x="118" y="0" type="curve" smooth="yes"/>
      <point x="161" y="0"/>
      <point x="250" y="50"/>
    </contour>
  </outline>
</glyph>
<glyph name="quotedbl" format="1">
  <advance width="484"/>
  <unicode hex="0022"/>
  <outline>
    <contour>
      <point x="64" y="460" type="curve"/>
      <point x="86" y="428"/>
      <point x="132" y="424"/>
      <point x="164" y="437" type="curve"/>
      <point x="192" y="495"/>
      <point x="230" y="600"/>
      <point x="245" y="663" type="curve"/>
      <point x="217" y="713"/>
      <point x="141" y="722"/>
      <point x="86" y="692" type="curve"/>
      <point x="81" y="620"/>
      <point x="74" y="530"/>
    </contour>
    <contour>
      <point x="304" y="460" type="curve"/>
      <point x="326" y="428"/>
      <point x="372" y="424"/>
      <point x="404" y="437" type="curve"/>
      <point x="432" y="495"/>
      <point x="470" y="600"/>
      <point x="485" y="663" type="curve"/>
      <point x="457" y="713"/>
      <point x="381" y="722"/>
      <point x="326" y="692" type="curve"/>
      <point x="321" y="620"/>
      <point x="314" y="530"/>
    </contour>
  </outline>
</glyph>
<glyph name="dollar" format="1">
  <advance width="494"/>
  <unicode hex="0024"/>
  <outline>
    <contour>
      <point x="402" y="675" type="curve"/>
      <point x="407" y="697"/>
      <point x="411" y="717"/>
      <point x="411" y="735" type="curve" smooth="yes"/>
      <point x="411" y="767"/>
      <point x="334" y="822"/>
      <point x="291" y="822" type="curve" smooth="yes"/>
      <point x="261" y="822"/>
      <point x="252" y="764"/>
      <point x="246" y="691" type="curve"/>
      <point x="140" y="640"/>
      <point x="70" y="532"/>
      <point x="70" y="462" type="curve" smooth="yes"/>
      <point x="70" y="370"/>
      <point x="214" y="250"/>
      <point x="305" y="187" type="curve"/>
      <point x="264" y="155"/>
      <point x="217" y="139"/>
      <point x="165" y="126" type="curve"/>
      <point x="155" y="158"/>
      <point x="148" y="199"/>
      <point x="144" y="221" type="curve"/>
      <point x="45" y="247"/>
      <point x="-23" y="201"/>
      <point x="-21" y="129" type="curve" smooth="yes"/>
      <point x="-20" y="94"/>
      <point x="44" y="38"/>
      <point x="114" y="15" type="curve"/>
      <point x="109" y="-2"/>
      <point x="106" y="-14"/>
      <point x="106" y="-24" type="curve" smooth="yes"/>
      <point x="106" y="-62"/>
      <point x="180" y="-97"/>
      <point x="234" y="-97" type="curve" smooth="yes"/>
      <point x="251" y="-97"/>
      <point x="264" y="-52"/>
      <point x="274" y="17" type="curve"/>
      <point x="383" y="50"/>
      <point x="467" y="114"/>
      <point x="467" y="195" type="curve" smooth="yes"/>
      <point x="467" y="281"/>
      <point x="231" y="349"/>
      <point x="231" y="458" type="curve" smooth="yes"/>
      <point x="231" y="513"/>
      <point x="286" y="576"/>
      <point x="318" y="576" type="curve" smooth="yes"/>
      <point x="336" y="576"/>
      <point x="349" y="523"/>
      <point x="335" y="452" type="curve"/>
      <point x="416" y="415"/>
      <point x="498" y="452"/>
      <point x="498" y="521" type="curve" smooth="yes"/>
      <point x="498" y="574"/>
      <point x="458" y="639"/>
    </contour>
  </outline>
</glyph>
<glyph name="percent" format="1">
  <advance width="844"/>
  <unicode hex="0025"/>
  <outline>
    <contour>
      <point x="573" y="754" type="curve" smooth="yes"/>
      <point x="538" y="754"/>
      <point x="454" y="540"/>
      <point x="355" y="351" type="curve" smooth="yes"/>
      <point x="278" y="203"/>
      <point x="182" y="71"/>
      <point x="182" y="32" type="curve" smooth="yes"/>
      <point x="182" y="7"/>
      <point x="247" y="-52"/>
      <point x="280" y="-52" type="curve" smooth="yes"/>
      <point x="311" y="-52"/>
      <point x="400" y="143"/>
      <point x="483" y="301" type="curve" smooth="yes"/>
      <point x="575" y="475"/>
      <point x="662" y="611"/>
      <point x="662" y="651" type="curve" smooth="yes"/>
      <point x="662" y="679"/>
      <point x="612" y="754"/>
    </contour>
    <contour>
      <point x="222" y="669" type="curve"/>
      <point x="179" y="658"/>
      <point x="158" y="630"/>
      <point x="166" y="601" type="curve"/>
      <point x="150" y="602"/>
      <point x="134" y="599"/>
      <point x="118" y="590" type="curve"/>
      <point x="93" y="547"/>
      <point x="80" y="500"/>
      <point x="80" y="450" type="curve" smooth="yes"/>
      <point x="80" y="408"/>
      <point x="151" y="349"/>
      <point x="203" y="349" type="curve" smooth="yes"/>
      <point x="313" y="349"/>
      <point x="385" y="466"/>
      <point x="385" y="543" type="curve" smooth="yes"/>
      <point x="385" y="597"/>
      <point x="316" y="660"/>
    </contour>
    <contour>
      <point x="219" y="569" type="curve"/>
      <point x="245" y="569"/>
      <point x="268" y="564"/>
      <point x="285" y="555" type="curve"/>
      <point x="273" y="490"/>
      <point x="240" y="447"/>
      <point x="190" y="427" type="curve"/>
      <point x="185" y="470"/>
      <point x="197" y="516"/>
      <point x="222" y="549" type="curve"/>
      <point x="222" y="556"/>
      <point x="221" y="563"/>
    </contour>
    <contour>
      <point x="612" y="320" type="curve"/>
      <point x="569" y="309"/>
      <point x="548" y="281"/>
      <point x="556" y="252" type="curve"/>
      <point x="540" y="253"/>
      <point x="524" y="250"/>
      <point x="508" y="241" type="curve"/>
      <point x="483" y="198"/>
      <point x="470" y="151"/>
      <point x="470" y="101" type="curve" smooth="yes"/>
      <point x="470" y="59"/>
      <point x="541" y="0"/>
      <point x="593" y="0" type="curve" smooth="yes"/>
      <point x="703" y="0"/>
      <point x="775" y="117"/>
      <point x="775" y="194" type="curve" smooth="yes"/>
      <point x="775" y="248"/>
      <point x="706" y="311"/>
    </contour>
    <contour>
      <point x="609" y="220" type="curve"/>
      <point x="635" y="220"/>
      <point x="658" y="215"/>
      <point x="675" y="206" type="curve"/>
      <point x="663" y="141"/>
      <point x="630" y="98"/>
      <point x="580" y="78" type="curve"/>
      <point x="575" y="121"/>
      <point x="587" y="167"/>
      <point x="612" y="200" type="curve"/>
      <point x="612" y="207"/>
      <point x="611" y="214"/>
    </contour>
  </outline>
</glyph>
<glyph name="ampersand" format="1">
  <advance width="780"/>
  <unicode hex="0026"/>
  <outline>
    <contour>
      <point x="542" y="147" type="curve"/>
      <point x="551" y="203"/>
      <point x="564" y="273"/>
      <point x="579" y="333" type="curve"/>
      <point x="704" y="334" type="line"/>
      <point x="748" y="371"/>
      <point x="748" y="442"/>
      <point x="704" y="448" type="curve"/>
      <point x="613" y="453" type="line"/>
      <point x="624" y="475"/>
      <point x="630" y="495"/>
      <point x="632" y="518" type="curve" smooth="yes"/>
      <point x="634" y="545"/>
      <point x="578" y="595"/>
      <point x="524" y="595" type="curve" smooth="yes"/>
      <point x="501" y="595"/>
      <point x="491" y="523"/>
      <point x="480" y="444" type="curve"/>
      <point x="408" y="428"/>
      <point x="310" y="427"/>
      <point x="268" y="464" type="curve"/>
      <point x="314" y="517"/>
      <point x="362" y="549"/>
      <point x="442" y="570" type="curve"/>
      <point x="479" y="630"/>
      <point x="458" y="690"/>
      <point x="382" y="700" type="curve"/>
      <point x="273" y="684"/>
      <point x="112" y="553"/>
      <point x="112" y="488" type="curve" smooth="yes"/>
      <point x="112" y="441"/>
      <point x="178" y="388"/>
      <point x="255" y="365" type="curve"/>
      <point x="163" y="315"/>
      <point x="16" y="216"/>
      <point x="16" y="153" type="curve" smooth="yes"/>
      <point x="16" y="103"/>
      <point x="117" y="0"/>
      <point x="190" y="0" type="curve" smooth="yes"/>
      <point x="281" y="0"/>
      <point x="356" y="34"/>
      <point x="420" y="77" type="curve"/>
      <point x="440" y="36"/>
      <point x="485" y="0"/>
      <point x="525" y="0" type="curve" smooth="yes"/>
      <point x="597" y="0"/>
      <point x="729" y="63"/>
      <point x="729" y="112" type="curve" smooth="yes"/>
      <point x="729" y="161"/>
      <point x="704" y="191"/>
      <point x="650" y="211" type="curve"/>
      <point x="615" y="184"/>
      <point x="582" y="166"/>
    </contour>
    <contour>
      <point x="452" y="331" type="curve"/>
      <point x="440" y="184"/>
      <point x="301" y="131"/>
      <point x="170" y="131" type="curve"/>
      <point x="216" y="212"/>
      <point x="322" y="312"/>
    </contour>
  </outline>
</glyph>
<glyph name="quotesingle" format="1">
  <advance width="254"/>
  <unicode hex="0027"/>
  <outline>
    <contour>
      <point x="64" y="460" type="curve"/>
      <point x="86" y="428"/>
      <point x="132" y="424"/>
      <point x="164" y="437" type="curve"/>
      <point x="192" y="495"/>
      <point x="230" y="600"/>
      <point x="245" y="663" type="curve"/>
      <point x="217" y="713"/>
      <point x="141" y="722"/>
      <point x="86" y="692" type="curve"/>
      <point x="81" y="620"/>
      <point x="74" y="530"/>
    </contour>
  </outline>
</glyph>
<glyph name="comma" format="1">
  <advance width="335"/>
  <unicode hex="002C"/>
  <outline>
    <contour>
      <point x="156" y="8" type="line"/>
      <point x="125" y="-32"/>
      <point x="96" y="-59"/>
      <point x="67" y="-79" type="curve"/>
      <point x="66" y="-114"/>
      <point x="81" y="-135"/>
      <point x="119" y="-136" type="curve"/>
      <point x="204" y="-92"/>
      <point x="241" y="-17"/>
      <point x="241" y="49" type="curve" smooth="yes"/>
      <point x="241" y="122"/>
      <point x="203" y="183"/>
      <point x="147" y="183" type="curve" smooth="yes"/>
      <point x="91" y="183"/>
      <point x="19" y="144"/>
      <point x="19" y="108" type="curve" smooth="yes"/>
      <point x="19" y="75"/>
      <point x="54" y="2"/>
      <point x="94" y="2" type="curve" smooth="yes"/>
      <point x="108" y="2"/>
      <point x="125" y="5"/>
      <point x="147" y="19" type="curve"/>
    </contour>
  </outline>
</glyph>
<glyph name="hyphen" format="1">
  <advance width="464"/>
  <unicode hex="002D"/>
  <outline>
    <contour>
      <point x="392" y="274" type="curve"/>
      <point x="430" y="310"/>
      <point x="434" y="385"/>
      <point x="383" y="414" type="curve"/>
      <point x="261" y="406"/>
      <point x="183" y="398"/>
      <point x="67" y="398" type="curve"/>
      <point x="19" y="353"/>
      <point x="33" y="282"/>
      <point x="80" y="259" type="curve"/>
      <point x="199" y="267"/>
      <point x="283" y="272"/>
    </contour>
  </outline>
</glyph>
<glyph name="slash" format="1">
  <advance width="380"/>
  <unicode hex="002F"/>
  <outline>
    <contour>
      <point x="269" y="306" type="curve" smooth="yes"/>
      <point x="318" y="479"/>
      <point x="370" y="621"/>
      <point x="370" y="663" type="curve" smooth="yes"/>
      <point x="370" y="695"/>
      <point x="298" y="758"/>
      <point x="256" y="758" type="curve" smooth="yes"/>
      <point x="213" y="758"/>
      <point x="185" y="562"/>
      <point x="131" y="368" type="curve" smooth="yes"/>
      <point x="83" y="196"/>
      <point x="19" y="27"/>
      <point x="19" y="-10" type="curve" smooth="yes"/>
      <point x="19" y="-45"/>
      <point x="96" y="-91"/>
      <point x="141" y="-91" type="curve" smooth="yes"/>
      <point x="175" y="-91"/>
      <point x="216" y="118"/>
    </contour>
  </outline>
</glyph>
<glyph name="zero" format="1">
  <advance width="548"/>
  <unicode hex="0030"/>
  <outline>
    <contour>
      <point x="558" y="469" type="curve" smooth="yes"/>
      <point x="558" y="557"/>
      <point x="375" y="695"/>
      <point x="212" y="668" type="curve" smooth="yes"/>
      <point x="38" y="639"/>
      <point x="-18" y="0"/>
      <point x="213" y="0" type="curve" smooth="yes"/>
      <point x="400" y="0"/>
      <point x="558" y="240"/>
    </contour>
    <contour>
      <point x="264" y="531" type="curve"/>
      <point x="337" y="518"/>
      <point x="388" y="504"/>
      <point x="422" y="465" type="curve"/>
      <point x="408" y="326"/>
      <point x="338" y="174"/>
      <point x="218" y="123" type="curve"/>
      <point x="190" y="256"/>
      <point x="200" y="407"/>
    </contour>
  </outline>
</glyph>
<glyph name="one" format="1">
  <advance width="393"/>
  <unicode hex="0031"/>
  <outline>
    <contour>
      <point x="246" y="480" type="line"/>
      <point x="190" y="361"/>
      <point x="146" y="124"/>
      <point x="146" y="88" type="curve" smooth="yes"/>
      <point x="146" y="56"/>
      <point x="229" y="0"/>
      <point x="281" y="0" type="curve" smooth="yes"/>
      <point x="311" y="0"/>
      <point x="311" y="158"/>
      <point x="335" y="298" type="curve" smooth="yes"/>
      <point x="353" y="402"/>
      <point x="397" y="525"/>
      <point x="397" y="565" type="curve" smooth="yes"/>
      <point x="397" y="607"/>
      <point x="315" y="668"/>
      <point x="268" y="668" type="curve" smooth="yes"/>
      <point x="221" y="668"/>
      <point x="36" y="553"/>
      <point x="36" y="513" type="curve" smooth="yes"/>
      <point x="36" y="474"/>
      <point x="96" y="407"/>
      <point x="126" y="407" type="curve" smooth="yes"/>
      <point x="148" y="407"/>
      <point x="193" y="456"/>
      <point x="230" y="491" type="curve"/>
    </contour>
  </outline>
</glyph>
<glyph name="semicolon" format="1">
  <advance width="326"/>
  <unicode hex="003B"/>
  <outline>
    <contour>
      <point x="288" y="436" type="curve" smooth="yes"/>
      <point x="288" y="469"/>
      <point x="253" y="537"/>
      <point x="216" y="537" type="curve" smooth="yes"/>
      <point x="164" y="537"/>
      <point x="77" y="491"/>
      <point x="77" y="456" type="curve" smooth="yes"/>
      <point x="77" y="416"/>
      <point x="121" y="347"/>
      <point x="156" y="347" type="curve" smooth="yes"/>
      <point x="199" y="347"/>
      <point x="288" y="397"/>
    </contour>
    <contour>
      <point x="167" y="8" type="line"/>
      <point x="136" y="-32"/>
      <point x="107" y="-59"/>
      <point x="78" y="-79" type="curve"/>
      <point x="77" y="-114"/>
      <point x="92" y="-135"/>
      <point x="130" y="-136" type="curve"/>
      <point x="215" y="-92"/>
      <point x="252" y="-17"/>
      <point x="252" y="49" type="curve" smooth="yes"/>
      <point x="252" y="122"/>
      <point x="214" y="183"/>
      <point x="158" y="183" type="curve" smooth="yes"/>
      <point x="102" y="183"/>
      <point x="30" y="144"/>
      <point x="30" y="108" type="curve" smooth="yes"/>
      <point x="30" y="75"/>
      <point x="65" y="2"/>
      <point x="105" y="2" type="curve" smooth="yes"/>
      <point x="119" y="2"/>
      <point x="136" y="5"/>
      <point x="158" y="19" type="curve"/>
    </contour>
  </outline>
</glyph>
<glyph name="less" format="1">
  <advance width="462"/>
  <unicode hex="003C"/>
  <outline>
    <contour>
      <point x="404" y="212" type="curve"/>
      <point x="143" y="330" type="line"/>
      <point x="448" y="471" type="line"/>
      <point x="481" y="527"/>
      <point x="453" y="594"/>
      <point x="377" y="607" type="curve"/>
      <point x="47" y="395" type="line"/>
      <point x="30" y="373"/>
      <point x="24" y="340"/>
      <point x="29" y="313" type="curve"/>
      <point x="322" y="84" type="line"/>
      <point x="397" y="84"/>
      <point x="444" y="149"/>
    </contour>
  </outline>
</glyph>
<glyph name="equal" format="1">
  <advance width="460"/>
  <unicode hex="003D"/>
  <outline>
    <contour>
      <point x="405" y="141" type="curve"/>
      <point x="443" y="177"/>
      <point x="447" y="252"/>
      <point x="396" y="281" type="curve"/>
      <point x="288" y="273"/>
      <point x="172" y="266"/>
      <point x="45" y="265" type="curve"/>
      <point x="-3" y="220"/>
      <point x="11" y="149"/>
      <point x="58" y="126" type="curve"/>
      <point x="177" y="134"/>
      <point x="296" y="139"/>
    </contour>
    <contour>
      <point x="418" y="340" type="curve"/>
      <point x="456" y="376"/>
      <point x="460" y="451"/>
      <point x="409" y="480" type="curve"/>
      <point x="301" y="472"/>
      <point x="185" y="465"/>
      <point x="58" y="464" type="curve"/>
      <point x="10" y="419"/>
      <point x="24" y="348"/>
      <point x="71" y="325" type="curve"/>
      <point x="190" y="333"/>
      <point x="309" y="338"/>
    </contour>
  </outline>
</glyph>
<glyph name="greater" format="1">
  <advance width="472"/>
  <unicode hex="003E"/>
  <outline>
    <contour>
      <point x="447" y="303" type="line"/>
      <point x="461" y="330"/>
      <point x="466" y="363"/>
      <point x="456" y="385" type="curve"/>
      <point x="155" y="611" type="line"/>
      <point x="77" y="604"/>
      <point x="34" y="537"/>
      <point x="75" y="476" type="curve"/>
      <point x="336" y="343" type="line"/>
      <point x="40" y="217" type="line"/>
      <point x="14" y="151"/>
      <point x="48" y="84"/>
      <point x="124" y="78" type="curve"/>
    </contour>
  </outline>
</glyph>
<glyph name="question" format="1">
  <advance width="549"/>
  <unicode hex="003F"/>
  <outline>
    <contour>
      <point x="414" y="339" type="curve" smooth="yes"/>
      <point x="414" y="363"/>
      <point x="399" y="394"/>
      <point x="375" y="413" type="curve"/>
      <point x="335" y="394"/>
      <point x="305" y="378"/>
      <point x="254" y="380" type="curve"/>
      <point x="293" y="483"/>
      <point x="533" y="529"/>
      <point x="533" y="693" type="curve" smooth="yes"/>
      <point x="533" y="743"/>
      <point x="451" y="829"/>
      <point x="367" y="829" type="curve" smooth="yes"/>
      <point x="257" y="829"/>
      <point x="111" y="776"/>
      <point x="110" y="710" type="curve" smooth="yes"/>
      <point x="110" y="669"/>
      <point x="140" y="629"/>
      <point x="187" y="619" type="curve"/>
      <point x="234" y="650"/>
      <point x="327" y="699"/>
      <point x="406" y="688" type="curve"/>
      <point x="378" y="580"/>
      <point x="135" y="516"/>
      <point x="135" y="409" type="curve" smooth="yes"/>
      <point x="135" y="350"/>
      <point x="208" y="258"/>
      <point x="275" y="258" type="curve" smooth="yes"/>
      <point x="366" y="258"/>
      <point x="414" y="294"/>
    </contour>
    <contour>
      <point x="351" y="89" type="curve" smooth="yes"/>
      <point x="351" y="122"/>
      <point x="316" y="190"/>
      <point x="279" y="190" type="curve" smooth="yes"/>
      <point x="227" y="190"/>
      <point x="140" y="144"/>
      <point x="140" y="109" type="curve" smooth="yes"/>
      <point x="140" y="69"/>
      <point x="184" y="0"/>
      <point x="219" y="0" type="curve" smooth="yes"/>
      <point x="262" y="0"/>
      <point x="351" y="50"/>
    </contour>
    <contour>
      <point x="351" y="89" type="curve" smooth="yes"/>
      <point x="351" y="122"/>
      <point x="316" y="190"/>
      <point x="279" y="190" type="curve" smooth="yes"/>
      <point x="227" y="190"/>
      <point x="140" y="144"/>
      <point x="140" y="109" type="curve" smooth="yes"/>
      <point x="140" y="69"/>
      <point x="184" y="0"/>
      <point x="219" y="0" type="curve" smooth="yes"/>
      <point x="262" y="0"/>
      <point x="351" y="50"/>
    </contour>
  </outline>
</glyph>
<glyph name="A" format="1">
  <advance width="556"/>
  <unicode hex="0041"/>
  <outline>
    <contour>
      <point x="491" y="0" type="move" name="ogonek"/>
    </contour>
    <contour>
      <point x="371" y="733" type="move" name="top"/>
    </contour>
    <contour>
      <point x="-27" y="78" type="curve"/>
      <point x="-10" y="7"/>
      <point x="50" y="-13"/>
      <point x="127" y="5" type="curve"/>
      <point x="185" y="162"/>
      <point x="249" y="357"/>
      <point x="328" y="544" type="curve"/>
      <point x="336" y="396"/>
      <point x="327" y="98"/>
      <point x="335" y="68" type="curve" smooth="yes"/>
      <point x="344" y="34"/>
      <point x="451" y="-8"/>
      <point x="490" y="1" type="curve" smooth="yes"/>
      <point x="520" y="10"/>
      <point x="490" y="222"/>
      <point x="481" y="327" type="curve" smooth="yes"/>
      <point x="471" y="450"/>
      <point x="450" y="586"/>
      <point x="443" y="616" type="curve" smooth="yes"/>
      <point x="434" y="650"/>
      <point x="327" y="700"/>
      <point x="288" y="700" type="curve" smooth="yes"/>
      <point x="248" y="700"/>
      <point x="59" y="270"/>
    </contour>
    <contour>
      <point x="409" y="340" type="line"/>
      <point x="331" y="328"/>
      <point x="225" y="318"/>
      <point x="158" y="316" type="curve"/>
      <point x="113" y="274"/>
      <point x="123" y="209"/>
      <point x="167" y="177" type="curve"/>
      <point x="211" y="179"/>
      <point x="315" y="191"/>
      <point x="382" y="201" type="curve"/>
    </contour>
  </outline>
</glyph>
<glyph name="D" format="1">
  <advance width="597"/>
  <unicode hex="0044"/>
  <outline>
    <contour>
      <point x="320" y="733" type="move" name="top"/>
    </contour>
    <contour>
      <point x="86" y="547" type="curve"/>
      <point x="127" y="545" type="line"/>
      <point x="116" y="487"/>
      <point x="94" y="428"/>
      <point x="83" y="370" type="curve" smooth="yes"/>
      <point x="60" y="255"/>
      <point x="30" y="155"/>
      <point x="30" y="129" type="curve" smooth="yes"/>
      <point x="30" y="89"/>
      <point x="138" y="-5"/>
      <point x="190" y="-5" type="curve" smooth="yes"/>
      <point x="345" y="-5"/>
      <point x="577" y="216"/>
      <point x="576" y="367" type="curve" smooth="yes"/>
      <point x="574" y="537"/>
      <point x="374" y="689"/>
      <point x="129" y="710" type="curve"/>
      <point x="71" y="674"/>
      <point x="53" y="613"/>
    </contour>
    <contour>
      <point x="270" y="517" type="curve"/>
      <point x="347" y="501"/>
      <point x="423" y="447"/>
      <point x="423" y="394" type="curve" smooth="yes"/>
      <point x="423" y="305"/>
      <point x="321" y="194"/>
      <point x="190" y="126" type="curve"/>
      <point x="215" y="259"/>
      <point x="243" y="380"/>
    </contour>
  </outline>
</glyph>
<glyph name="F" format="1">
  <advance width="517"/>
  <unicode hex="0046"/>
  <outline>
    <contour>
      <point x="99" y="679" type="curve"/>
      <point x="50" y="630"/>
      <point x="64" y="559"/>
      <point x="110" y="536" type="curve"/>
      <point x="152" y="539" type="line"/>
      <point x="136" y="407"/>
      <point x="65" y="146"/>
      <point x="65" y="97" type="curve" smooth="yes"/>
      <point x="65" y="67"/>
      <point x="146" y="0"/>
      <point x="198" y="0" type="curve" smooth="yes"/>
      <point x="231" y="0"/>
      <point x="229" y="100"/>
      <point x="253" y="255" type="curve"/>
      <point x="313" y="260"/>
      <point x="397" y="265"/>
      <point x="451" y="269" type="curve"/>
      <point x="494" y="301"/>
      <point x="495" y="382"/>
      <point x="442" y="412" type="curve"/>
      <point x="397" y="401"/>
      <point x="334" y="393"/>
      <point x="273" y="388" type="curve"/>
      <point x="284" y="436"/>
      <point x="295" y="498"/>
      <point x="307" y="544" type="curve"/>
      <point x="383" y="550"/>
      <point x="466" y="553"/>
      <point x="522" y="554" type="curve"/>
      <point x="560" y="590"/>
      <point x="564" y="671"/>
      <point x="513" y="700" type="curve"/>
      <point x="401" y="684"/>
      <point x="230" y="681"/>
    </contour>
  </outline>
</glyph>
<glyph name="G" format="1">
  <advance width="561"/>
  <unicode hex="0047"/>
  <outline>
    <contour>
      <point x="380" y="733" type="move" name="top"/>
    </contour>
    <contour>
      <point x="338" y="49" type="line"/>
      <point x="328" y="34"/>
      <point x="305" y="-4"/>
      <point x="304" y="-28" type="curve" smooth="yes"/>
      <point x="303" y="-51"/>
      <point x="366" y="-84"/>
      <point x="407" y="-84" type="curve" smooth="yes"/>
      <point x="458" y="-84"/>
      <point x="519" y="162"/>
      <point x="519" y="258" type="curve" smooth="yes"/>
      <point x="519" y="339"/>
      <point x="489" y="390"/>
      <point x="382" y="390" type="curve" smooth="yes"/>
      <point x="334" y="390"/>
      <point x="307" y="387"/>
      <point x="287" y="364" type="curve" smooth="yes"/>
      <point x="272" y="348"/>
      <point x="260" y="278"/>
      <point x="270" y="252" type="curve" smooth="yes"/>
      <point x="278" y="228"/>
      <point x="345" y="226"/>
      <point x="384" y="230" type="curve"/>
      <point x="380" y="184" type="line"/>
      <point x="306" y="156"/>
      <point x="228" y="137"/>
      <point x="159" y="136" type="curve"/>
      <point x="167" y="331"/>
      <point x="272" y="575"/>
      <point x="338" y="575" type="curve" smooth="yes"/>
      <point x="368" y="575"/>
      <point x="383" y="539"/>
      <point x="376" y="467" type="curve"/>
      <point x="457" y="433"/>
      <point x="528" y="461"/>
      <point x="528" y="526" type="curve" smooth="yes"/>
      <point x="528" y="618"/>
      <point x="456" y="710"/>
      <point x="351" y="710" type="curve" smooth="yes"/>
      <point x="145" y="710"/>
      <point x="28" y="403"/>
      <point x="16" y="205" type="curve" smooth="yes"/>
      <point x="11" y="127"/>
      <point x="116" y="-3"/>
      <point x="181" y="-3" type="curve" smooth="yes"/>
      <point x="215" y="-3"/>
      <point x="289" y="28"/>
      <point x="328" y="59" type="curve"/>
    </contour>
  </outline>
</glyph>
<glyph name="H" format="1">
  <advance width="619"/>
  <unicode hex="0048"/>
  <outline>
    <contour>
      <point x="436" y="420" type="line"/>
      <point x="358" y="408"/>
      <point x="252" y="398"/>
      <point x="185" y="396" type="curve"/>
      <point x="140" y="354"/>
      <point x="150" y="289"/>
      <point x="194" y="257" type="curve"/>
      <point x="238" y="259"/>
      <point x="342" y="271"/>
      <point x="409" y="281" type="curve"/>
    </contour>
    <contour>
      <point x="213" y="303" type="curve" smooth="yes"/>
      <point x="238" y="443"/>
      <point x="284" y="579"/>
      <point x="284" y="603" type="curve" smooth="yes"/>
      <point x="284" y="638"/>
      <point x="190" y="700"/>
      <point x="151" y="700" type="curve" smooth="yes"/>
      <point x="120" y="700"/>
      <point x="90" y="490"/>
      <point x="74" y="401" type="curve" smooth="yes"/>
      <point x="50" y="260"/>
      <point x="17" y="127"/>
      <point x="18" y="94" type="curve" smooth="yes"/>
      <point x="18" y="62"/>
      <point x="104" y="0"/>
      <point x="151" y="0" type="curve" smooth="yes"/>
      <point x="186" y="0"/>
      <point x="184" y="135"/>
    </contour>
    <contour>
      <point x="549" y="303" type="curve" smooth="yes"/>
      <point x="574" y="443"/>
      <point x="620" y="579"/>
      <point x="620" y="603" type="curve" smooth="yes"/>
      <point x="620" y="638"/>
      <point x="526" y="700"/>
      <point x="487" y="700" type="curve" smooth="yes"/>
      <point x="456" y="700"/>
      <point x="426" y="490"/>
      <point x="410" y="401" type="curve" smooth="yes"/>
      <point x="386" y="261"/>
      <point x="353" y="130"/>
      <point x="354" y="94" type="curve" smooth="yes"/>
      <point x="354" y="62"/>
      <point x="440" y="0"/>
      <point x="487" y="0" type="curve" smooth="yes"/>
      <point x="522" y="0"/>
      <point x="520" y="135"/>
    </contour>
  </outline>
</glyph>
<glyph name="J" format="1">
  <advance width="500"/>
  <unicode hex="004A"/>
  <outline>
    <contour>
      <point x="127" y="672" type="curve"/>
      <point x="90" y="620"/>
      <point x="108" y="552"/>
      <point x="154" y="532" type="curve"/>
      <point x="211" y="543"/>
      <point x="276" y="546"/>
      <point x="334" y="554" type="curve"/>
      <point x="330" y="511"/>
      <point x="311" y="433"/>
      <point x="296" y="353" type="curve" smooth="yes"/>
      <point x="275" y="237"/>
      <point x="242" y="121"/>
      <point x="206" y="121" type="curve" smooth="yes"/>
      <point x="178" y="121"/>
      <point x="149" y="203"/>
      <point x="157" y="289" type="curve"/>
      <point x="102" y="334"/>
      <point x="-8" y="304"/>
      <point x="-8" y="207" type="curve" smooth="yes"/>
      <point x="-8" y="100"/>
      <point x="123" y="0"/>
      <point x="194" y="0" type="curve" smooth="yes"/>
      <point x="266" y="0"/>
      <point x="360" y="50"/>
      <point x="384" y="92" type="curve" smooth="yes"/>
      <point x="403" y="125"/>
      <point x="432" y="291"/>
      <point x="445" y="353" type="curve" smooth="yes"/>
      <point x="459" y="419"/>
      <point x="499" y="568"/>
      <point x="500" y="602" type="curve" smooth="yes"/>
      <point x="500" y="632"/>
      <point x="418" y="700"/>
      <point x="384" y="700" type="curve" smooth="yes"/>
      <point x="322" y="700"/>
      <point x="214" y="694"/>
    </contour>
  </outline>
</glyph>
<glyph name="K" format="1">
  <advance width="577"/>
  <unicode hex="004B"/>
  <outline>
    <contour>
      <point x="232" y="434" type="curve"/>
      <point x="254" y="491"/>
      <point x="284" y="589"/>
      <point x="284" y="603" type="curve" smooth="yes"/>
      <point x="284" y="638"/>
      <point x="190" y="700"/>
      <point x="151" y="700" type="curve" smooth="yes"/>
      <point x="120" y="700"/>
      <point x="90" y="490"/>
      <point x="74" y="401" type="curve" smooth="yes"/>
      <point x="50" y="260"/>
      <point x="17" y="127"/>
      <point x="18" y="94" type="curve" smooth="yes"/>
      <point x="18" y="62"/>
      <point x="104" y="0"/>
      <point x="151" y="0" type="curve" smooth="yes"/>
      <point x="180" y="0"/>
      <point x="188" y="103"/>
      <point x="198" y="241" type="curve"/>
      <point x="263" y="140"/>
      <point x="325" y="62"/>
      <point x="429" y="0" type="curve"/>
      <point x="512" y="12"/>
      <point x="547" y="81"/>
      <point x="532" y="153" type="curve"/>
      <point x="444" y="187"/>
      <point x="342" y="253"/>
      <point x="267" y="325" type="curve"/>
      <point x="396" y="396"/>
      <point x="489" y="482"/>
      <point x="563" y="567" type="curve"/>
      <point x="582" y="642"/>
      <point x="535" y="692"/>
      <point x="446" y="689" type="curve"/>
      <point x="383" y="598"/>
      <point x="321" y="510"/>
    </contour>
  </outline>
</glyph>
<glyph name="L" format="1">
  <advance width="498"/>
  <unicode hex="004C"/>
  <outline>
    <contour>
      <point x="350" y="733" type="move" name="top"/>
    </contour>
    <contour>
      <point x="178" y="137" type="curve"/>
      <point x="193" y="197"/>
      <point x="204" y="241"/>
      <point x="217" y="303" type="curve" smooth="yes"/>
      <point x="247" y="443"/>
      <point x="292" y="579"/>
      <point x="292" y="603" type="curve" smooth="yes"/>
      <point x="292" y="638"/>
      <point x="199" y="700"/>
      <point x="160" y="700" type="curve" smooth="yes"/>
      <point x="129" y="700"/>
      <point x="96" y="490"/>
      <point x="79" y="401" type="curve" smooth="yes"/>
      <point x="53" y="260"/>
      <point x="20" y="135"/>
      <point x="18" y="102" type="curve" smooth="yes"/>
      <point x="16" y="67"/>
      <point x="101" y="2"/>
      <point x="137" y="0" type="curve" smooth="yes"/>
      <point x="211" y="-4"/>
      <point x="335" y="6"/>
      <point x="433" y="26" type="curve"/>
      <point x="484" y="76"/>
      <point x="470" y="159"/>
      <point x="405" y="187" type="curve"/>
      <point x="330" y="161"/>
      <point x="257" y="145"/>
    </contour>
  </outline>
</glyph>
<glyph name="Q" format="1">
  <advance width="589"/>
  <unicode hex="0051"/>
  <outline>
    <contour>
      <point x="357" y="-15" type="curve"/>
      <point x="340" y="28" type="line"/>
      <point x="508" y="145"/>
      <point x="570" y="317"/>
      <point x="568" y="456" type="curve" smooth="yes"/>
      <point x="566" y="576"/>
      <point x="427" y="712"/>
      <point x="253" y="710" type="curve"/>
      <point x="203" y="693"/>
      <point x="181" y="651"/>
      <point x="181" y="603" type="curve"/>
      <point x="149" y="604"/>
      <point x="131" y="603"/>
      <point x="97" y="593" type="curve"/>
      <point x="66" y="507"/>
      <point x="13" y="264"/>
      <point x="19" y="186" type="curve" smooth="yes"/>
      <point x="25" y="121"/>
      <point x="135" y="23"/>
      <point x="228" y="0" type="curve"/>
      <point x="248" y="-76"/>
      <point x="292" y="-165"/>
      <point x="359" y="-170" type="curve" smooth="yes"/>
      <point x="476" y="-178"/>
      <point x="594" y="-119"/>
      <point x="600" y="-58" type="curve" smooth="yes"/>
      <point x="605" y="-7"/>
      <point x="576" y="30"/>
      <point x="521" y="58" type="curve"/>
      <point x="475" y="30"/>
      <point x="415" y="-3"/>
    </contour>
    <contour>
      <point x="271" y="151" type="curve"/>
      <point x="259" y="191"/>
      <point x="221" y="224"/>
      <point x="178" y="222" type="curve"/>
      <point x="191" y="320"/>
      <point x="225" y="417"/>
      <point x="264" y="502" type="curve"/>
      <point x="263" y="513"/>
      <point x="261" y="523"/>
      <point x="258" y="532" type="curve"/>
      <point x="332" y="530"/>
      <point x="391" y="510"/>
      <point x="429" y="485" type="curve"/>
      <point x="419" y="380"/>
      <point x="367" y="244"/>
    </contour>
  </outline>
</glyph>
<glyph name="S" format="1">
  <advance width="494"/>
  <unicode hex="0053"/>
  <outline>
    <contour>
      <point x="343" y="733" type="move" name="top"/>
    </contour>
    <contour>
      <point x="244" y="0" type="move" name="bottom"/>
    </contour>
    <contour>
      <point x="498" y="521" type="curve" smooth="yes"/>
      <point x="496" y="599"/>
      <point x="407" y="710"/>
      <point x="312" y="710" type="curve" smooth="yes"/>
      <point x="178" y="710"/>
      <point x="70" y="530"/>
      <point x="70" y="442" type="curve" smooth="yes"/>
      <point x="70" y="354"/>
      <point x="214" y="238"/>
      <point x="293" y="178" type="curve"/>
      <point x="256" y="158"/>
      <point x="217" y="139"/>
      <point x="165" y="126" type="curve"/>
      <point x="155" y="158"/>
      <point x="148" y="199"/>
      <point x="144" y="221" type="curve"/>
      <point x="45" y="247"/>
      <point x="-23" y="201"/>
      <point x="-21" y="129" type="curve" smooth="yes"/>
      <point x="-20" y="84"/>
      <point x="90" y="0"/>
      <point x="185" y="0" type="curve" smooth="yes"/>
      <point x="302" y="0"/>
      <point x="470" y="87"/>
      <point x="467" y="175" type="curve" smooth="yes"/>
      <point x="465" y="239"/>
      <point x="240" y="334"/>
      <point x="237" y="428" type="curve" smooth="yes"/>
      <point x="236" y="483"/>
      <point x="286" y="576"/>
      <point x="318" y="576" type="curve" smooth="yes"/>
      <point x="331" y="576"/>
      <point x="334" y="523"/>
      <point x="322" y="451" type="curve"/>
      <point x="405" y="415"/>
      <point x="500" y="447"/>
    </contour>
  </outline>
</glyph>
<glyph name="T" format="1">
  <advance width="567"/>
  <unicode hex="0054"/>
  <outline>
    <contour>
      <point x="380" y="733" type="move" name="top"/>
    </contour>
    <contour>
      <point x="317" y="0" type="move" name="bottom"/>
    </contour>
    <contour>
      <point x="93" y="671" type="curve"/>
      <point x="44" y="622"/>
      <point x="58" y="551"/>
      <point x="104" y="528" type="curve"/>
      <point x="260" y="547" type="line"/>
      <point x="251" y="492"/>
      <point x="239" y="438"/>
      <point x="227" y="371" type="curve" smooth="yes"/>
      <point x="208" y="260"/>
      <point x="175" y="127"/>
      <point x="176" y="94" type="curve" smooth="yes"/>
      <point x="176" y="62"/>
      <point x="262" y="0"/>
      <point x="309" y="0" type="curve" smooth="yes"/>
      <point x="344" y="0"/>
      <point x="342" y="135"/>
      <point x="371" y="303" type="curve" smooth="yes"/>
      <point x="390" y="410"/>
      <point x="402" y="482"/>
      <point x="415" y="552" type="curve"/>
      <point x="481" y="554"/>
      <point x="532" y="556"/>
      <point x="582" y="554" type="curve"/>
      <point x="620" y="590"/>
      <point x="624" y="671"/>
      <point x="573" y="700" type="curve"/>
      <point x="474" y="681"/>
      <point x="227" y="689"/>
    </contour>
  </outline>
</glyph>
<glyph name="U" format="1">
  <advance width="587"/>
  <unicode hex="0055"/>
  <outline>
    <contour>
      <point x="361" y="0" type="move" name="ogonek"/>
    </contour>
    <contour>
      <point x="351" y="733" type="move" name="top"/>
    </contour>
    <contour>
      <point x="386" y="645" type="curve"/>
      <point x="397" y="604"/>
      <point x="402" y="561"/>
      <point x="402" y="517" type="curve" smooth="yes"/>
      <point x="402" y="330"/>
      <point x="313" y="138"/>
      <point x="225" y="138" type="curve" smooth="yes"/>
      <point x="154" y="138"/>
      <point x="229" y="484"/>
      <point x="280" y="601" type="curve"/>
      <point x="262" y="674"/>
      <point x="183" y="699"/>
      <point x="107" y="663" type="curve"/>
      <point x="59" y="499"/>
      <point x="26" y="251"/>
      <point x="26" y="169" type="curve" smooth="yes"/>
      <point x="26" y="103"/>
      <point x="164" y="-5"/>
      <point x="247" y="-5" type="curve" smooth="yes"/>
      <point x="407" y="-5"/>
      <point x="577" y="223"/>
      <point x="577" y="532" type="curve" smooth="yes"/>
      <point x="577" y="577"/>
      <point x="573" y="624"/>
      <point x="565" y="673" type="curve"/>
      <point x="502" y="721"/>
      <point x="437" y="700"/>
    </contour>
  </outline>
</glyph>
<glyph name="V" format="1">
  <advance width="566"/>
  <unicode hex="0056"/>
  <outline>
    <contour>
      <point x="599" y="613" type="curve"/>
      <point x="583" y="700"/>
      <point x="508" y="716"/>
      <point x="431" y="692" type="curve"/>
      <point x="381" y="543"/>
      <point x="315" y="355"/>
      <point x="241" y="193" type="curve"/>
      <point x="239" y="341"/>
      <point x="254" y="580"/>
      <point x="246" y="610" type="curve" smooth="yes"/>
      <point x="237" y="644"/>
      <point x="131" y="686"/>
      <point x="92" y="677" type="curve" smooth="yes"/>
      <point x="62" y="668"/>
      <point x="85" y="478"/>
      <point x="94" y="373" type="curve" smooth="yes"/>
      <point x="104" y="250"/>
      <point x="112" y="124"/>
      <point x="119" y="94" type="curve" smooth="yes"/>
      <point x="128" y="60"/>
      <point x="236" y="0"/>
      <point x="275" y="0" type="curve" smooth="yes"/>
      <point x="317" y="0"/>
      <point x="526" y="454"/>
    </contour>
  </outline>
</glyph>
<glyph name="Z" format="1">
  <advance width="539"/>
  <unicode hex="005A"/>
  <outline>
    <contour>
      <point x="310" y="733" type="move" name="top"/>
    </contour>
    <contour>
      <point x="111" y="691" type="curve"/>
      <point x="54" y="645"/>
      <point x="69" y="553"/>
      <point x="119" y="526" type="curve"/>
      <point x="216" y="536"/>
      <point x="282" y="540"/>
      <point x="373" y="549" type="curve"/>
      <point x="276" y="441"/>
      <point x="16" y="199"/>
      <point x="3" y="159" type="curve" smooth="yes"/>
      <point x="-7" y="127"/>
      <point x="32" y="39"/>
      <point x="65" y="11" type="curve" smooth="yes"/>
      <point x="88" y="-8"/>
      <point x="399" y="6"/>
      <point x="464" y="10" type="curve"/>
      <point x="510" y="59"/>
      <point x="499" y="154"/>
      <point x="444" y="179" type="curve"/>
      <point x="363" y="167"/>
      <point x="286" y="155"/>
      <point x="180" y="135" type="curve"/>
      <point x="319" y="268"/>
      <point x="510" y="482"/>
      <point x="531" y="538" type="curve" smooth="yes"/>
      <point x="541" y="565"/>
      <point x="498" y="665"/>
      <point x="459" y="682" type="curve" smooth="yes"/>
      <point x="434" y="693"/>
      <point x="224" y="694"/>
    </contour>
  </outline>
</glyph>
<glyph name="bracketleft" format="1">
  <advance width="527"/>
  <unicode hex="005B"/>
  <outline>
    <contour>
      <point x="264" y="371" type="curve" smooth="yes"/>
      <point x="280" y="454"/>
      <point x="302" y="557"/>
      <point x="320" y="643" type="curve"/>
      <point x="386" y="649"/>
      <point x="476" y="652"/>
      <point x="535" y="653" type="curve"/>
      <point x="573" y="689"/>
      <point x="577" y="770"/>
      <point x="526" y="799" type="curve"/>
      <point x="410" y="786"/>
      <point x="361" y="784"/>
      <point x="271" y="782" type="curve" smooth="yes"/>
      <point x="233" y="781"/>
      <point x="184" y="746"/>
      <point x="177" y="705" type="curve" smooth="yes"/>
      <point x="168" y="651"/>
      <point x="128" y="438"/>
      <point x="115" y="371" type="curve" smooth="yes"/>
      <point x="94" y="260"/>
      <point x="37" y="-3"/>
      <point x="37" y="-28" type="curve" smooth="yes"/>
      <point x="37" y="-63"/>
      <point x="122" y="-129"/>
      <point x="158" y="-129" type="curve" smooth="yes"/>
      <point x="234" y="-129"/>
      <point x="350" y="-123"/>
      <point x="440" y="-105" type="curve"/>
      <point x="491" y="-55"/>
      <point x="477" y="26"/>
      <point x="412" y="54" type="curve"/>
      <point x="337" y="28"/>
      <point x="276" y="16"/>
      <point x="197" y="8" type="curve"/>
      <point x="215" y="109"/>
      <point x="244" y="268"/>
    </contour>
  </outline>
</glyph>
<glyph name="asciicircum" format="1">
  <advance width="514"/>
  <unicode hex="005E"/>
  <outline>
    <contour>
      <point x="230" y="763" type="curve"/>
      <point x="63" y="494" type="line"/>
      <point x="90" y="441"/>
      <point x="164" y="428"/>
      <point x="232" y="443" type="curve"/>
      <point x="274" y="523"/>
      <point x="306" y="602"/>
      <point x="344" y="677" type="curve"/>
      <point x="413" y="443" type="line"/>
      <point x="471" y="431"/>
      <point x="505" y="452"/>
      <point x="515" y="482" type="curve"/>
      <point x="397" y="750" type="line"/>
      <point x="351" y="776"/>
      <point x="302" y="781"/>
    </contour>
  </outline>
</glyph>
<glyph name="e" format="1">
  <advance width="520"/>
  <unicode hex="0065"/>
  <outline>
    <contour>
      <point x="351" y="0" type="move" name="ogonek"/>
    </contour>
    <contour>
      <point x="310" y="593" type="move" name="top"/>
    </contour>
    <contour>
      <point x="462" y="121" type="curve" smooth="yes"/>
      <point x="462" y="169"/>
      <point x="435" y="205"/>
      <point x="383" y="221" type="curve"/>
      <point x="311" y="172"/>
      <point x="247" y="139"/>
      <point x="177" y="132" type="curve"/>
      <point x="174" y="160"/>
      <point x="174" y="186"/>
      <point x="176" y="213" type="curve"/>
      <point x="355" y="239"/>
      <point x="475" y="327"/>
      <point x="475" y="410" type="curve" smooth="yes"/>
      <point x="475" y="477"/>
      <point x="398" y="564"/>
      <point x="281" y="564" type="curve" smooth="yes"/>
      <point x="117" y="564"/>
      <point x="13" y="334"/>
      <point x="13" y="196" type="curve" smooth="yes"/>
      <point x="13" y="113"/>
      <point x="133" y="0"/>
      <point x="233" y="0" type="curve" smooth="yes"/>
      <point x="328" y="0"/>
      <point x="462" y="57"/>
    </contour>
    <contour>
      <point x="295" y="440" type="curve"/>
      <point x="322" y="433"/>
      <point x="334" y="419"/>
      <point x="334" y="402" type="curve" smooth="yes"/>
      <point x="334" y="371"/>
      <point x="275" y="318"/>
      <point x="191" y="288" type="curve"/>
      <point x="208" y="350"/>
      <point x="245" y="403"/>
    </contour>
  </outline>
</glyph>
<glyph name="f" format="1">
  <advance width="449"/>
  <unicode hex="0066"/>
  <outline>
    <contour>
      <point x="251" y="321" type="curve"/>
      <point x="308" y="326"/>
      <point x="361" y="329"/>
      <point x="413" y="333" type="curve"/>
      <point x="448" y="378"/>
      <point x="443" y="434"/>
      <point x="399" y="467" type="curve"/>
      <point x="351" y="456"/>
      <point x="308" y="447"/>
      <point x="266" y="441" type="curve"/>
      <point x="268" y="534"/>
      <point x="284" y="594"/>
      <point x="300" y="655" type="curve"/>
      <point x="327" y="632"/>
      <point x="344" y="599"/>
      <point x="352" y="548" type="curve"/>
      <point x="430" y="529"/>
      <point x="487" y="566"/>
      <point x="488" y="627" type="curve" smooth="yes"/>
      <point x="489" y="697"/>
      <point x="405" y="775"/>
      <point x="295" y="775" type="curve" smooth="yes"/>
      <point x="232" y="775"/>
      <point x="153" y="722"/>
      <point x="141" y="686" type="curve" smooth="yes"/>
      <point x="127" y="634"/>
      <point x="138" y="523"/>
      <point x="150" y="431" type="curve"/>
      <point x="110" y="430"/>
      <point x="77" y="428"/>
      <point x="42" y="429" type="curve"/>
      <point x="-2" y="392"/>
      <point x="4" y="320"/>
      <point x="49" y="297" type="curve"/>
      <point x="68" y="300"/>
      <point x="94" y="304"/>
      <point x="124" y="309" type="curve"/>
      <point x="97" y="234"/>
      <point x="49" y="126"/>
      <point x="49" y="88" type="curve" smooth="yes"/>
      <point x="48" y="55"/>
      <point x="131" y="0"/>
      <point x="187" y="0" type="curve" smooth="yes"/>
      <point x="223" y="0"/>
      <point x="235" y="186"/>
    </contour>
  </outline>
</glyph>
<glyph name="h" format="1">
  <advance width="647"/>
  <unicode hex="0068"/>
  <outline>
    <contour>
      <point x="347" y="336" type="curve" smooth="yes"/>
      <point x="374" y="336"/>
      <point x="292" y="124"/>
      <point x="291" y="96" type="curve" smooth="yes"/>
      <point x="290" y="71"/>
      <point x="368" y="0"/>
      <point x="417" y="0" type="curve" smooth="yes"/>
      <point x="470" y="0"/>
      <point x="612" y="46"/>
      <point x="613" y="97" type="curve" smooth="yes"/>
      <point x="615" y="148"/>
      <point x="591" y="184"/>
      <point x="534" y="208" type="curve"/>
      <point x="497" y="180"/>
      <point x="474" y="167"/>
      <point x="433" y="151" type="curve"/>
      <point x="478" y="288"/>
      <point x="526" y="396"/>
      <point x="527" y="437" type="curve" smooth="yes"/>
      <point x="528" y="464"/>
      <point x="455" y="537"/>
      <point x="414" y="537" type="curve" smooth="yes"/>
      <point x="373" y="537"/>
      <point x="292" y="433"/>
      <point x="225" y="343" type="curve"/>
      <point x="207" y="353" type="line"/>
      <point x="221" y="411"/>
      <point x="242" y="477"/>
      <point x="258" y="515" type="curve" smooth="yes"/>
      <point x="276" y="559"/>
      <point x="341" y="627"/>
      <point x="341" y="664" type="curve" smooth="yes"/>
      <point x="341" y="701"/>
      <point x="240" y="775"/>
      <point x="205" y="775" type="curve" smooth="yes"/>
      <point x="140" y="775"/>
      <point x="129" y="587"/>
      <point x="96" y="434" type="curve" smooth="yes"/>
      <point x="59" y="261"/>
      <point x="8" y="137"/>
      <point x="8" y="98" type="curve" smooth="yes"/>
      <point x="8" y="64"/>
      <point x="94" y="0"/>
      <point x="146" y="0" type="curve" smooth="yes"/>
      <point x="178" y="0"/>
      <point x="191" y="131"/>
      <point x="194" y="210" type="curve"/>
      <point x="242" y="265"/>
      <point x="314" y="336"/>
    </contour>
  </outline>
</glyph>
<glyph name="i" format="1">
  <advance width="385"/>
  <unicode hex="0069"/>
  <outline>
    <contour>
      <point x="261" y="0" type="move" name="ogonek"/>
    </contour>
    <contour>
      <point x="169" y="593" type="move" name="top"/>
    </contour>
    <contour>
      <point x="353" y="109" type="curve" smooth="yes"/>
      <point x="353" y="148"/>
      <point x="330" y="190"/>
      <point x="266" y="211" type="curve"/>
      <point x="231" y="184"/>
      <point x="209" y="167"/>
      <point x="174" y="151" type="curve"/>
      <point x="217" y="266"/>
      <point x="254" y="390"/>
      <point x="254" y="452" type="curve" smooth="yes"/>
      <point x="254" y="487"/>
      <point x="185" y="564"/>
      <point x="137" y="564" type="curve" smooth="yes"/>
      <point x="98" y="564"/>
      <point x="26" y="491"/>
      <point x="26" y="447" type="curve" smooth="yes"/>
      <point x="26" y="417"/>
      <point x="107" y="383"/>
      <point x="107" y="358" type="curve" smooth="yes"/>
      <point x="107" y="322"/>
      <point x="15" y="148"/>
      <point x="15" y="98" type="curve" smooth="yes"/>
      <point x="15" y="66"/>
      <point x="98" y="0"/>
      <point x="153" y="0" type="curve" smooth="yes"/>
      <point x="227" y="0"/>
      <point x="353" y="55"/>
    </contour>
    <contour>
      <point x="309" y="726" type="curve" smooth="yes"/>
      <point x="295" y="770"/>
      <point x="198" y="794"/>
      <point x="160" y="777" type="curve" smooth="yes"/>
      <point x="131" y="761"/>
      <point x="111" y="719"/>
      <point x="111" y="684" type="curve" smooth="yes"/>
      <point x="111" y="649"/>
      <point x="181" y="593"/>
      <point x="221" y="593" type="curve" smooth="yes"/>
      <point x="268" y="593"/>
      <point x="323" y="684"/>
    </contour>
  </outline>
</glyph>
<glyph name="j" format="1">
  <advance width="311"/>
  <unicode hex="006A"/>
  <outline>
    <contour>
      <point x="153" y="-181" type="curve" smooth="yes"/>
      <point x="174" y="-140"/>
      <point x="182" y="-1"/>
      <point x="206" y="138" type="curve" smooth="yes"/>
      <point x="229" y="282"/>
      <point x="268" y="426"/>
      <point x="267" y="460" type="curve" smooth="yes"/>
      <point x="266" y="489"/>
      <point x="186" y="564"/>
      <point x="142" y="564" type="curve" smooth="yes"/>
      <point x="96" y="564"/>
      <point x="30" y="491"/>
      <point x="31" y="447" type="curve" smooth="yes"/>
      <point x="32" y="417"/>
      <point x="107" y="386"/>
      <point x="107" y="361" type="curve" smooth="yes"/>
      <point x="108" y="329"/>
      <point x="81" y="206"/>
      <point x="67" y="110" type="curve" smooth="yes"/>
      <point x="46" y="-27"/>
      <point x="19" y="-159"/>
      <point x="-15" y="-159" type="curve" smooth="yes"/>
      <point x="-47" y="-159"/>
      <point x="-65" y="-106"/>
      <point x="-92" y="-35" type="curve"/>
      <point x="-157" y="-17"/>
      <point x="-224" y="-58"/>
      <point x="-223" y="-118" type="curve" smooth="yes"/>
      <point x="-220" y="-190"/>
      <point x="-102" y="-269"/>
      <point x="-8" y="-269" type="curve" smooth="yes"/>
      <point x="46" y="-269"/>
      <point x="131" y="-222"/>
    </contour>
    <contour>
      <point x="295" y="726" type="curve" smooth="yes"/>
      <point x="281" y="770"/>
      <point x="184" y="794"/>
      <point x="146" y="777" type="curve" smooth="yes"/>
      <point x="117" y="761"/>
      <point x="97" y="719"/>
      <point x="97" y="684" type="curve" smooth="yes"/>
      <point x="97" y="649"/>
      <point x="167" y="593"/>
      <point x="207" y="593" type="curve" smooth="yes"/>
      <point x="254" y="593"/>
      <point x="309" y="684"/>
    </contour>
  </outline>
</glyph>
<glyph name="k" format="1">
  <advance width="602"/>
  <unicode hex="006B"/>
  <outline>
    <contour>
      <point x="207" y="353" type="line"/>
      <point x="221" y="411"/>
      <point x="242" y="477"/>
      <point x="258" y="515" type="curve" smooth="yes"/>
      <point x="276" y="559"/>
      <point x="341" y="627"/>
      <point x="341" y="664" type="curve" smooth="yes"/>
      <point x="341" y="701"/>
      <point x="240" y="775"/>
      <point x="205" y="775" type="curve" smooth="yes"/>
      <point x="140" y="775"/>
      <point x="129" y="587"/>
      <point x="96" y="434" type="curve" smooth="yes"/>
      <point x="59" y="261"/>
      <point x="8" y="137"/>
      <point x="8" y="98" type="curve" smooth="yes"/>
      <point x="8" y="64"/>
      <point x="94" y="0"/>
      <point x="146" y="0" type="curve" smooth="yes"/>
      <point x="178" y="0"/>
      <point x="191" y="131"/>
      <point x="194" y="210" type="curve"/>
      <point x="257" y="279"/>
      <point x="322" y="357"/>
      <point x="360" y="357" type="curve" smooth="yes"/>
      <point x="372" y="357"/>
      <point x="380" y="349"/>
      <point x="380" y="336" type="curve" smooth="yes"/>
      <point x="380" y="310"/>
      <point x="348" y="265"/>
      <point x="268" y="233" type="curve"/>
      <point x="249" y="202" type="line"/>
      <point x="266" y="95"/>
      <point x="337" y="0"/>
      <point x="435" y="0" type="curve" smooth="yes"/>
      <point x="510" y="0"/>
      <point x="568" y="41"/>
      <point x="568" y="97" type="curve" smooth="yes"/>
      <point x="568" y="128"/>
      <point x="548" y="162"/>
      <point x="506" y="187" type="curve"/>
      <point x="481" y="173"/>
      <point x="457" y="160"/>
      <point x="428" y="151" type="curve"/>
      <point x="404" y="160"/>
      <point x="386" y="176"/>
      <point x="364" y="196" type="curve"/>
      <point x="448" y="251"/>
      <point x="521" y="331"/>
      <point x="521" y="411" type="curve" smooth="yes"/>
      <point x="521" y="453"/>
      <point x="466" y="537"/>
      <point x="417" y="537" type="curve" smooth="yes"/>
      <point x="367" y="537"/>
      <point x="292" y="433"/>
      <point x="225" y="343" type="curve"/>
    </contour>
  </outline>
</glyph>
<glyph name="m" format="1">
  <advance width="944"/>
  <unicode hex="006D"/>
  <outline>
    <contour>
      <point x="254" y="464" type="curve" smooth="yes"/>
      <point x="254" y="490"/>
      <point x="181" y="564"/>
      <point x="137" y="564" type="curve" smooth="yes"/>
      <point x="98" y="564"/>
      <point x="26" y="491"/>
      <point x="26" y="447" type="curve" smooth="yes"/>
      <point x="26" y="417"/>
      <point x="107" y="383"/>
      <point x="107" y="358" type="curve" smooth="yes"/>
      <point x="107" y="322"/>
      <point x="15" y="148"/>
      <point x="15" y="98" type="curve" smooth="yes"/>
      <point x="15" y="66"/>
      <point x="98" y="0"/>
      <point x="153" y="0" type="curve" smooth="yes"/>
      <point x="185" y="0"/>
      <point x="194" y="124"/>
      <point x="213" y="196" type="curve"/>
      <point x="265" y="263"/>
      <point x="328" y="336"/>
      <point x="362" y="336" type="curve" smooth="yes"/>
      <point x="390" y="336"/>
      <point x="308" y="124"/>
      <point x="308" y="98" type="curve" smooth="yes"/>
      <point x="308" y="68"/>
      <point x="392" y="0"/>
      <point x="437" y="0" type="curve" smooth="yes"/>
      <point x="468" y="0"/>
      <point x="478" y="124"/>
      <point x="497" y="196" type="curve"/>
      <point x="548" y="263"/>
      <point x="611" y="336"/>
      <point x="646" y="336" type="curve" smooth="yes"/>
      <point x="673" y="336"/>
      <point x="591" y="124"/>
      <point x="590" y="96" type="curve" smooth="yes"/>
      <point x="589" y="70"/>
      <point x="669" y="0"/>
      <point x="716" y="0" type="curve" smooth="yes"/>
      <point x="781" y="0"/>
      <point x="912" y="57"/>
      <point x="912" y="109" type="curve" smooth="yes"/>
      <point x="912" y="153"/>
      <point x="884" y="190"/>
      <point x="824" y="211" type="curve"/>
      <point x="792" y="184"/>
      <point x="775" y="173"/>
      <point x="733" y="151" type="curve"/>
      <point x="756" y="231"/>
      <point x="824" y="394"/>
      <point x="825" y="437" type="curve" smooth="yes"/>
      <point x="826" y="464"/>
      <point x="754" y="537"/>
      <point x="713" y="537" type="curve" smooth="yes"/>
      <point x="672" y="537"/>
      <point x="591" y="433"/>
      <point x="508" y="327" type="curve"/>
      <point x="520" y="372"/>
      <point x="531" y="415"/>
      <point x="532" y="452" type="curve" smooth="yes"/>
      <point x="534" y="476"/>
      <point x="467" y="537"/>
      <point x="426" y="537" type="curve" smooth="yes"/>
      <point x="385" y="537"/>
      <point x="308" y="433"/>
      <point x="234" y="336" type="curve"/>
      <point x="247" y="383"/>
      <point x="254" y="433"/>
    </contour>
  </outline>
</glyph>
<glyph name="n" format="1">
  <advance width="660"/>
  <unicode hex="006E"/>
  <outline>
    <contour>
      <point x="354" y="593" type="move" name="top"/>
    </contour>
    <contour>
      <point x="450" y="151" type="curve"/>
      <point x="473" y="231"/>
      <point x="541" y="394"/>
      <point x="542" y="437" type="curve" smooth="yes"/>
      <point x="543" y="464"/>
      <point x="471" y="537"/>
      <point x="430" y="537" type="curve" smooth="yes"/>
      <point x="389" y="537"/>
      <point x="308" y="433"/>
      <point x="234" y="336" type="curve"/>
      <point x="247" y="383"/>
      <point x="254" y="433"/>
      <point x="254" y="464" type="curve" smooth="yes"/>
      <point x="254" y="490"/>
      <point x="181" y="564"/>
      <point x="137" y="564" type="curve" smooth="yes"/>
      <point x="98" y="564"/>
      <point x="26" y="491"/>
      <point x="26" y="447" type="curve" smooth="yes"/>
      <point x="26" y="417"/>
      <point x="107" y="383"/>
      <point x="107" y="358" type="curve" smooth="yes"/>
      <point x="107" y="322"/>
      <point x="15" y="148"/>
      <point x="15" y="98" type="curve" smooth="yes"/>
      <point x="15" y="66"/>
      <point x="98" y="0"/>
      <point x="153" y="0" type="curve" smooth="yes"/>
      <point x="185" y="0"/>
      <point x="194" y="124"/>
      <point x="213" y="196" type="curve"/>
      <point x="265" y="263"/>
      <point x="328" y="336"/>
      <point x="362" y="336" type="curve" smooth="yes"/>
      <point x="390" y="336"/>
      <point x="308" y="124"/>
      <point x="307" y="96" type="curve" smooth="yes"/>
      <point x="306" y="70"/>
      <point x="385" y="0"/>
      <point x="433" y="0" type="curve" smooth="yes"/>
      <point x="498" y="0"/>
      <point x="628" y="57"/>
      <point x="628" y="109" type="curve" smooth="yes"/>
      <point x="628" y="153"/>
      <point x="601" y="190"/>
      <point x="541" y="211" type="curve"/>
      <point x="508" y="184"/>
      <point x="492" y="173"/>
    </contour>
  </outline>
</glyph>
<glyph name="o" format="1">
  <advance width="511"/>
  <unicode hex="006F"/>
  <outline>
    <contour>
      <point x="311" y="593" type="move" name="top"/>
    </contour>
    <contour>
      <point x="178" y="400" type="curve"/>
      <point x="243" y="410"/>
      <point x="314" y="404"/>
      <point x="357" y="372" type="curve"/>
      <point x="339" y="255"/>
      <point x="284" y="154"/>
      <point x="167" y="114" type="curve"/>
      <point x="154" y="197"/>
      <point x="172" y="288"/>
      <point x="217" y="358" type="curve"/>
      <point x="218" y="428"/>
      <point x="146" y="468"/>
      <point x="73" y="428" type="curve"/>
      <point x="30" y="343"/>
      <point x="12" y="254"/>
      <point x="12" y="177" type="curve" smooth="yes"/>
      <point x="12" y="109"/>
      <point x="119" y="0"/>
      <point x="203" y="0" type="curve" smooth="yes"/>
      <point x="376" y="0"/>
      <point x="490" y="206"/>
      <point x="490" y="344" type="curve" smooth="yes"/>
      <point x="490" y="440"/>
      <point x="383" y="548"/>
      <point x="236" y="565" type="curve"/>
      <point x="154" y="541"/>
      <point x="123" y="465"/>
    </contour>
  </outline>
</glyph>
<glyph name="p" format="1">
  <advance width="582"/>
  <unicode hex="0070"/>
  <outline>
    <contour>
      <point x="-31" y="-167" type="curve" smooth="yes"/>
      <point x="-31" y="-201"/>
      <point x="49" y="-265"/>
      <point x="103" y="-265" type="curve" smooth="yes"/>
      <point x="147" y="-265"/>
      <point x="131" y="-79"/>
      <point x="182" y="76" type="curve"/>
      <point x="139" y="59" type="line"/>
      <point x="156" y="32"/>
      <point x="193" y="0"/>
      <point x="236" y="0" type="curve" smooth="yes"/>
      <point x="400" y="0"/>
      <point x="553" y="195"/>
      <point x="553" y="356" type="curve" smooth="yes"/>
      <point x="553" y="464"/>
      <point x="482" y="547"/>
      <point x="373" y="547" type="curve" smooth="yes"/>
      <point x="349" y="547"/>
      <point x="322" y="543"/>
      <point x="295" y="534" type="curve"/>
      <point x="256" y="468" type="line"/>
      <point x="237" y="506"/>
      <point x="178" y="564"/>
      <point x="137" y="564" type="curve" smooth="yes"/>
      <point x="98" y="564"/>
      <point x="26" y="491"/>
      <point x="26" y="447" type="curve" smooth="yes"/>
      <point x="26" y="417"/>
      <point x="103" y="383"/>
      <point x="103" y="358" type="curve" smooth="yes"/>
      <point x="103" y="306"/>
      <point x="-31" y="-110"/>
    </contour>
    <contour>
      <point x="334" y="408" type="curve" smooth="yes"/>
      <point x="374" y="408"/>
      <point x="396" y="382"/>
      <point x="396" y="339" type="curve" smooth="yes"/>
      <point x="396" y="246"/>
      <point x="301" y="128"/>
      <point x="236" y="128" type="curve" smooth="yes"/>
      <point x="220" y="128"/>
      <point x="209" y="141"/>
      <point x="209" y="167" type="curve" smooth="yes"/>
      <point x="209" y="259"/>
      <point x="259" y="408"/>
    </contour>
  </outline>
</glyph>
<glyph name="q" format="1">
  <advance width="610"/>
  <unicode hex="0071"/>
  <outline>
    <contour>
      <point x="660" y="-63" type="curve"/>
      <point x="656" y="-20"/>
      <point x="624" y="27"/>
      <point x="578" y="27" type="curve" smooth="yes"/>
      <point x="533" y="27"/>
      <point x="488" y="-32"/>
      <point x="428" y="-104" type="curve"/>
      <point x="421" y="-100" type="line"/>
      <point x="468" y="26"/>
      <point x="490" y="110"/>
      <point x="507" y="169" type="curve" smooth="yes"/>
      <point x="526" y="236"/>
      <point x="574" y="384"/>
      <point x="574" y="437" type="curve" smooth="yes"/>
      <point x="574" y="464"/>
      <point x="497" y="537"/>
      <point x="441" y="537" type="curve" smooth="yes"/>
      <point x="425" y="537"/>
      <point x="412" y="507"/>
      <point x="406" y="482" type="curve"/>
      <point x="395" y="518"/>
      <point x="346" y="564"/>
      <point x="305" y="564" type="curve" smooth="yes"/>
      <point x="128" y="564"/>
      <point x="14" y="340"/>
      <point x="14" y="167" type="curve" smooth="yes"/>
      <point x="14" y="104"/>
      <point x="99" y="0"/>
      <point x="166" y="0" type="curve" smooth="yes"/>
      <point x="235" y="0"/>
      <point x="306" y="100"/>
      <point x="363" y="193" type="curve"/>
      <point x="388" y="179" type="line"/>
      <point x="369" y="145"/>
      <point x="351" y="111"/>
      <point x="348" y="93" type="curve" smooth="yes"/>
      <point x="340" y="51"/>
      <point x="289" y="-120"/>
      <point x="289" y="-146" type="curve" smooth="yes"/>
      <point x="289" y="-181"/>
      <point x="372" y="-244"/>
      <point x="431" y="-244" type="curve" smooth="yes"/>
      <point x="479" y="-244"/>
      <point x="596" y="-125"/>
    </contour>
    <contour>
      <point x="343" y="437" type="curve" smooth="yes"/>
      <point x="359" y="437"/>
      <point x="376" y="433"/>
      <point x="394" y="425" type="curve"/>
      <point x="363" y="301"/>
      <point x="273" y="202"/>
      <point x="171" y="139" type="curve"/>
      <point x="184" y="289"/>
      <point x="244" y="437"/>
    </contour>
  </outline>
</glyph>
<glyph name="t" format="1">
  <advance width="434"/>
  <unicode hex="0074"/>
  <outline>
    <contour>
      <point x="226" y="0" type="move" name="bottom"/>
    </contour>
    <contour>
      <point x="375" y="533" type="curve"/>
      <point x="336" y="526"/>
      <point x="307" y="520"/>
      <point x="266" y="515" type="curve"/>
      <point x="286" y="558"/>
      <point x="302" y="592"/>
      <point x="302" y="626" type="curve" smooth="yes"/>
      <point x="302" y="663"/>
      <point x="212" y="728"/>
      <point x="169" y="728" type="curve" smooth="yes"/>
      <point x="144" y="728"/>
      <point x="124" y="583"/>
      <point x="124" y="509" type="curve"/>
      <point x="90" y="510"/>
      <point x="65" y="511"/>
      <point x="36" y="513" type="curve"/>
      <point x="-7" y="473"/>
      <point x="-1" y="401"/>
      <point x="42" y="381" type="curve"/>
      <point x="103" y="385" type="line"/>
      <point x="81" y="292"/>
      <point x="37" y="133"/>
      <point x="37" y="99" type="curve" smooth="yes"/>
      <point x="37" y="65"/>
      <point x="125" y="0"/>
      <point x="187" y="0" type="curve" smooth="yes"/>
      <point x="252" y="0"/>
      <point x="382" y="57"/>
      <point x="382" y="109" type="curve" smooth="yes"/>
      <point x="382" y="153"/>
      <point x="355" y="190"/>
      <point x="295" y="211" type="curve"/>
      <point x="263" y="184"/>
      <point x="231" y="166"/>
      <point x="192" y="147" type="curve"/>
      <point x="200" y="221"/>
      <point x="217" y="310"/>
      <point x="235" y="393" type="curve"/>
      <point x="384" y="399" type="line"/>
      <point x="425" y="436"/>
      <point x="419" y="507"/>
    </contour>
  </outline>
</glyph>
<glyph name="u" format="1">
  <advance width="680"/>
  <unicode hex="0075"/>
  <outline>
    <contour>
      <point x="591" y="0" type="move" name="ogonek"/>
    </contour>
    <contour>
      <point x="344" y="593" type="move" name="top"/>
    </contour>
    <contour>
      <point x="343" y="193" type="curve"/>
      <point x="368" y="179" type="line"/>
      <point x="350" y="145"/>
      <point x="329" y="110"/>
      <point x="329" y="91" type="curve" smooth="yes"/>
      <point x="329" y="68"/>
      <point x="409" y="0"/>
      <point x="453" y="0" type="curve" smooth="yes"/>
      <point x="518" y="0"/>
      <point x="648" y="57"/>
      <point x="648" y="109" type="curve" smooth="yes"/>
      <point x="648" y="153"/>
      <point x="621" y="190"/>
      <point x="561" y="211" type="curve"/>
      <point x="528" y="184"/>
      <point x="500" y="165"/>
      <point x="459" y="147" type="curve"/>
      <point x="490" y="238"/>
      <point x="549" y="396"/>
      <point x="550" y="437" type="curve" smooth="yes"/>
      <point x="550" y="464"/>
      <point x="473" y="537"/>
      <point x="417" y="537" type="curve" smooth="yes"/>
      <point x="392" y="537"/>
      <point x="373" y="469"/>
      <point x="370" y="384" type="curve"/>
      <point x="343" y="315"/>
      <point x="268" y="217"/>
      <point x="179" y="142" type="curve"/>
      <point x="220" y="249"/>
      <point x="254" y="377"/>
      <point x="254" y="464" type="curve" smooth="yes"/>
      <point x="254" y="490"/>
      <point x="181" y="564"/>
      <point x="137" y="564" type="curve" smooth="yes"/>
      <point x="98" y="564"/>
      <point x="26" y="491"/>
      <point x="26" y="447" type="curve" smooth="yes"/>
      <point x="26" y="417"/>
      <point x="107" y="383"/>
      <point x="107" y="358" type="curve" smooth="yes"/>
      <point x="107" y="322"/>
      <point x="30" y="156"/>
      <point x="30" y="106" type="curve" smooth="yes"/>
      <point x="30" y="75"/>
      <point x="103" y="0"/>
      <point x="159" y="0" type="curve" smooth="yes"/>
      <point x="231" y="0"/>
      <point x="280" y="77"/>
    </contour>
  </outline>
</glyph>
<glyph name="v" format="1">
  <advance width="550"/>
  <unicode hex="0076"/>
  <outline>
    <contour>
      <point x="106" y="537" type="curve" smooth="yes"/>
      <point x="57" y="537"/>
      <point x="-9" y="464"/>
      <point x="-9" y="420" type="curve" smooth="yes"/>
      <point x="-9" y="390"/>
      <point x="72" y="359"/>
      <point x="72" y="329" type="curve" smooth="yes"/>
      <point x="72" y="235"/>
      <point x="40" y="146"/>
      <point x="40" y="99" type="curve" smooth="yes"/>
      <point x="40" y="71"/>
      <point x="148" y="0"/>
      <point x="181" y="0" type="curve" smooth="yes"/>
      <point x="300" y="0"/>
      <point x="488" y="323"/>
      <point x="525" y="478" type="curve"/>
      <point x="513" y="561"/>
      <point x="447" y="583"/>
      <point x="360" y="551" type="curve"/>
      <point x="330" y="398"/>
      <point x="283" y="256"/>
      <point x="190" y="122" type="curve"/>
      <point x="173" y="129" type="line"/>
      <point x="216" y="257"/>
      <point x="229" y="354"/>
      <point x="229" y="437" type="curve" smooth="yes"/>
      <point x="229" y="470"/>
      <point x="155" y="537"/>
    </contour>
  </outline>
</glyph>
<glyph name="y" format="1">
  <advance width="569"/>
  <unicode hex="0079"/>
  <outline>
    <contour>
      <point x="337" y="593" type="move" name="top"/>
    </contour>
    <contour>
      <point x="394" y="133" type="line"/>
      <point x="218" y="12"/>
      <point x="34" y="-126"/>
      <point x="34" y="-190" type="curve" smooth="yes"/>
      <point x="34" y="-258"/>
      <point x="143" y="-356"/>
      <point x="226" y="-356" type="curve" smooth="yes"/>
      <point x="289" y="-356"/>
      <point x="366" y="-314"/>
      <point x="395" y="-266" type="curve" smooth="yes"/>
      <point x="427" y="-213"/>
      <point x="540" y="392"/>
      <point x="540" y="431" type="curve" smooth="yes"/>
      <point x="540" y="461"/>
      <point x="445" y="537"/>
      <point x="415" y="537" type="curve" smooth="yes"/>
      <point x="382" y="537"/>
      <point x="369" y="413"/>
      <point x="356" y="280" type="curve"/>
      <point x="309" y="242"/>
      <point x="257" y="205"/>
      <point x="194" y="172" type="curve"/>
      <point x="234" y="283"/>
      <point x="254" y="392"/>
      <point x="254" y="464" type="curve" smooth="yes"/>
      <point x="254" y="490"/>
      <point x="181" y="564"/>
      <point x="137" y="564" type="curve" smooth="yes"/>
      <point x="98" y="564"/>
      <point x="26" y="491"/>
      <point x="26" y="447" type="curve" smooth="yes"/>
      <point x="26" y="417"/>
      <point x="107" y="383"/>
      <point x="107" y="358" type="curve" smooth="yes"/>
      <point x="107" y="322"/>
      <point x="43" y="180"/>
      <point x="43" y="130" type="curve" smooth="yes"/>
      <point x="43" y="90"/>
      <point x="115" y="32"/>
      <point x="144" y="32" type="curve" smooth="yes"/>
      <point x="197" y="32"/>
      <point x="305" y="103"/>
      <point x="376" y="160" type="curve"/>
    </contour>
    <contour>
      <point x="254" y="-251" type="curve"/>
      <point x="215" y="-244"/>
      <point x="185" y="-222"/>
      <point x="184" y="-196" type="curve" smooth="yes"/>
      <point x="182" y="-155"/>
      <point x="267" y="-76"/>
      <point x="360" y="-3" type="curve"/>
      <point x="326" y="-117"/>
      <point x="301" y="-185"/>
    </contour>
  </outline>
</glyph>
<glyph name="braceleft" format="1">
  <advance width="514"/>
  <unicode hex="007B"/>
  <outline>
    <contour>
      <point x="367" y="809" type="curve" smooth="yes"/>
      <point x="250" y="809"/>
      <point x="147" y="715"/>
      <point x="147" y="627" type="curve" smooth="yes"/>
      <point x="147" y="527"/>
      <point x="273" y="473"/>
      <point x="272" y="414" type="curve" smooth="yes"/>
      <point x="272" y="398"/>
      <point x="263" y="385"/>
      <point x="245" y="371" type="curve"/>
      <point x="220" y="396"/>
      <point x="190" y="416"/>
      <point x="169" y="416" type="curve" smooth="yes"/>
      <point x="141" y="416"/>
      <point x="102" y="364"/>
      <point x="102" y="333" type="curve" smooth="yes"/>
      <point x="102" y="314"/>
      <point x="147" y="283"/>
      <point x="177" y="268" type="curve"/>
      <point x="185" y="144"/>
      <point x="76" y="26"/>
      <point x="76" y="-7" type="curve" smooth="yes"/>
      <point x="76" y="-49"/>
      <point x="170" y="-140"/>
      <point x="232" y="-140" type="curve" smooth="yes"/>
      <point x="306" y="-140"/>
      <point x="439" y="-85"/>
      <point x="439" y="-31" type="curve" smooth="yes"/>
      <point x="439" y="8"/>
      <point x="416" y="50"/>
      <point x="352" y="71" type="curve"/>
      <point x="317" y="44"/>
      <point x="295" y="27"/>
      <point x="240" y="8" type="curve"/>
      <point x="283" y="71"/>
      <point x="316" y="174"/>
      <point x="309" y="263" type="curve"/>
      <point x="399" y="273"/>
      <point x="440" y="314"/>
      <point x="440" y="366" type="curve" smooth="yes"/>
      <point x="440" y="451"/>
      <point x="310" y="503"/>
      <point x="310" y="587" type="curve" smooth="yes"/>
      <point x="310" y="632"/>
      <point x="331" y="667"/>
      <point x="375" y="689" type="curve"/>
      <point x="385" y="665"/>
      <point x="392" y="641"/>
      <point x="398" y="609" type="curve"/>
      <point x="470" y="582"/>
      <point x="539" y="614"/>
      <point x="536" y="673" type="curve" smooth="yes"/>
      <point x="533" y="740"/>
      <point x="453" y="809"/>
    </contour>
  </outline>
</glyph>
<glyph name="braceright" format="1">
  <advance width="511"/>
  <unicode hex="007D"/>
  <outline>
    <contour>
      <point x="288" y="388" type="line"/>
      <point x="381" y="466"/>
      <point x="483" y="575"/>
      <point x="483" y="685" type="curve" smooth="yes"/>
      <point x="483" y="735"/>
      <point x="378" y="807"/>
      <point x="329" y="807" type="curve" smooth="yes"/>
      <point x="225" y="807"/>
      <point x="87" y="744"/>
      <point x="98" y="664" type="curve" smooth="yes"/>
      <point x="103" y="631"/>
      <point x="133" y="604"/>
      <point x="173" y="597" type="curve"/>
      <point x="237" y="646"/>
      <point x="280" y="667"/>
      <point x="343" y="687" type="curve"/>
      <point x="343" y="548"/>
      <point x="142" y="457"/>
      <point x="142" y="401" type="curve" smooth="yes"/>
      <point x="142" y="368"/>
      <point x="182" y="334"/>
      <point x="228" y="311" type="curve"/>
      <point x="167" y="260" type="line"/>
      <point x="207" y="218"/>
      <point x="225" y="162"/>
      <point x="225" y="110" type="curve" smooth="yes"/>
      <point x="225" y="39"/>
      <point x="193" y="-26"/>
      <point x="137" y="-26" type="curve" smooth="yes"/>
      <point x="113" y="-26"/>
      <point x="98" y="13"/>
      <point x="87" y="54" type="curve"/>
      <point x="-3" y="71"/>
      <point x="-53" y="27"/>
      <point x="-53" y="-26" type="curve" smooth="yes"/>
      <point x="-53" y="-81"/>
      <point x="22" y="-139"/>
      <point x="125" y="-139" type="curve" smooth="yes"/>
      <point x="276" y="-139"/>
      <point x="372" y="-33"/>
      <point x="372" y="85" type="curve" smooth="yes"/>
      <point x="372" y="137"/>
      <point x="354" y="191"/>
      <point x="313" y="240" type="curve"/>
      <point x="344" y="269"/>
      <point x="424" y="300"/>
      <point x="424" y="334" type="curve" smooth="yes"/>
      <point x="424" y="366"/>
      <point x="384" y="411"/>
      <point x="353" y="411" type="curve"/>
    </contour>
  </outline>
</glyph>
<glyph name="asciitilde" format="1">
  <advance width="612"/>
  <unicode hex="007E"/>
  <outline>
    <contour>
      <point x="600" y="345" type="curve"/>
      <point x="600" y="389"/>
      <point x="556" y="416"/>
      <point x="509" y="409" type="curve"/>
      <point x="430" y="323" type="line"/>
      <point x="424" y="323" type="line"/>
      <point x="356" y="371"/>
      <point x="256" y="420"/>
      <point x="205" y="420" type="curve" smooth="yes"/>
      <point x="150" y="420"/>
      <point x="62" y="343"/>
      <point x="18" y="285" type="curve"/>
      <point x="18" y="236"/>
      <point x="60" y="207"/>
      <point x="108" y="213" type="curve"/>
      <point x="197" y="303" type="line"/>
      <point x="205" y="301" type="line"/>
      <point x="270" y="254"/>
      <point x="353" y="210"/>
      <point x="414" y="210" type="curve" smooth="yes"/>
      <point x="467" y="210"/>
      <point x="558" y="282"/>
    </contour>
  </outline>
</glyph>
<glyph name="brokenbar" format="1">
  <advance width="287"/>
  <unicode hex="00A6"/>
  <outline>
    <contour>
      <point x="257" y="494" type="curve" smooth="yes"/>
      <point x="272" y="574"/>
      <point x="299" y="648"/>
      <point x="299" y="672" type="curve" smooth="yes"/>
      <point x="299" y="707"/>
      <point x="205" y="769"/>
      <point x="166" y="769" type="curve" smooth="yes"/>
      <point x="132" y="769"/>
      <point x="125" y="659"/>
      <point x="108" y="570" type="curve" smooth="yes"/>
      <point x="91" y="481"/>
      <point x="80" y="435"/>
      <point x="80" y="414" type="curve" smooth="yes"/>
      <point x="80" y="382"/>
      <point x="164" y="320"/>
      <point x="211" y="320" type="curve" smooth="yes"/>
      <point x="232" y="320"/>
      <point x="239" y="402"/>
    </contour>
    <contour>
      <point x="169" y="12" type="curve" smooth="yes"/>
      <point x="184" y="92"/>
      <point x="201" y="163"/>
      <point x="201" y="187" type="curve" smooth="yes"/>
      <point x="201" y="222"/>
      <point x="114" y="287"/>
      <point x="75" y="287" type="curve" smooth="yes"/>
      <point x="46" y="287"/>
      <point x="37" y="177"/>
      <point x="20" y="88" type="curve" smooth="yes"/>
      <point x="3" y="-1"/>
      <point x="-10" y="-47"/>
      <point x="-10" y="-68" type="curve" smooth="yes"/>
      <point x="-10" y="-100"/>
      <point x="74" y="-162"/>
      <point x="121" y="-162" type="curve" smooth="yes"/>
      <point x="142" y="-162"/>
      <point x="151" y="-80"/>
    </contour>
  </outline>
</glyph>
<glyph name="section" format="1">
  <advance width="611"/>
  <unicode hex="00A7"/>
  <outline>
    <contour>
      <point x="356" y="700" type="curve" smooth="yes"/>
      <point x="238" y="700"/>
      <point x="126" y="539"/>
      <point x="126" y="467" type="curve" smooth="yes"/>
      <point x="126" y="434"/>
      <point x="140" y="408"/>
      <point x="167" y="377" type="curve"/>
      <point x="99" y="323"/>
      <point x="47" y="259"/>
      <point x="47" y="200" type="curve" smooth="yes"/>
      <point x="47" y="110"/>
      <point x="151" y="31"/>
      <point x="321" y="-63" type="curve"/>
      <point x="287" y="-95"/>
      <point x="240" y="-123"/>
      <point x="183" y="-134" type="curve"/>
      <point x="173" y="-102"/>
      <point x="166" y="-61"/>
      <point x="162" y="-39" type="curve"/>
      <point x="63" y="-13"/>
      <point x="-5" y="-59"/>
      <point x="-3" y="-131" type="curve" smooth="yes"/>
      <point x="-2" y="-176"/>
      <point x="108" y="-260"/>
      <point x="203" y="-260" type="curve" smooth="yes"/>
      <point x="314" y="-260"/>
      <point x="465" y="-169"/>
      <point x="465" y="-65" type="curve" smooth="yes"/>
      <point x="465" y="-31"/>
      <point x="434" y="2"/>
      <point x="397" y="30" type="curve"/>
      <point x="474" y="80"/>
      <point x="534" y="138"/>
      <point x="534" y="190" type="curve" smooth="yes"/>
      <point x="534" y="293"/>
      <point x="285" y="359"/>
      <point x="285" y="468" type="curve" smooth="yes"/>
      <point x="285" y="501"/>
      <point x="319" y="566"/>
      <point x="357" y="566" type="curve" smooth="yes"/>
      <point x="380" y="566"/>
      <point x="393" y="513"/>
      <point x="379" y="442" type="curve"/>
      <point x="460" y="405"/>
      <point x="542" y="442"/>
      <point x="542" y="511" type="curve" smooth="yes"/>
      <point x="542" y="589"/>
      <point x="451" y="700"/>
    </contour>
    <contour>
      <point x="282" y="113" type="curve"/>
      <point x="225" y="140"/>
      <point x="195" y="170"/>
      <point x="195" y="202" type="curve" smooth="yes"/>
      <point x="195" y="228"/>
      <point x="214" y="256"/>
      <point x="254" y="286" type="curve"/>
      <point x="288" y="255"/>
      <point x="329" y="224"/>
      <point x="376" y="190" type="curve"/>
      <point x="354" y="160"/>
      <point x="328" y="138"/>
    </contour>
  </outline>
</glyph>
<glyph name="copyright" format="1">
  <advance width="702"/>
  <unicode hex="00A9"/>
  <outline>
    <contour>
      <point x="685" y="342" type="curve" smooth="yes"/>
      <point x="685" y="495"/>
      <point x="581" y="642"/>
      <point x="370" y="642" type="curve" smooth="yes"/>
      <point x="155" y="642"/>
      <point x="24" y="470"/>
      <point x="24" y="290" type="curve" smooth="yes"/>
      <point x="24" y="130"/>
      <point x="153" y="0"/>
      <point x="325" y="0" type="curve" smooth="yes"/>
      <point x="546" y="0"/>
      <point x="685" y="158"/>
    </contour>
    <contour>
      <point x="492" y="231" type="curve" smooth="yes"/>
      <point x="492" y="253"/>
      <point x="474" y="274"/>
      <point x="435" y="288" type="curve"/>
      <point x="396" y="254"/>
      <point x="349" y="233"/>
      <point x="291" y="231" type="curve"/>
      <point x="285" y="313"/>
      <point x="315" y="392"/>
      <point x="376" y="427" type="curve"/>
      <point x="392" y="416"/>
      <point x="407" y="391"/>
      <point x="415" y="369" type="curve"/>
      <point x="472" y="364"/>
      <point x="497" y="387"/>
      <point x="497" y="415" type="curve" smooth="yes"/>
      <point x="497" y="456"/>
      <point x="447" y="502"/>
      <point x="369" y="502" type="curve" smooth="yes"/>
      <point x="263" y="502"/>
      <point x="189" y="385"/>
      <point x="189" y="271" type="curve" smooth="yes"/>
      <point x="189" y="221"/>
      <point x="259" y="147"/>
      <point x="325" y="147" type="curve" smooth="yes"/>
      <point x="428" y="147"/>
      <point x="492" y="190"/>
    </contour>
    <contour>
      <point x="124" y="295" type="curve" smooth="yes"/>
      <point x="124" y="427"/>
      <point x="215" y="550"/>
      <point x="375" y="550" type="curve" smooth="yes"/>
      <point x="516" y="550"/>
      <point x="593" y="461"/>
      <point x="593" y="349" type="curve" smooth="yes"/>
      <point x="593" y="206"/>
      <point x="489" y="92"/>
      <point x="322" y="92" type="curve" smooth="yes"/>
      <point x="207" y="92"/>
      <point x="124" y="177"/>
    </contour>
  </outline>
</glyph>
<glyph name="ordfeminine" format="1">
  <advance width="510"/>
  <unicode hex="00AA"/>
  <outline>
    <contour>
      <point x="281" y="641" type="curve" smooth="yes"/>
      <point x="290" y="641"/>
      <point x="301" y="639"/>
      <point x="314" y="634" type="curve"/>
      <point x="295" y="567"/>
      <point x="243" y="504"/>
      <point x="168" y="460" type="curve"/>
      <point x="177" y="553"/>
      <point x="215" y="641"/>
    </contour>
    <contour>
      <point x="444" y="646" type="curve" smooth="yes"/>
      <point x="444" y="671"/>
      <point x="382" y="716"/>
      <point x="348" y="716" type="curve" smooth="yes"/>
      <point x="339" y="716"/>
      <point x="329" y="701"/>
      <point x="324" y="682" type="curve"/>
      <point x="311" y="708"/>
      <point x="278" y="733"/>
      <point x="254" y="733" type="curve" smooth="yes"/>
      <point x="131" y="733"/>
      <point x="52" y="585"/>
      <point x="54" y="472" type="curve" smooth="yes"/>
      <point x="55" y="425"/>
      <point x="119" y="359"/>
      <point x="164" y="359" type="curve" smooth="yes"/>
      <point x="210" y="359"/>
      <point x="260" y="423"/>
      <point x="298" y="484" type="curve"/>
      <point x="311" y="478" type="line"/>
      <point x="295" y="452"/>
      <point x="287" y="434"/>
      <point x="287" y="424" type="curve"/>
      <point x="286" y="401"/>
      <point x="344" y="359"/>
      <point x="377" y="359" type="curve" smooth="yes"/>
      <point x="422" y="359"/>
      <point x="513" y="397"/>
      <point x="513" y="434" type="curve"/>
      <point x="512" y="468"/>
      <point x="489" y="493"/>
      <point x="450" y="505" type="curve"/>
      <point x="429" y="490"/>
      <point x="409" y="478"/>
      <point x="383" y="466" type="curve"/>
      <point x="405" y="526"/>
      <point x="444" y="619"/>
    </contour>
  </outline>
</glyph>
<glyph name="guillemotleft" format="1">
  <advance width="736"/>
  <unicode hex="00AB"/>
  <outline>
    <contour>
      <point x="346" y="214" type="curve"/>
      <point x="165" y="323" type="line"/>
      <point x="379" y="440" type="line"/>
      <point x="412" y="496"/>
      <point x="396" y="569"/>
      <point x="320" y="582" type="curve"/>
      <point x="66" y="390" type="line"/>
      <point x="49" y="368"/>
      <point x="43" y="335"/>
      <point x="48" y="308" type="curve"/>
      <point x="239" y="84" type="line"/>
      <point x="313" y="91"/>
      <point x="360" y="141"/>
    </contour>
    <contour>
      <point x="675" y="225" type="curve"/>
      <point x="475" y="317" type="line"/>
      <point x="689" y="400" type="line"/>
      <point x="722" y="456"/>
      <point x="706" y="529"/>
      <point x="622" y="537" type="curve"/>
      <point x="376" y="380" type="line"/>
      <point x="359" y="358"/>
      <point x="353" y="325"/>
      <point x="358" y="298" type="curve"/>
      <point x="573" y="95" type="line"/>
      <point x="643" y="101"/>
      <point x="690" y="151"/>
    </contour>
  </outline>
</glyph>
<glyph name="logicalnot" format="1">
  <advance width="627"/>
  <unicode hex="00AC"/>
  <outline>
    <contour>
      <point x="503" y="459" type="curve" smooth="yes"/>
      <point x="474" y="459"/>
      <point x="224" y="450"/>
      <point x="79" y="455" type="curve"/>
      <point x="29" y="412"/>
      <point x="40" y="341"/>
      <point x="85" y="315" type="curve"/>
      <point x="223" y="317"/>
      <point x="358" y="321"/>
      <point x="464" y="326" type="curve"/>
      <point x="449" y="265"/>
      <point x="436" y="214"/>
      <point x="420" y="161" type="curve"/>
      <point x="441" y="113"/>
      <point x="511" y="99"/>
      <point x="562" y="129" type="curve"/>
      <point x="576" y="204"/>
      <point x="591" y="279"/>
      <point x="604" y="341" type="curve" smooth="yes"/>
      <point x="614" y="385"/>
      <point x="561" y="459"/>
    </contour>
  </outline>
</glyph>
<glyph name="registered" format="1">
  <advance width="421"/>
  <unicode hex="00AE"/>
  <outline>
    <contour>
      <point x="454" y="654" type="curve" smooth="yes"/>
      <point x="454" y="734"/>
      <point x="363" y="800"/>
      <point x="253" y="800" type="curve" smooth="yes"/>
      <point x="143" y="800"/>
      <point x="73" y="679"/>
      <point x="73" y="562" type="curve" smooth="yes"/>
      <point x="73" y="491"/>
      <point x="139" y="415"/>
      <point x="225" y="415" type="curve" smooth="yes"/>
      <point x="357" y="415"/>
      <point x="454" y="535"/>
    </contour>
    <contour>
      <point x="128" y="561" type="curve" smooth="yes"/>
      <point x="128" y="676"/>
      <point x="182" y="751"/>
      <point x="264" y="751" type="curve" smooth="yes"/>
      <point x="330" y="751"/>
      <point x="404" y="721"/>
      <point x="404" y="652" type="curve" smooth="yes"/>
      <point x="404" y="553"/>
      <point x="321" y="466"/>
      <point x="224" y="466" type="curve" smooth="yes"/>
      <point x="170" y="466"/>
      <point x="128" y="507"/>
    </contour>
    <contour>
      <point x="333" y="558" type="curve"/>
      <point x="306" y="568"/>
      <point x="289" y="576"/>
      <point x="270" y="589" type="curve"/>
      <point x="318" y="599"/>
      <point x="342" y="620"/>
      <point x="344" y="653" type="curve" smooth="yes"/>
      <point x="347" y="697"/>
      <point x="305" y="723"/>
      <point x="247" y="723" type="curve" smooth="yes"/>
      <point x="230" y="723"/>
      <point x="216" y="721"/>
      <point x="204" y="718" type="curve"/>
      <point x="190" y="704"/>
      <point x="192" y="682"/>
      <point x="204" y="670" type="curve"/>
      <point x="211" y="670" type="line"/>
      <point x="179" y="540" type="line"/>
      <point x="179" y="526"/>
      <point x="210" y="508"/>
      <point x="221" y="508" type="curve" smooth="yes"/>
      <point x="231" y="508"/>
      <point x="235" y="542"/>
      <point x="238" y="572" type="curve"/>
      <point x="253" y="543"/>
      <point x="271" y="524"/>
      <point x="296" y="508" type="curve"/>
      <point x="322" y="511"/>
      <point x="338" y="530"/>
    </contour>
    <contour>
      <point x="255" y="676" type="curve"/>
      <point x="282" y="679"/>
      <point x="299" y="671"/>
      <point x="297" y="654" type="curve" smooth="yes"/>
      <point x="294" y="635"/>
      <point x="275" y="624"/>
      <point x="243" y="620" type="curve"/>
      <point x="247" y="640"/>
      <point x="251" y="656"/>
    </contour>
  </outline>
</glyph>
<glyph name="macron" format="1">
  <advance width="478"/>
  <unicode hex="00AF"/>
  <outline>
    <contour>
      <point x="313" y="593" type="move" name="_top"/>
    </contour>
    <contour>
      <point x="486" y="614" type="curve"/>
      <point x="528" y="647"/>
      <point x="532" y="706"/>
      <point x="480" y="739" type="curve"/>
      <point x="352" y="725"/>
      <point x="247" y="724"/>
      <point x="114" y="724" type="curve"/>
      <point x="73" y="684"/>
      <point x="77" y="623"/>
      <point x="128" y="600" type="curve"/>
      <point x="259" y="607"/>
      <point x="355" y="610"/>
    </contour>
  </outline>
</glyph>
<glyph name="acute" format="1">
  <advance width="243"/>
  <unicode hex="00B4"/>
  <outline>
    <contour>
      <point x="145" y="593" type="move" name="_top"/>
    </contour>
    <contour>
      <point x="120" y="716" type="curve"/>
      <point x="105" y="691"/>
      <point x="93" y="668"/>
      <point x="71" y="640" type="curve"/>
      <point x="79" y="601"/>
      <point x="114" y="585"/>
      <point x="156" y="591" type="curve"/>
      <point x="213" y="646"/>
      <point x="263" y="704"/>
      <point x="304" y="761" type="curve"/>
      <point x="303" y="832"/>
      <point x="213" y="865"/>
      <point x="132" y="825" type="curve"/>
      <point x="130" y="793"/>
      <point x="126" y="753"/>
    </contour>
  </outline>
</glyph>
<glyph name="periodcentered" format="1">
  <advance width="315"/>
  <unicode hex="00B7"/>
  <outline>
    <contour>
      <point x="273" y="349" type="curve" smooth="yes"/>
      <point x="273" y="382"/>
      <point x="238" y="450"/>
      <point x="201" y="450" type="curve" smooth="yes"/>
      <point x="149" y="450"/>
      <point x="62" y="404"/>
      <point x="62" y="369" type="curve" smooth="yes"/>
      <point x="62" y="329"/>
      <point x="106" y="260"/>
      <point x="141" y="260" type="curve" smooth="yes"/>
      <point x="184" y="260"/>
      <point x="273" y="310"/>
    </contour>
  </outline>
</glyph>
<glyph name="cedilla" format="1">
  <advance width="426"/>
  <unicode hex="00B8"/>
  <outline>
    <contour>
      <point x="208" y="0" type="move" name="_bottom"/>
    </contour>
    <contour>
      <point x="117" y="64" type="line"/>
      <point x="40" y="-91" type="line"/>
      <point x="43" y="-125"/>
      <point x="81" y="-146"/>
      <point x="118" y="-141" type="curve"/>
      <point x="131" y="-132"/>
      <point x="144" y="-124"/>
      <point x="165" y="-120" type="curve"/>
      <point x="180" y="-131"/>
      <point x="187" y="-144"/>
      <point x="187" y="-157" type="curve" smooth="yes"/>
      <point x="187" y="-188"/>
      <point x="153" y="-210"/>
      <point x="102" y="-210" type="curve" smooth="yes"/>
      <point x="65" y="-210"/>
      <point x="22" y="-196"/>
      <point x="-13" y="-165" type="curve"/>
      <point x="-49" y="-161"/>
      <point x="-69" y="-191"/>
      <point x="-63" y="-221" type="curve"/>
      <point x="-16" y="-276"/>
      <point x="56" y="-300"/>
      <point x="125" y="-300" type="curve" smooth="yes"/>
      <point x="254" y="-300"/>
      <point x="328" y="-234"/>
      <point x="328" y="-158" type="curve" smooth="yes"/>
      <point x="328" y="-89"/>
      <point x="274" y="-43"/>
      <point x="207" y="-43" type="curve" smooth="yes"/>
      <point x="190" y="-43"/>
      <point x="171" y="-46"/>
      <point x="153" y="-53" type="curve"/>
      <point x="206" y="35" type="line"/>
    </contour>
  </outline>
</glyph>
<glyph name="guillemotright" format="1">
  <advance width="764"/>
  <unicode hex="00BB"/>
  <outline>
    <contour>
      <point x="719" y="303" type="line"/>
      <point x="733" y="330"/>
      <point x="738" y="363"/>
      <point x="728" y="385" type="curve"/>
      <point x="516" y="582" type="line"/>
      <point x="438" y="575"/>
      <point x="404" y="519"/>
      <point x="420" y="453" type="curve"/>
      <point x="608" y="343" type="line"/>
      <point x="363" y="212" type="line"/>
      <point x="344" y="145"/>
      <point x="382" y="92"/>
      <point x="460" y="89" type="curve"/>
    </contour>
    <contour>
      <point x="389" y="297" type="line"/>
      <point x="403" y="324"/>
      <point x="408" y="357"/>
      <point x="398" y="379" type="curve"/>
      <point x="152" y="538" type="line"/>
      <point x="74" y="523"/>
      <point x="51" y="462"/>
      <point x="78" y="403" type="curve"/>
      <point x="280" y="337" type="line"/>
      <point x="44" y="227" type="line"/>
      <point x="18" y="167"/>
      <point x="51" y="99"/>
      <point x="129" y="95" type="curve"/>
    </contour>
  </outline>
</glyph>
<glyph name="threequarters" format="1">
  <advance width="1033"/>
  <unicode hex="00BE"/>
  <outline>
    <contour>
      <point x="993" y="233" type="curve" smooth="yes"/>
      <point x="993" y="255"/>
      <point x="947" y="288"/>
      <point x="914" y="288" type="curve" smooth="yes"/>
      <point x="886" y="288"/>
      <point x="890" y="233"/>
      <point x="882" y="201" type="curve"/>
      <point x="842" y="194"/>
      <point x="794" y="193"/>
      <point x="751" y="196" type="curve"/>
      <point x="797" y="261"/>
      <point x="863" y="322"/>
      <point x="936" y="375" type="curve"/>
      <point x="941" y="423"/>
      <point x="913" y="450"/>
      <point x="867" y="450" type="curve" smooth="yes"/>
      <point x="796" y="450"/>
      <point x="654" y="241"/>
      <point x="654" y="201" type="curve" smooth="yes"/>
      <point x="654" y="168"/>
      <point x="692" y="123"/>
      <point x="723" y="109" type="curve" smooth="yes"/>
      <point x="745" y="102"/>
      <point x="814" y="102"/>
      <point x="865" y="113" type="curve"/>
      <point x="863" y="100"/>
      <point x="853" y="73"/>
      <point x="853" y="60" type="curve" smooth="yes"/>
      <point x="853" y="39"/>
      <point x="904" y="0"/>
      <point x="933" y="0" type="curve" smooth="yes"/>
      <point x="960" y="0"/>
      <point x="993" y="177"/>
    </contour>
    <contour>
      <point x="691" y="754" type="curve" smooth="yes"/>
      <point x="656" y="754"/>
      <point x="572" y="540"/>
      <point x="473" y="351" type="curve" smooth="yes"/>
      <point x="396" y="203"/>
      <point x="300" y="71"/>
      <point x="300" y="32" type="curve" smooth="yes"/>
      <point x="300" y="7"/>
      <point x="349" y="-43"/>
      <point x="382" y="-43" type="curve" smooth="yes"/>
      <point x="413" y="-43"/>
      <point x="502" y="152"/>
      <point x="585" y="310" type="curve" smooth="yes"/>
      <point x="677" y="484"/>
      <point x="764" y="630"/>
      <point x="764" y="670" type="curve" smooth="yes"/>
      <point x="764" y="698"/>
      <point x="724" y="754"/>
    </contour>
    <contour>
      <point x="435" y="429" type="curve" smooth="yes"/>
      <point x="435" y="462"/>
      <point x="366" y="504"/>
      <point x="271" y="506" type="curve"/>
      <point x="273" y="514" type="line"/>
      <point x="377" y="542"/>
      <point x="438" y="591"/>
      <point x="438" y="637" type="curve" smooth="yes"/>
      <point x="438" y="668"/>
      <point x="376" y="733"/>
      <point x="304" y="733" type="curve" smooth="yes"/>
      <point x="207" y="733"/>
      <point x="113" y="704"/>
      <point x="113" y="660" type="curve" smooth="yes"/>
      <point x="113" y="635"/>
      <point x="129" y="612"/>
      <point x="164" y="598" type="curve"/>
      <point x="213" y="623"/>
      <point x="270" y="640"/>
      <point x="327" y="646" type="curve"/>
      <point x="283" y="558"/>
      <point x="147" y="563"/>
      <point x="147" y="527" type="curve" smooth="yes"/>
      <point x="147" y="500"/>
      <point x="160" y="465"/>
      <point x="184" y="453" type="curve" smooth="yes"/>
      <point x="210" y="440"/>
      <point x="252" y="454"/>
      <point x="291" y="436" type="curve"/>
      <point x="274" y="399"/>
      <point x="226" y="372"/>
      <point x="182" y="361" type="curve"/>
      <point x="189" y="361" type="line"/>
      <point x="183" y="378"/>
      <point x="177" y="398"/>
      <point x="174" y="420" type="curve"/>
      <point x="93" y="432"/>
      <point x="37" y="406"/>
      <point x="37" y="364" type="curve" smooth="yes"/>
      <point x="37" y="330"/>
      <point x="109" y="283"/>
      <point x="184" y="283" type="curve" smooth="yes"/>
      <point x="297" y="283"/>
      <point x="435" y="360"/>
    </contour>
  </outline>
</glyph>
<glyph name="questiondown" format="1">
  <advance width="478"/>
  <unicode hex="00BF"/>
  <outline>
    <contour>
      <point x="88" y="214" type="curve" smooth="yes"/>
      <point x="88" y="190"/>
      <point x="103" y="159"/>
      <point x="127" y="140" type="curve"/>
      <point x="167" y="159"/>
      <point x="197" y="175"/>
      <point x="248" y="173" type="curve"/>
      <point x="209" y="70"/>
      <point x="-31" y="24"/>
      <point x="-31" y="-140" type="curve" smooth="yes"/>
      <point x="-31" y="-190"/>
      <point x="51" y="-276"/>
      <point x="135" y="-276" type="curve" smooth="yes"/>
      <point x="245" y="-276"/>
      <point x="391" y="-223"/>
      <point x="392" y="-157" type="curve" smooth="yes"/>
      <point x="392" y="-116"/>
      <point x="362" y="-76"/>
      <point x="315" y="-66" type="curve"/>
      <point x="268" y="-97"/>
      <point x="175" y="-146"/>
      <point x="96" y="-135" type="curve"/>
      <point x="124" y="-27"/>
      <point x="367" y="37"/>
      <point x="367" y="144" type="curve" smooth="yes"/>
      <point x="367" y="203"/>
      <point x="294" y="295"/>
      <point x="227" y="295" type="curve" smooth="yes"/>
      <point x="136" y="295"/>
      <point x="88" y="259"/>
    </contour>
    <contour>
      <point x="151" y="464" type="curve" smooth="yes"/>
      <point x="151" y="431"/>
      <point x="186" y="363"/>
      <point x="223" y="363" type="curve" smooth="yes"/>
      <point x="275" y="363"/>
      <point x="362" y="409"/>
      <point x="362" y="444" type="curve" smooth="yes"/>
      <point x="362" y="484"/>
      <point x="318" y="553"/>
      <point x="283" y="553" type="curve" smooth="yes"/>
      <point x="240" y="553"/>
      <point x="151" y="503"/>
    </contour>
    <contour>
      <point x="151" y="464" type="curve" smooth="yes"/>
      <point x="151" y="431"/>
      <point x="186" y="363"/>
      <point x="223" y="363" type="curve" smooth="yes"/>
      <point x="275" y="363"/>
      <point x="362" y="409"/>
      <point x="362" y="444" type="curve" smooth="yes"/>
      <point x="362" y="484"/>
      <point x="318" y="553"/>
      <point x="283" y="553" type="curve" smooth="yes"/>
      <point x="240" y="553"/>
      <point x="151" y="503"/>
    </contour>
  </outline>
</glyph>
<glyph name="Agrave" format="1">
  <advance width="556"/>
  <unicode hex="00C0"/>
  <outline>
    <contour>
      <point x="491" y="0" type="move" name="ogonek"/>
    </contour>
    <contour>
      <point x="371" y="733" type="move" name="top"/>
    </contour>
    <contour>
      <point x="-27" y="78" type="curve"/>
      <point x="-10" y="7"/>
      <point x="50" y="-13"/>
      <point x="127" y="5" type="curve"/>
      <point x="185" y="162"/>
      <point x="249" y="357"/>
      <point x="328" y="544" type="curve"/>
      <point x="336" y="396"/>
      <point x="327" y="98"/>
      <point x="335" y="68" type="curve" smooth="yes"/>
      <point x="344" y="34"/>
      <point x="451" y="-8"/>
      <point x="490" y="1" type="curve" smooth="yes"/>
      <point x="520" y="10"/>
      <point x="490" y="222"/>
      <point x="481" y="327" type="curve" smooth="yes"/>
      <point x="471" y="450"/>
      <point x="450" y="586"/>
      <point x="443" y="616" type="curve" smooth="yes"/>
      <point x="434" y="650"/>
      <point x="327" y="700"/>
      <point x="288" y="700" type="curve" smooth="yes"/>
      <point x="248" y="700"/>
      <point x="59" y="270"/>
    </contour>
    <contour>
      <point x="409" y="340" type="line"/>
      <point x="331" y="328"/>
      <point x="225" y="318"/>
      <point x="158" y="316" type="curve"/>
      <point x="113" y="274"/>
      <point x="123" y="209"/>
      <point x="167" y="177" type="curve"/>
      <point x="211" y="179"/>
      <point x="315" y="191"/>
      <point x="382" y="201" type="curve"/>
    </contour>
    <contour>
      <point x="397" y="846" type="line"/>
      <point x="393" y="885"/>
      <point x="392" y="924"/>
      <point x="389" y="965" type="curve"/>
      <point x="318" y="1004"/>
      <point x="236" y="982"/>
      <point x="212" y="902" type="curve"/>
      <point x="236" y="862"/>
      <point x="290" y="783"/>
      <point x="333" y="734" type="curve"/>
      <point x="383" y="723"/>
      <point x="419" y="741"/>
      <point x="428" y="777" type="curve"/>
    </contour>
  </outline>
</glyph>
<glyph name="Acircumflex" format="1">
  <advance width="556"/>
  <unicode hex="00C2"/>
  <outline>
    <contour>
      <point x="491" y="0" type="move" name="ogonek"/>
    </contour>
    <contour>
      <point x="371" y="733" type="move" name="top"/>
    </contour>
    <contour>
      <point x="-27" y="78" type="curve"/>
      <point x="-10" y="7"/>
      <point x="50" y="-13"/>
      <point x="127" y="5" type="curve"/>
      <point x="185" y="162"/>
      <point x="249" y="357"/>
      <point x="328" y="544" type="curve"/>
      <point x="336" y="396"/>
      <point x="327" y="98"/>
      <point x="335" y="68" type="curve" smooth="yes"/>
      <point x="344" y="34"/>
      <point x="451" y="-8"/>
      <point x="490" y="1" type="curve" smooth="yes"/>
      <point x="520" y="10"/>
      <point x="490" y="222"/>
      <point x="481" y="327" type="curve" smooth="yes"/>
      <point x="471" y="450"/>
      <point x="450" y="586"/>
      <point x="443" y="616" type="curve" smooth="yes"/>
      <point x="434" y="650"/>
      <point x="327" y="700"/>
      <point x="288" y="700" type="curve" smooth="yes"/>
      <point x="248" y="700"/>
      <point x="59" y="270"/>
    </contour>
    <contour>
      <point x="409" y="340" type="line"/>
      <point x="331" y="328"/>
      <point x="225" y="318"/>
      <point x="158" y="316" type="curve"/>
      <point x="113" y="274"/>
      <point x="123" y="209"/>
      <point x="167" y="177" type="curve"/>
      <point x="211" y="179"/>
      <point x="315" y="191"/>
      <point x="382" y="201" type="curve"/>
    </contour>
    <contour>
      <point x="330" y="979" type="curve"/>
      <point x="121" y="812" type="line"/>
      <point x="121" y="751"/>
      <point x="186" y="718"/>
      <point x="258" y="733" type="curve"/>
      <point x="308" y="794"/>
      <point x="344" y="837"/>
      <point x="398" y="892" type="curve"/>
      <point x="483" y="736" type="line"/>
      <point x="543" y="724"/>
      <point x="580" y="741"/>
      <point x="595" y="785" type="curve"/>
      <point x="468" y="950" type="line"/>
      <point x="434" y="976"/>
      <point x="378" y="984"/>
    </contour>
  </outline>
</glyph>
<glyph name="Atilde" format="1">
  <advance width="556"/>
  <unicode hex="00C3"/>
  <outline>
    <contour>
      <point x="491" y="0" type="move" name="ogonek"/>
    </contour>
    <contour>
      <point x="371" y="733" type="move" name="top"/>
    </contour>
    <contour>
      <point x="-27" y="78" type="curve"/>
      <point x="-10" y="7"/>
      <point x="50" y="-13"/>
      <point x="127" y="5" type="curve"/>
      <point x="185" y="162"/>
      <point x="249" y="357"/>
      <point x="328" y="544" type="curve"/>
      <point x="336" y="396"/>
      <point x="327" y="98"/>
      <point x="335" y="68" type="curve" smooth="yes"/>
      <point x="344" y="34"/>
      <point x="451" y="-8"/>
      <point x="490" y="1" type="curve" smooth="yes"/>
      <point x="520" y="10"/>
      <point x="490" y="222"/>
      <point x="481" y="327" type="curve" smooth="yes"/>
      <point x="471" y="450"/>
      <point x="450" y="586"/>
      <point x="443" y="616" type="curve" smooth="yes"/>
      <point x="434" y="650"/>
      <point x="327" y="700"/>
      <point x="288" y="700" type="curve" smooth="yes"/>
      <point x="248" y="700"/>
      <point x="59" y="270"/>
    </contour>
    <contour>
      <point x="409" y="340" type="line"/>
      <point x="331" y="328"/>
      <point x="225" y="318"/>
      <point x="158" y="316" type="curve"/>
      <point x="113" y="274"/>
      <point x="123" y="209"/>
      <point x="167" y="177" type="curve"/>
      <point x="211" y="179"/>
      <point x="315" y="191"/>
      <point x="382" y="201" type="curve"/>
    </contour>
    <contour>
      <point x="628" y="865" type="curve"/>
      <point x="628" y="909"/>
      <point x="584" y="936"/>
      <point x="537" y="929" type="curve"/>
      <point x="472" y="849" type="line"/>
      <point x="466" y="849" type="line"/>
      <point x="418" y="893"/>
      <point x="352" y="936"/>
      <point x="293" y="936" type="curve" smooth="yes"/>
      <point x="244" y="936"/>
      <point x="152" y="849"/>
      <point x="116" y="805" type="curve"/>
      <point x="116" y="756"/>
      <point x="158" y="727"/>
      <point x="206" y="733" type="curve"/>
      <point x="280" y="816" type="line"/>
      <point x="288" y="814" type="line"/>
      <point x="329" y="772"/>
      <point x="386" y="733"/>
      <point x="452" y="733" type="curve" smooth="yes"/>
      <point x="507" y="733"/>
      <point x="591" y="808"/>
    </contour>
  </outline>
</glyph>
<glyph name="Aring" format="1">
  <advance width="556"/>
  <unicode hex="00C5"/>
  <outline>
    <contour>
      <point x="491" y="0" type="move" name="ogonek"/>
    </contour>
    <contour>
      <point x="371" y="733" type="move" name="top"/>
    </contour>
    <contour>
      <point x="-27" y="78" type="curve"/>
      <point x="-10" y="7"/>
      <point x="50" y="-13"/>
      <point x="127" y="5" type="curve"/>
      <point x="185" y="162"/>
      <point x="249" y="357"/>
      <point x="328" y="544" type="curve"/>
      <point x="336" y="396"/>
      <point x="327" y="98"/>
      <point x="335" y="68" type="curve" smooth="yes"/>
      <point x="344" y="34"/>
      <point x="451" y="-8"/>
      <point x="490" y="1" type="curve" smooth="yes"/>
      <point x="520" y="10"/>
      <point x="490" y="222"/>
      <point x="481" y="327" type="curve" smooth="yes"/>
      <point x="471" y="450"/>
      <point x="450" y="586"/>
      <point x="443" y="616" type="curve" smooth="yes"/>
      <point x="434" y="650"/>
      <point x="327" y="700"/>
      <point x="288" y="700" type="curve" smooth="yes"/>
      <point x="248" y="700"/>
      <point x="59" y="270"/>
    </contour>
    <contour>
      <point x="409" y="340" type="line"/>
      <point x="331" y="328"/>
      <point x="225" y="318"/>
      <point x="158" y="316" type="curve"/>
      <point x="113" y="274"/>
      <point x="123" y="209"/>
      <point x="167" y="177" type="curve"/>
      <point x="211" y="179"/>
      <point x="315" y="191"/>
      <point x="382" y="201" type="curve"/>
    </contour>
    <contour>
      <point x="321" y="955" type="curve"/>
      <point x="360" y="961"/>
      <point x="400" y="958"/>
      <point x="428" y="942" type="curve"/>
      <point x="415" y="871"/>
      <point x="379" y="824"/>
      <point x="323" y="804" type="curve"/>
      <point x="316" y="849"/>
      <point x="327" y="899"/>
      <point x="354" y="935" type="curve"/>
      <point x="354" y="978"/>
      <point x="300" y="1000"/>
      <point x="255" y="974" type="curve"/>
      <point x="230" y="931"/>
      <point x="217" y="884"/>
      <point x="217" y="834" type="curve" smooth="yes"/>
      <point x="217" y="792"/>
      <point x="288" y="733"/>
      <point x="340" y="733" type="curve" smooth="yes"/>
      <point x="450" y="733"/>
      <point x="522" y="850"/>
      <point x="522" y="927" type="curve" smooth="yes"/>
      <point x="522" y="981"/>
      <point x="453" y="1044"/>
      <point x="359" y="1053" type="curve"/>
      <point x="301" y="1038"/>
      <point x="283" y="993"/>
    </contour>
  </outline>
</glyph>
<glyph name="Edieresis" format="1">
  <advance width="553"/>
  <unicode hex="00CB"/>
  <outline>
    <contour>
      <point x="441" y="0" type="move" name="ogonek"/>
    </contour>
    <contour>
      <point x="351" y="733" type="move" name="top"/>
    </contour>
    <contour>
      <point x="99" y="679" type="curve"/>
      <point x="50" y="630"/>
      <point x="64" y="559"/>
      <point x="110" y="536" type="curve"/>
      <point x="152" y="539" type="line"/>
      <point x="143" y="484"/>
      <point x="133" y="438"/>
      <point x="120" y="371" type="curve" smooth="yes"/>
      <point x="99" y="260"/>
      <point x="64" y="126"/>
      <point x="64" y="101" type="curve" smooth="yes"/>
      <point x="64" y="66"/>
      <point x="149" y="0"/>
      <point x="185" y="0" type="curve" smooth="yes"/>
      <point x="261" y="0"/>
      <point x="377" y="6"/>
      <point x="467" y="24" type="curve"/>
      <point x="518" y="74"/>
      <point x="504" y="155"/>
      <point x="439" y="183" type="curve"/>
      <point x="364" y="157"/>
      <point x="303" y="145"/>
      <point x="224" y="137" type="curve"/>
      <point x="232" y="177"/>
      <point x="242" y="223"/>
      <point x="252" y="275" type="curve"/>
      <point x="312" y="280"/>
      <point x="398" y="285"/>
      <point x="453" y="289" type="curve"/>
      <point x="496" y="321"/>
      <point x="497" y="402"/>
      <point x="444" y="432" type="curve"/>
      <point x="397" y="421"/>
      <point x="339" y="413"/>
      <point x="275" y="408" type="curve"/>
      <point x="286" y="463"/>
      <point x="295" y="501"/>
      <point x="307" y="544" type="curve"/>
      <point x="373" y="550"/>
      <point x="463" y="553"/>
      <point x="522" y="554" type="curve"/>
      <point x="560" y="590"/>
      <point x="564" y="671"/>
      <point x="513" y="700" type="curve"/>
      <point x="401" y="684"/>
      <point x="230" y="681"/>
    </contour>
    <contour>
      <point x="315" y="859" type="curve" smooth="yes"/>
      <point x="301" y="901"/>
      <point x="209" y="924"/>
      <point x="173" y="908" type="curve" smooth="yes"/>
      <point x="145" y="893"/>
      <point x="126" y="853"/>
      <point x="126" y="819" type="curve" smooth="yes"/>
      <point x="126" y="786"/>
      <point x="193" y="733"/>
      <point x="231" y="733" type="curve" smooth="yes"/>
      <point x="276" y="733"/>
      <point x="328" y="819"/>
    </contour>
    <contour>
      <point x="555" y="859" type="curve" smooth="yes"/>
      <point x="541" y="901"/>
      <point x="449" y="924"/>
      <point x="413" y="908" type="curve" smooth="yes"/>
      <point x="385" y="893"/>
      <point x="366" y="853"/>
      <point x="366" y="819" type="curve" smooth="yes"/>
      <point x="366" y="786"/>
      <point x="433" y="733"/>
      <point x="471" y="733" type="curve" smooth="yes"/>
      <point x="516" y="733"/>
      <point x="568" y="819"/>
    </contour>
  </outline>
</glyph>
<glyph name="Eth" format="1">
  <advance width="597"/>
  <unicode hex="00D0"/>
  <outline>
    <contour>
      <point x="129" y="710" type="curve"/>
      <point x="71" y="674"/>
      <point x="53" y="613"/>
      <point x="86" y="547" type="curve"/>
      <point x="127" y="545" type="line"/>
      <point x="104" y="418" type="line"/>
      <point x="14" y="420" type="line"/>
      <point x="-31" y="376"/>
      <point x="-20" y="311"/>
      <point x="22" y="290" type="curve"/>
      <point x="79" y="295" type="line"/>
      <point x="48" y="214"/>
      <point x="30" y="149"/>
      <point x="30" y="129" type="curve" smooth="yes"/>
      <point x="30" y="89"/>
      <point x="138" y="-5"/>
      <point x="190" y="-5" type="curve" smooth="yes"/>
      <point x="345" y="-5"/>
      <point x="577" y="216"/>
      <point x="576" y="367" type="curve" smooth="yes"/>
      <point x="574" y="537"/>
      <point x="374" y="689"/>
    </contour>
    <contour>
      <point x="218" y="304" type="line"/>
      <point x="326" y="301" type="line"/>
      <point x="364" y="337"/>
      <point x="370" y="407"/>
      <point x="319" y="436" type="curve"/>
      <point x="245" y="423" type="line"/>
      <point x="267" y="524" type="line"/>
      <point x="349" y="510"/>
      <point x="423" y="449"/>
      <point x="423" y="394" type="curve" smooth="yes"/>
      <point x="423" y="305"/>
      <point x="321" y="194"/>
      <point x="190" y="126" type="curve"/>
    </contour>
  </outline>
</glyph>
<glyph name="Ntilde" format="1">
  <advance width="619"/>
  <unicode hex="00D1"/>
  <outline>
    <contour>
      <point x="380" y="733" type="move" name="top"/>
    </contour>
    <contour>
      <point x="410" y="401" type="curve"/>
      <point x="398" y="270" type="line"/>
      <point x="359" y="392"/>
      <point x="310" y="537"/>
      <point x="283" y="610" type="curve" smooth="yes"/>
      <point x="269" y="649"/>
      <point x="186" y="700"/>
      <point x="151" y="700" type="curve" smooth="yes"/>
      <point x="120" y="700"/>
      <point x="90" y="490"/>
      <point x="74" y="401" type="curve" smooth="yes"/>
      <point x="50" y="260"/>
      <point x="17" y="127"/>
      <point x="18" y="94" type="curve" smooth="yes"/>
      <point x="18" y="62"/>
      <point x="104" y="0"/>
      <point x="151" y="0" type="curve" smooth="yes"/>
      <point x="186" y="0"/>
      <point x="184" y="135"/>
      <point x="213" y="303" type="curve"/>
      <point x="220" y="429" type="line"/>
      <point x="247" y="294"/>
      <point x="324" y="122"/>
      <point x="353" y="85" type="curve" smooth="yes"/>
      <point x="390" y="37"/>
      <point x="449" y="0"/>
      <point x="487" y="0" type="curve" smooth="yes"/>
      <point x="522" y="0"/>
      <point x="520" y="135"/>
      <point x="549" y="303" type="curve" smooth="yes"/>
      <point x="574" y="443"/>
      <point x="620" y="579"/>
      <point x="620" y="603" type="curve" smooth="yes"/>
      <point x="620" y="638"/>
      <point x="526" y="700"/>
      <point x="487" y="700" type="curve" smooth="yes"/>
      <point x="456" y="700"/>
      <point x="426" y="490"/>
    </contour>
    <contour>
      <point x="637" y="865" type="curve"/>
      <point x="637" y="909"/>
      <point x="593" y="936"/>
      <point x="546" y="929" type="curve"/>
      <point x="481" y="849" type="line"/>
      <point x="475" y="849" type="line"/>
      <point x="427" y="893"/>
      <point x="361" y="936"/>
      <point x="302" y="936" type="curve" smooth="yes"/>
      <point x="253" y="936"/>
      <point x="161" y="849"/>
      <point x="125" y="805" type="curve"/>
      <point x="125" y="756"/>
      <point x="167" y="727"/>
      <point x="215" y="733" type="curve"/>
      <point x="289" y="816" type="line"/>
      <point x="297" y="814" type="line"/>
      <point x="338" y="772"/>
      <point x="395" y="733"/>
      <point x="461" y="733" type="curve" smooth="yes"/>
      <point x="516" y="733"/>
      <point x="600" y="808"/>
    </contour>
  </outline>
</glyph>
<glyph name="Ocircumflex" format="1">
  <advance width="571"/>
  <unicode hex="00D4"/>
  <outline>
    <contour>
      <point x="366" y="733" type="move" name="top"/>
    </contour>
    <contour>
      <point x="112" y="593" type="curve"/>
      <point x="74" y="507"/>
      <point x="15" y="269"/>
      <point x="15" y="191" type="curve" smooth="yes"/>
      <point x="15" y="117"/>
      <point x="142" y="-5"/>
      <point x="224" y="-5" type="curve" smooth="yes"/>
      <point x="385" y="-5"/>
      <point x="564" y="267"/>
      <point x="564" y="463" type="curve" smooth="yes"/>
      <point x="564" y="590"/>
      <point x="430" y="710"/>
      <point x="281" y="710" type="curve"/>
      <point x="205" y="685"/>
      <point x="182" y="595"/>
      <point x="234" y="532" type="curve"/>
      <point x="316" y="535"/>
      <point x="390" y="513"/>
      <point x="431" y="485" type="curve"/>
      <point x="399" y="345"/>
      <point x="317" y="182"/>
      <point x="178" y="132" type="curve"/>
      <point x="176" y="261"/>
      <point x="205" y="386"/>
      <point x="267" y="502" type="curve"/>
      <point x="262" y="583"/>
      <point x="216" y="624"/>
    </contour>
    <contour>
      <point x="325" y="979" type="curve"/>
      <point x="116" y="812" type="line"/>
      <point x="116" y="751"/>
      <point x="181" y="718"/>
      <point x="253" y="733" type="curve"/>
      <point x="303" y="794"/>
      <point x="339" y="837"/>
      <point x="393" y="892" type="curve"/>
      <point x="478" y="736" type="line"/>
      <point x="538" y="724"/>
      <point x="575" y="741"/>
      <point x="590" y="785" type="curve"/>
      <point x="463" y="950" type="line"/>
      <point x="429" y="976"/>
      <point x="373" y="984"/>
    </contour>
  </outline>
</glyph>
<glyph name="Odieresis" format="1">
  <advance width="571"/>
  <unicode hex="00D6"/>
  <outline>
    <contour>
      <point x="366" y="733" type="move" name="top"/>
    </contour>
    <contour>
      <point x="112" y="593" type="curve"/>
      <point x="74" y="507"/>
      <point x="15" y="269"/>
      <point x="15" y="191" type="curve" smooth="yes"/>
      <point x="15" y="117"/>
      <point x="142" y="-5"/>
      <point x="224" y="-5" type="curve" smooth="yes"/>
      <point x="385" y="-5"/>
      <point x="564" y="267"/>
      <point x="564" y="463" type="curve" smooth="yes"/>
      <point x="564" y="590"/>
      <point x="430" y="710"/>
      <point x="281" y="710" type="curve"/>
      <point x="205" y="685"/>
      <point x="182" y="595"/>
      <point x="234" y="532" type="curve"/>
      <point x="316" y="535"/>
      <point x="390" y="513"/>
      <point x="431" y="485" type="curve"/>
      <point x="399" y="345"/>
      <point x="317" y="182"/>
      <point x="178" y="132" type="curve"/>
      <point x="176" y="261"/>
      <point x="205" y="386"/>
      <point x="267" y="502" type="curve"/>
      <point x="262" y="583"/>
      <point x="216" y="624"/>
    </contour>
    <contour>
      <point x="330" y="859" type="curve" smooth="yes"/>
      <point x="316" y="901"/>
      <point x="224" y="924"/>
      <point x="188" y="908" type="curve" smooth="yes"/>
      <point x="160" y="893"/>
      <point x="141" y="853"/>
      <point x="141" y="819" type="curve" smooth="yes"/>
      <point x="141" y="786"/>
      <point x="208" y="733"/>
      <point x="246" y="733" type="curve" smooth="yes"/>
      <point x="291" y="733"/>
      <point x="343" y="819"/>
    </contour>
    <contour>
      <point x="570" y="859" type="curve" smooth="yes"/>
      <point x="556" y="901"/>
      <point x="464" y="924"/>
      <point x="428" y="908" type="curve" smooth="yes"/>
      <point x="400" y="893"/>
      <point x="381" y="853"/>
      <point x="381" y="819" type="curve" smooth="yes"/>
      <point x="381" y="786"/>
      <point x="448" y="733"/>
      <point x="486" y="733" type="curve" smooth="yes"/>
      <point x="531" y="733"/>
      <point x="583" y="819"/>
    </contour>
  </outline>
</glyph>
<glyph name="Ugrave" format="1">
  <advance width="587"/>
  <unicode hex="00D9"/>
  <outline>
    <contour>
      <point x="361" y="0" type="move" name="ogonek"/>
    </contour>
    <contour>
      <point x="351" y="733" type="move" name="top"/>
    </contour>
    <contour>
      <point x="386" y="645" type="curve"/>
      <point x="397" y="604"/>
      <point x="402" y="561"/>
      <point x="402" y="517" type="curve" smooth="yes"/>
      <point x="402" y="330"/>
      <point x="313" y="138"/>
      <point x="225" y="138" type="curve" smooth="yes"/>
      <point x="154" y="138"/>
      <point x="229" y="484"/>
      <point x="280" y="601" type="curve"/>
      <point x="262" y="674"/>
      <point x="183" y="699"/>
      <point x="107" y="663" type="curve"/>
      <point x="59" y="499"/>
      <point x="26" y="251"/>
      <point x="26" y="169" type="curve" smooth="yes"/>
      <point x="26" y="103"/>
      <point x="164" y="-5"/>
      <point x="247" y="-5" type="curve" smooth="yes"/>
      <point x="407" y="-5"/>
      <point x="577" y="223"/>
      <point x="577" y="532" type="curve" smooth="yes"/>
      <point x="577" y="577"/>
      <point x="573" y="624"/>
      <point x="565" y="673" type="curve"/>
      <point x="502" y="721"/>
      <point x="437" y="700"/>
    </contour>
    <contour>
      <point x="377" y="846" type="line"/>
      <point x="373" y="885"/>
      <point x="372" y="924"/>
      <point x="369" y="965" type="curve"/>
      <point x="298" y="1004"/>
      <point x="216" y="982"/>
      <point x="192" y="902" type="curve"/>
      <point x="216" y="862"/>
      <point x="270" y="783"/>
      <point x="313" y="734" type="curve"/>
      <point x="363" y="723"/>
      <point x="399" y="741"/>
      <point x="408" y="777" type="curve"/>
    </contour>
  </outline>
</glyph>
<glyph name="Yacute" format="1">
  <advance width="573"/>
  <unicode hex="00DD"/>
  <outline>
    <contour>
      <point x="342" y="733" type="move" name="top"/>
    </contour>
    <contour>
      <point x="441" y="689" type="curve"/>
      <point x="401" y="600"/>
      <point x="346" y="493"/>
      <point x="281" y="382" type="curve"/>
      <point x="240" y="535"/>
      <point x="233" y="678"/>
      <point x="191" y="678" type="curve" smooth="yes"/>
      <point x="140" y="678"/>
      <point x="58" y="617"/>
      <point x="58" y="582" type="curve" smooth="yes"/>
      <point x="58" y="530"/>
      <point x="130" y="408"/>
      <point x="187" y="284" type="curve"/>
      <point x="163" y="188"/>
      <point x="146" y="124"/>
      <point x="147" y="94" type="curve" smooth="yes"/>
      <point x="147" y="62"/>
      <point x="233" y="0"/>
      <point x="280" y="0" type="curve" smooth="yes"/>
      <point x="312" y="0"/>
      <point x="312" y="96"/>
      <point x="330" y="231" type="curve"/>
      <point x="444" y="365"/>
      <point x="542" y="496"/>
      <point x="611" y="583" type="curve"/>
      <point x="607" y="668"/>
      <point x="552" y="719"/>
    </contour>
    <contour>
      <point x="317" y="856" type="curve"/>
      <point x="302" y="831"/>
      <point x="290" y="808"/>
      <point x="268" y="780" type="curve"/>
      <point x="276" y="741"/>
      <point x="311" y="725"/>
      <point x="353" y="731" type="curve"/>
      <point x="410" y="786"/>
      <point x="460" y="844"/>
      <point x="501" y="901" type="curve"/>
      <point x="500" y="972"/>
      <point x="410" y="1005"/>
      <point x="329" y="965" type="curve"/>
      <point x="327" y="933"/>
      <point x="323" y="893"/>
    </contour>
  </outline>
</glyph>
<glyph name="Thorn" format="1">
  <advance width="551"/>
  <unicode hex="00DE"/>
  <outline>
    <contour>
      <point x="284" y="603" type="curve" smooth="yes"/>
      <point x="284" y="638"/>
      <point x="190" y="700"/>
      <point x="151" y="700" type="curve" smooth="yes"/>
      <point x="120" y="700"/>
      <point x="90" y="490"/>
      <point x="74" y="401" type="curve" smooth="yes"/>
      <point x="50" y="260"/>
      <point x="17" y="127"/>
      <point x="18" y="94" type="curve" smooth="yes"/>
      <point x="18" y="62"/>
      <point x="104" y="0"/>
      <point x="151" y="0" type="curve" smooth="yes"/>
      <point x="173" y="0"/>
      <point x="180" y="52"/>
      <point x="190" y="131" type="curve"/>
      <point x="412" y="126"/>
      <point x="533" y="250"/>
      <point x="533" y="365" type="curve" smooth="yes"/>
      <point x="533" y="459"/>
      <point x="450" y="547"/>
      <point x="272" y="549" type="curve"/>
      <point x="278" y="572"/>
      <point x="284" y="596"/>
    </contour>
    <contour>
      <point x="238" y="418" type="curve"/>
      <point x="252" y="420"/>
      <point x="266" y="421"/>
      <point x="278" y="421" type="curve" smooth="yes"/>
      <point x="347" y="421"/>
      <point x="382" y="390"/>
      <point x="382" y="355" type="curve" smooth="yes"/>
      <point x="382" y="309"/>
      <point x="324" y="257"/>
      <point x="205" y="254" type="curve"/>
      <point x="213" y="309"/>
      <point x="224" y="363"/>
    </contour>
  </outline>
</glyph>
<glyph name="igrave" format="1">
  <advance width="385"/>
  <unicode hex="00EC"/>
  <outline>
    <contour>
      <point x="169" y="593" type="move" name="top"/>
    </contour>
    <contour>
      <point x="353" y="109" type="curve" smooth="yes"/>
      <point x="353" y="148"/>
      <point x="330" y="190"/>
      <point x="266" y="211" type="curve"/>
      <point x="231" y="184"/>
      <point x="209" y="167"/>
      <point x="174" y="151" type="curve"/>
      <point x="217" y="266"/>
      <point x="254" y="390"/>
      <point x="254" y="452" type="curve" smooth="yes"/>
      <point x="254" y="487"/>
      <point x="185" y="564"/>
      <point x="137" y="564" type="curve" smooth="yes"/>
      <point x="98" y="564"/>
      <point x="26" y="491"/>
      <point x="26" y="447" type="curve" smooth="yes"/>
      <point x="26" y="417"/>
      <point x="107" y="383"/>
      <point x="107" y="358" type="curve" smooth="yes"/>
      <point x="107" y="322"/>
      <point x="15" y="148"/>
      <point x="15" y="98" type="curve" smooth="yes"/>
      <point x="15" y="66"/>
      <point x="98" y="0"/>
      <point x="153" y="0" type="curve" smooth="yes"/>
      <point x="227" y="0"/>
      <point x="353" y="55"/>
    </contour>
    <contour>
      <point x="195" y="706" type="line"/>
      <point x="191" y="745"/>
      <point x="190" y="784"/>
      <point x="187" y="825" type="curve"/>
      <point x="116" y="864"/>
      <point x="34" y="842"/>
      <point x="10" y="762" type="curve"/>
      <point x="34" y="722"/>
      <point x="88" y="643"/>
      <point x="131" y="594" type="curve"/>
      <point x="181" y="583"/>
      <point x="217" y="601"/>
      <point x="226" y="637" type="curve"/>
    </contour>
  </outline>
</glyph>
<glyph name="eth" format="1">
  <advance width="542"/>
  <unicode hex="00F0"/>
  <outline>
    <contour>
      <point x="400" y="708" type="line"/>
      <point x="371" y="742"/>
      <point x="325" y="778"/>
      <point x="280" y="778" type="curve" smooth="yes"/>
      <point x="229" y="778"/>
      <point x="171" y="748"/>
      <point x="171" y="713" type="curve" smooth="yes"/>
      <point x="171" y="685"/>
      <point x="230" y="682"/>
      <point x="256" y="664" type="curve"/>
      <point x="158" y="645" type="line"/>
      <point x="129" y="606"/>
      <point x="146" y="549"/>
      <point x="198" y="538" type="curve"/>
      <point x="337" y="586" type="line"/>
      <point x="361" y="551"/>
      <point x="376" y="503"/>
      <point x="380" y="456" type="curve"/>
      <point x="348" y="485"/>
      <point x="300" y="514"/>
      <point x="247" y="514" type="curve" smooth="yes"/>
      <point x="117" y="514"/>
      <point x="11" y="337"/>
      <point x="11" y="182" type="curve" smooth="yes"/>
      <point x="11" y="112"/>
      <point x="99" y="0"/>
      <point x="169" y="0" type="curve" smooth="yes"/>
      <point x="365" y="0"/>
      <point x="510" y="217"/>
      <point x="510" y="410" type="curve" smooth="yes"/>
      <point x="510" y="472"/>
      <point x="496" y="548"/>
      <point x="463" y="609" type="curve"/>
      <point x="535" y="627" type="line"/>
      <point x="558" y="667"/>
      <point x="545" y="729"/>
      <point x="484" y="740" type="curve"/>
    </contour>
    <contour>
      <point x="305" y="387" type="curve" smooth="yes"/>
      <point x="323" y="387"/>
      <point x="343" y="382"/>
      <point x="365" y="371" type="curve"/>
      <point x="359" y="283"/>
      <point x="294" y="168"/>
      <point x="174" y="139" type="curve"/>
      <point x="147" y="252"/>
      <point x="204" y="387"/>
    </contour>
  </outline>
</glyph>
<glyph name="ograve" format="1">
  <advance width="511"/>
  <unicode hex="00F2"/>
  <outline>
    <contour>
      <point x="311" y="593" type="move" name="top"/>
    </contour>
    <contour>
      <point x="178" y="400" type="curve"/>
      <point x="243" y="410"/>
      <point x="314" y="404"/>
      <point x="357" y="372" type="curve"/>
      <point x="339" y="255"/>
      <point x="284" y="154"/>
      <point x="167" y="114" type="curve"/>
      <point x="154" y="197"/>
      <point x="172" y="288"/>
      <point x="217" y="358" type="curve"/>
      <point x="218" y="428"/>
      <point x="146" y="468"/>
      <point x="73" y="428" type="curve"/>
      <point x="30" y="343"/>
      <point x="12" y="254"/>
      <point x="12" y="177" type="curve" smooth="yes"/>
      <point x="12" y="109"/>
      <point x="119" y="0"/>
      <point x="203" y="0" type="curve" smooth="yes"/>
      <point x="376" y="0"/>
      <point x="490" y="206"/>
      <point x="490" y="344" type="curve" smooth="yes"/>
      <point x="490" y="440"/>
      <point x="383" y="548"/>
      <point x="236" y="565" type="curve"/>
      <point x="154" y="541"/>
      <point x="123" y="465"/>
    </contour>
    <contour>
      <point x="337" y="706" type="line"/>
      <point x="333" y="745"/>
      <point x="332" y="784"/>
      <point x="329" y="825" type="curve"/>
      <point x="258" y="864"/>
      <point x="176" y="842"/>
      <point x="152" y="762" type="curve"/>
      <point x="176" y="722"/>
      <point x="230" y="643"/>
      <point x="273" y="594" type="curve"/>
      <point x="323" y="583"/>
      <point x="359" y="601"/>
      <point x="368" y="637" type="curve"/>
    </contour>
  </outline>
</glyph>
<glyph name="otilde" format="1">
  <advance width="511"/>
  <unicode hex="00F5"/>
  <outline>
    <contour>
      <point x="311" y="593" type="move" name="top"/>
    </contour>
    <contour>
      <point x="178" y="400" type="curve"/>
      <point x="243" y="410"/>
      <point x="314" y="404"/>
      <point x="357" y="372" type="curve"/>
      <point x="339" y="255"/>
      <point x="284" y="154"/>
      <point x="167" y="114" type="curve"/>
      <point x="154" y="197"/>
      <point x="172" y="288"/>
      <point x="217" y="358" type="curve"/>
      <point x="218" y="428"/>
      <point x="146" y="468"/>
      <point x="73" y="428" type="curve"/>
      <point x="30" y="343"/>
      <point x="12" y="254"/>
      <point x="12" y="177" type="curve" smooth="yes"/>
      <point x="12" y="109"/>
      <point x="119" y="0"/>
      <point x="203" y="0" type="curve" smooth="yes"/>
      <point x="376" y="0"/>
      <point x="490" y="206"/>
      <point x="490" y="344" type="curve" smooth="yes"/>
      <point x="490" y="440"/>
      <point x="383" y="548"/>
      <point x="236" y="565" type="curve"/>
      <point x="154" y="541"/>
      <point x="123" y="465"/>
    </contour>
    <contour>
      <point x="568" y="725" type="curve"/>
      <point x="568" y="769"/>
      <point x="524" y="796"/>
      <point x="477" y="789" type="curve"/>
      <point x="412" y="709" type="line"/>
      <point x="406" y="709" type="line"/>
      <point x="358" y="753"/>
      <point x="292" y="796"/>
      <point x="233" y="796" type="curve" smooth="yes"/>
      <point x="184" y="796"/>
      <point x="92" y="709"/>
      <point x="56" y="665" type="curve"/>
      <point x="56" y="616"/>
      <point x="98" y="587"/>
      <point x="146" y="593" type="curve"/>
      <point x="220" y="676" type="line"/>
      <point x="228" y="674" type="line"/>
      <point x="269" y="632"/>
      <point x="326" y="593"/>
      <point x="392" y="593" type="curve" smooth="yes"/>
      <point x="447" y="593"/>
      <point x="531" y="668"/>
    </contour>
  </outline>
</glyph>
<glyph name="odieresis" format="1">
  <advance width="511"/>
  <unicode hex="00F6"/>
  <outline>
    <contour>
      <point x="311" y="593" type="move" name="top"/>
    </contour>
    <contour>
      <point x="178" y="400" type="curve"/>
      <point x="243" y="410"/>
      <point x="314" y="404"/>
      <point x="357" y="372" type="curve"/>
      <point x="339" y="255"/>
      <point x="284" y="154"/>
      <point x="167" y="114" type="curve"/>
      <point x="154" y="197"/>
      <point x="172" y="288"/>
      <point x="217" y="358" type="curve"/>
      <point x="218" y="428"/>
      <point x="146" y="468"/>
      <point x="73" y="428" type="curve"/>
      <point x="30" y="343"/>
      <point x="12" y="254"/>
      <point x="12" y="177" type="curve" smooth="yes"/>
      <point x="12" y="109"/>
      <point x="119" y="0"/>
      <point x="203" y="0" type="curve" smooth="yes"/>
      <point x="376" y="0"/>
      <point x="490" y="206"/>
      <point x="490" y="344" type="curve" smooth="yes"/>
      <point x="490" y="440"/>
      <point x="383" y="548"/>
      <point x="236" y="565" type="curve"/>
      <point x="154" y="541"/>
      <point x="123" y="465"/>
    </contour>
    <contour>
      <point x="275" y="719" type="curve" smooth="yes"/>
      <point x="261" y="761"/>
      <point x="169" y="784"/>
      <point x="133" y="768" type="curve" smooth="yes"/>
      <point x="105" y="753"/>
      <point x="86" y="713"/>
      <point x="86" y="679" type="curve" smooth="yes"/>
      <point x="86" y="646"/>
      <point x="153" y="593"/>
      <point x="191" y="593" type="curve" smooth="yes"/>
      <point x="236" y="593"/>
      <point x="288" y="679"/>
    </contour>
    <contour>
      <point x="515" y="719" type="curve" smooth="yes"/>
      <point x="501" y="761"/>
      <point x="409" y="784"/>
      <point x="373" y="768" type="curve" smooth="yes"/>
      <point x="345" y="753"/>
      <point x="326" y="713"/>
      <point x="326" y="679" type="curve" smooth="yes"/>
      <point x="326" y="646"/>
      <point x="393" y="593"/>
      <point x="431" y="593" type="curve" smooth="yes"/>
      <point x="476" y="593"/>
      <point x="528" y="679"/>
    </contour>
  </outline>
</glyph>
<glyph name="divide" format="1">
  <advance width="565"/>
  <unicode hex="00F7"/>
  <outline>
    <contour>
      <point x="414" y="518" type="curve" smooth="yes"/>
      <point x="414" y="547"/>
      <point x="381" y="608"/>
      <point x="345" y="608" type="curve" smooth="yes"/>
      <point x="296" y="608"/>
      <point x="213" y="567"/>
      <point x="213" y="536" type="curve" smooth="yes"/>
      <point x="213" y="500"/>
      <point x="255" y="438"/>
      <point x="288" y="438" type="curve" smooth="yes"/>
      <point x="329" y="438"/>
      <point x="414" y="483"/>
    </contour>
    <contour>
      <point x="344" y="137" type="curve" smooth="yes"/>
      <point x="344" y="166"/>
      <point x="311" y="227"/>
      <point x="275" y="227" type="curve" smooth="yes"/>
      <point x="226" y="227"/>
      <point x="143" y="186"/>
      <point x="143" y="155" type="curve" smooth="yes"/>
      <point x="143" y="119"/>
      <point x="185" y="57"/>
      <point x="218" y="57" type="curve" smooth="yes"/>
      <point x="259" y="57"/>
      <point x="344" y="102"/>
    </contour>
    <contour>
      <point x="513" y="277" type="curve"/>
      <point x="551" y="313"/>
      <point x="555" y="388"/>
      <point x="504" y="417" type="curve"/>
      <point x="358" y="402"/>
      <point x="191" y="392"/>
      <point x="46" y="390" type="curve"/>
      <point x="-2" y="345"/>
      <point x="12" y="274"/>
      <point x="59" y="251" type="curve"/>
      <point x="202" y="259"/>
      <point x="378" y="270"/>
    </contour>
  </outline>
</glyph>
<glyph name="oslash" format="1">
  <advance width="575"/>
  <unicode hex="00F8"/>
  <outline>
    <contour>
      <point x="430" y="503" type="curve"/>
      <point x="388" y="537"/>
      <point x="336" y="558"/>
      <point x="278" y="565" type="curve"/>
      <point x="213" y="546"/>
      <point x="180" y="494"/>
      <point x="197" y="441" type="curve"/>
      <point x="173" y="447"/>
      <point x="144" y="444"/>
      <point x="115" y="428" type="curve"/>
      <point x="73" y="344"/>
      <point x="55" y="257"/>
      <point x="54" y="181" type="curve"/>
      <point x="22" y="155"/>
      <point x="-5" y="130"/>
      <point x="-5" y="116" type="curve" smooth="yes"/>
      <point x="-5" y="76"/>
      <point x="44" y="0"/>
      <point x="71" y="0" type="curve" smooth="yes"/>
      <point x="84" y="0"/>
      <point x="109" y="20"/>
      <point x="140" y="47" type="curve"/>
      <point x="173" y="21"/>
      <point x="211" y="0"/>
      <point x="245" y="0" type="curve" smooth="yes"/>
      <point x="418" y="0"/>
      <point x="532" y="206"/>
      <point x="532" y="344" type="curve" smooth="yes"/>
      <point x="532" y="355"/>
      <point x="530" y="370"/>
      <point x="527" y="381" type="curve"/>
      <point x="548" y="400"/>
      <point x="562" y="415"/>
      <point x="570" y="427" type="curve" smooth="yes"/>
      <point x="585" y="452"/>
      <point x="558" y="539"/>
      <point x="523" y="562" type="curve" smooth="yes"/>
      <point x="506" y="572"/>
      <point x="469" y="545"/>
    </contour>
    <contour>
      <point x="215" y="260" type="curve"/>
      <point x="229" y="302"/>
      <point x="242" y="332"/>
      <point x="259" y="358" type="curve"/>
      <point x="259" y="375"/>
      <point x="255" y="390"/>
      <point x="248" y="403" type="curve"/>
      <point x="286" y="406"/>
      <point x="325" y="404"/>
      <point x="365" y="393" type="curve"/>
      <point x="315" y="347"/>
      <point x="269" y="308"/>
    </contour>
    <contour>
      <point x="205" y="155" type="curve"/>
      <point x="265" y="202"/>
      <point x="327" y="258"/>
      <point x="420" y="345" type="curve"/>
      <point x="385" y="245"/>
      <point x="306" y="147"/>
      <point x="209" y="114" type="curve"/>
      <point x="206" y="130"/>
      <point x="205" y="140"/>
    </contour>
  </outline>
</glyph>
<glyph name="ugrave" format="1">
  <advance width="680"/>
  <unicode hex="00F9"/>
  <outline>
    <contour>
      <point x="591" y="0" type="move" name="ogonek"/>
    </contour>
    <contour>
      <point x="344" y="593" type="move" name="top"/>
    </contour>
    <contour>
      <point x="343" y="193" type="curve"/>
      <point x="368" y="179" type="line"/>
      <point x="350" y="145"/>
      <point x="329" y="110"/>
      <point x="329" y="91" type="curve" smooth="yes"/>
      <point x="329" y="68"/>
      <point x="409" y="0"/>
      <point x="453" y="0" type="curve" smooth="yes"/>
      <point x="518" y="0"/>
      <point x="648" y="57"/>
      <point x="648" y="109" type="curve" smooth="yes"/>
      <point x="648" y="153"/>
      <point x="621" y="190"/>
      <point x="561" y="211" type="curve"/>
      <point x="528" y="184"/>
      <point x="500" y="165"/>
      <point x="459" y="147" type="curve"/>
      <point x="490" y="238"/>
      <point x="549" y="396"/>
      <point x="550" y="437" type="curve" smooth="yes"/>
      <point x="550" y="464"/>
      <point x="473" y="537"/>
      <point x="417" y="537" type="curve" smooth="yes"/>
      <point x="392" y="537"/>
      <point x="373" y="469"/>
      <point x="370" y="384" type="curve"/>
      <point x="343" y="315"/>
      <point x="268" y="217"/>
      <point x="179" y="142" type="curve"/>
      <point x="220" y="249"/>
      <point x="254" y="377"/>
      <point x="254" y="464" type="curve" smooth="yes"/>
      <point x="254" y="490"/>
      <point x="181" y="564"/>
      <point x="137" y="564" type="curve" smooth="yes"/>
      <point x="98" y="564"/>
      <point x="26" y="491"/>
      <point x="26" y="447" type="curve" smooth="yes"/>
      <point x="26" y="417"/>
      <point x="107" y="383"/>
      <point x="107" y="358" type="curve" smooth="yes"/>
      <point x="107" y="322"/>
      <point x="30" y="156"/>
      <point x="30" y="106" type="curve" smooth="yes"/>
      <point x="30" y="75"/>
      <point x="103" y="0"/>
      <point x="159" y="0" type="curve" smooth="yes"/>
      <point x="231" y="0"/>
      <point x="280" y="77"/>
    </contour>
    <contour>
      <point x="370" y="706" type="line"/>
      <point x="366" y="745"/>
      <point x="365" y="784"/>
      <point x="362" y="825" type="curve"/>
      <point x="291" y="864"/>
      <point x="209" y="842"/>
      <point x="185" y="762" type="curve"/>
      <point x="209" y="722"/>
      <point x="263" y="643"/>
      <point x="306" y="594" type="curve"/>
      <point x="356" y="583"/>
      <point x="392" y="601"/>
      <point x="401" y="637" type="curve"/>
    </contour>
  </outline>
</glyph>
<glyph name="thorn" format="1">
  <advance width="559"/>
  <unicode hex="00FE"/>
  <outline>
    <contour>
      <point x="261" y="498" type="line"/>
      <point x="281" y="550"/>
      <point x="305" y="619"/>
      <point x="306" y="660" type="curve" smooth="yes"/>
      <point x="307" y="698"/>
      <point x="222" y="775"/>
      <point x="165" y="775" type="curve" smooth="yes"/>
      <point x="139" y="775"/>
      <point x="119" y="753"/>
      <point x="118" y="725" type="curve" smooth="yes"/>
      <point x="117" y="664"/>
      <point x="89" y="483"/>
      <point x="49" y="321" type="curve" smooth="yes"/>
      <point x="1" y="125"/>
      <point x="-77" y="-123"/>
      <point x="-77" y="-167" type="curve" smooth="yes"/>
      <point x="-77" y="-201"/>
      <point x="3" y="-265"/>
      <point x="57" y="-265" type="curve" smooth="yes"/>
      <point x="97" y="-265"/>
      <point x="88" y="-114"/>
      <point x="123" y="29" type="curve"/>
      <point x="149" y="11"/>
      <point x="178" y="0"/>
      <point x="208" y="0" type="curve" smooth="yes"/>
      <point x="388" y="0"/>
      <point x="534" y="227"/>
      <point x="534" y="375" type="curve" smooth="yes"/>
      <point x="534" y="464"/>
      <point x="450" y="528"/>
      <point x="340" y="530" type="curve"/>
    </contour>
    <contour>
      <point x="246" y="416" type="curve" smooth="yes"/>
      <point x="274" y="432"/>
      <point x="368" y="394"/>
      <point x="368" y="368" type="curve" smooth="yes"/>
      <point x="368" y="285"/>
      <point x="284" y="126"/>
      <point x="208" y="126" type="curve" smooth="yes"/>
      <point x="150" y="126"/>
      <point x="197" y="389"/>
    </contour>
  </outline>
</glyph>
<glyph name="Abreve" format="1">
  <advance width="556"/>
  <unicode hex="0102"/>
  <outline>
    <contour>
      <point x="491" y="0" type="move" name="ogonek"/>
    </contour>
    <contour>
      <point x="371" y="733" type="move" name="top"/>
    </contour>
    <contour>
      <point x="-27" y="78" type="curve"/>
      <point x="-10" y="7"/>
      <point x="50" y="-13"/>
      <point x="127" y="5" type="curve"/>
      <point x="185" y="162"/>
      <point x="249" y="357"/>
      <point x="328" y="544" type="curve"/>
      <point x="336" y="396"/>
      <point x="327" y="98"/>
      <point x="335" y="68" type="curve" smooth="yes"/>
      <point x="344" y="34"/>
      <point x="451" y="-8"/>
      <point x="490" y="1" type="curve" smooth="yes"/>
      <point x="520" y="10"/>
      <point x="490" y="222"/>
      <point x="481" y="327" type="curve" smooth="yes"/>
      <point x="471" y="450"/>
      <point x="450" y="586"/>
      <point x="443" y="616" type="curve" smooth="yes"/>
      <point x="434" y="650"/>
      <point x="327" y="700"/>
      <point x="288" y="700" type="curve" smooth="yes"/>
      <point x="248" y="700"/>
      <point x="59" y="270"/>
    </contour>
    <contour>
      <point x="409" y="340" type="line"/>
      <point x="331" y="328"/>
      <point x="225" y="318"/>
      <point x="158" y="316" type="curve"/>
      <point x="113" y="274"/>
      <point x="123" y="209"/>
      <point x="167" y="177" type="curve"/>
      <point x="211" y="179"/>
      <point x="315" y="191"/>
      <point x="382" y="201" type="curve"/>
    </contour>
    <contour>
      <point x="570" y="852" type="curve"/>
      <point x="574" y="926"/>
      <point x="512" y="953"/>
      <point x="447" y="929" type="curve"/>
      <point x="422" y="875"/>
      <point x="397" y="842"/>
      <point x="342" y="816" type="curve"/>
      <point x="309" y="839"/>
      <point x="284" y="875"/>
      <point x="268" y="920" type="curve"/>
      <point x="239" y="937"/>
      <point x="204" y="918"/>
      <point x="194" y="894" type="curve"/>
      <point x="211" y="816"/>
      <point x="274" y="733"/>
      <point x="353" y="733" type="curve" smooth="yes"/>
      <point x="446" y="733"/>
      <point x="531" y="795"/>
    </contour>
  </outline>
</glyph>
<glyph name="abreve" format="1">
  <advance width="700"/>
  <unicode hex="0103"/>
  <outline>
    <contour>
      <point x="586" y="0" type="move" name="ogonek"/>
    </contour>
    <contour>
      <point x="384" y="593" type="move" name="top"/>
    </contour>
    <contour>
      <point x="343" y="437" type="curve" smooth="yes"/>
      <point x="359" y="437"/>
      <point x="376" y="433"/>
      <point x="394" y="425" type="curve"/>
      <point x="363" y="301"/>
      <point x="273" y="202"/>
      <point x="171" y="139" type="curve"/>
      <point x="184" y="289"/>
      <point x="244" y="437"/>
    </contour>
    <contour>
      <point x="574" y="437" type="curve" smooth="yes"/>
      <point x="574" y="464"/>
      <point x="497" y="537"/>
      <point x="441" y="537" type="curve" smooth="yes"/>
      <point x="425" y="537"/>
      <point x="412" y="507"/>
      <point x="406" y="482" type="curve"/>
      <point x="395" y="518"/>
      <point x="346" y="564"/>
      <point x="305" y="564" type="curve" smooth="yes"/>
      <point x="128" y="564"/>
      <point x="14" y="340"/>
      <point x="14" y="167" type="curve" smooth="yes"/>
      <point x="14" y="104"/>
      <point x="99" y="0"/>
      <point x="166" y="0" type="curve" smooth="yes"/>
      <point x="235" y="0"/>
      <point x="306" y="100"/>
      <point x="363" y="193" type="curve"/>
      <point x="388" y="179" type="line"/>
      <point x="369" y="145"/>
      <point x="348" y="110"/>
      <point x="348" y="93" type="curve" smooth="yes"/>
      <point x="347" y="66"/>
      <point x="425" y="0"/>
      <point x="473" y="0" type="curve" smooth="yes"/>
      <point x="538" y="0"/>
      <point x="668" y="57"/>
      <point x="668" y="109" type="curve" smooth="yes"/>
      <point x="668" y="153"/>
      <point x="641" y="190"/>
      <point x="581" y="211" type="curve"/>
      <point x="548" y="184"/>
      <point x="517" y="166"/>
      <point x="478" y="147" type="curve"/>
      <point x="509" y="238"/>
      <point x="573" y="396"/>
    </contour>
    <contour>
      <point x="583" y="712" type="curve"/>
      <point x="587" y="786"/>
      <point x="525" y="813"/>
      <point x="460" y="789" type="curve"/>
      <point x="435" y="735"/>
      <point x="410" y="702"/>
      <point x="355" y="676" type="curve"/>
      <point x="322" y="699"/>
      <point x="297" y="735"/>
      <point x="281" y="780" type="curve"/>
      <point x="252" y="797"/>
      <point x="217" y="778"/>
      <point x="207" y="754" type="curve"/>
      <point x="224" y="676"/>
      <point x="287" y="593"/>
      <point x="366" y="593" type="curve" smooth="yes"/>
      <point x="459" y="593"/>
      <point x="544" y="655"/>
    </contour>
  </outline>
</glyph>
<glyph name="Ccaron" format="1">
  <advance width="547"/>
  <unicode hex="010C"/>
  <outline>
    <contour>
      <point x="348" y="733" type="move" name="top"/>
    </contour>
    <contour>
      <point x="316" y="0" type="move" name="bottom"/>
    </contour>
    <contour>
      <point x="401" y="249" type="curve"/>
      <point x="350" y="205"/>
      <point x="276" y="163"/>
      <point x="182" y="146" type="curve"/>
      <point x="186" y="317"/>
      <point x="267" y="575"/>
      <point x="338" y="575" type="curve" smooth="yes"/>
      <point x="370" y="575"/>
      <point x="369" y="524"/>
      <point x="366" y="451" type="curve"/>
      <point x="443" y="423"/>
      <point x="532" y="445"/>
      <point x="531" y="523" type="curve" smooth="yes"/>
      <point x="531" y="599"/>
      <point x="448" y="710"/>
      <point x="335" y="710" type="curve" smooth="yes"/>
      <point x="118" y="710"/>
      <point x="20" y="378"/>
      <point x="19" y="185" type="curve" smooth="yes"/>
      <point x="19" y="112"/>
      <point x="147" y="-5"/>
      <point x="219" y="-5" type="curve" smooth="yes"/>
      <point x="316" y="-5"/>
      <point x="444" y="57"/>
      <point x="484" y="97" type="curve"/>
      <point x="513" y="156"/>
      <point x="484" y="229"/>
    </contour>
    <contour>
      <point x="440" y="753" type="curve"/>
      <point x="501" y="808"/>
      <point x="547" y="854"/>
      <point x="603" y="910" type="curve"/>
      <point x="591" y="980"/>
      <point x="490" y="971"/>
      <point x="440" y="957" type="curve"/>
      <point x="402" y="902"/>
      <point x="362" y="859"/>
      <point x="311" y="811" type="curve"/>
      <point x="277" y="859"/>
      <point x="259" y="902"/>
      <point x="221" y="965" type="curve"/>
      <point x="173" y="980"/>
      <point x="135" y="956"/>
      <point x="129" y="915" type="curve"/>
      <point x="169" y="857"/>
      <point x="202" y="803"/>
      <point x="243" y="757" type="curve"/>
      <point x="291" y="728"/>
      <point x="378" y="724"/>
    </contour>
  </outline>
</glyph>
<glyph name="Dcaron" format="1">
  <advance width="597"/>
  <unicode hex="010E"/>
  <outline>
    <contour>
      <point x="320" y="733" type="move" name="top"/>
    </contour>
    <contour>
      <point x="86" y="547" type="curve"/>
      <point x="127" y="545" type="line"/>
      <point x="116" y="487"/>
      <point x="94" y="428"/>
      <point x="83" y="370" type="curve" smooth="yes"/>
      <point x="60" y="255"/>
      <point x="30" y="155"/>
      <point x="30" y="129" type="curve" smooth="yes"/>
      <point x="30" y="89"/>
      <point x="138" y="-5"/>
      <point x="190" y="-5" type="curve" smooth="yes"/>
      <point x="345" y="-5"/>
      <point x="577" y="216"/>
      <point x="576" y="367" type="curve" smooth="yes"/>
      <point x="574" y="537"/>
      <point x="374" y="689"/>
      <point x="129" y="710" type="curve"/>
      <point x="71" y="674"/>
      <point x="53" y="613"/>
    </contour>
    <contour>
      <point x="270" y="517" type="curve"/>
      <point x="347" y="501"/>
      <point x="423" y="447"/>
      <point x="423" y="394" type="curve" smooth="yes"/>
      <point x="423" y="305"/>
      <point x="321" y="194"/>
      <point x="190" y="126" type="curve"/>
      <point x="215" y="259"/>
      <point x="243" y="380"/>
    </contour>
    <contour>
      <point x="412" y="753" type="curve"/>
      <point x="473" y="808"/>
      <point x="519" y="854"/>
      <point x="575" y="910" type="curve"/>
      <point x="563" y="980"/>
      <point x="462" y="971"/>
      <point x="412" y="957" type="curve"/>
      <point x="374" y="902"/>
      <point x="334" y="859"/>
      <point x="283" y="811" type="curve"/>
      <point x="249" y="859"/>
      <point x="231" y="902"/>
      <point x="193" y="965" type="curve"/>
      <point x="145" y="980"/>
      <point x="107" y="956"/>
      <point x="101" y="915" type="curve"/>
      <point x="141" y="857"/>
      <point x="174" y="803"/>
      <point x="215" y="757" type="curve"/>
      <point x="263" y="728"/>
      <point x="350" y="724"/>
    </contour>
  </outline>
</glyph>
<glyph name="dcaron" format="1">
  <advance width="802"/>
  <unicode hex="010F"/>
  <outline>
    <contour>
      <point x="876" y="797" type="curve"/>
      <point x="855" y="860"/>
      <point x="771" y="884"/>
      <point x="701" y="832" type="curve"/>
      <point x="712" y="711" type="line"/>
      <point x="660" y="623" type="line"/>
      <point x="669" y="592"/>
      <point x="696" y="579"/>
      <point x="732" y="581" type="curve"/>
      <point x="804" y="645"/>
      <point x="840" y="699"/>
    </contour>
    <contour>
      <point x="388" y="179" type="line"/>
      <point x="369" y="145"/>
      <point x="348" y="110"/>
      <point x="348" y="93" type="curve" smooth="yes"/>
      <point x="347" y="66"/>
      <point x="425" y="0"/>
      <point x="473" y="0" type="curve" smooth="yes"/>
      <point x="538" y="0"/>
      <point x="668" y="57"/>
      <point x="668" y="109" type="curve" smooth="yes"/>
      <point x="668" y="153"/>
      <point x="641" y="190"/>
      <point x="581" y="211" type="curve"/>
      <point x="548" y="184"/>
      <point x="517" y="166"/>
      <point x="478" y="147" type="curve"/>
      <point x="487" y="202"/>
      <point x="505" y="286"/>
      <point x="519" y="343" type="curve" smooth="yes"/>
      <point x="543" y="446"/>
      <point x="610" y="603"/>
      <point x="610" y="663" type="curve" smooth="yes"/>
      <point x="610" y="698"/>
      <point x="525" y="775"/>
      <point x="465" y="775" type="curve" smooth="yes"/>
      <point x="439" y="775"/>
      <point x="419" y="753"/>
      <point x="419" y="725" type="curve" smooth="yes"/>
      <point x="419" y="664"/>
      <point x="417" y="481"/>
      <point x="389" y="384" type="curve"/>
      <point x="333" y="271"/>
      <point x="245" y="194"/>
      <point x="171" y="139" type="curve"/>
      <point x="184" y="289"/>
      <point x="244" y="437"/>
      <point x="343" y="437" type="curve" smooth="yes"/>
      <point x="370" y="437"/>
      <point x="399" y="426"/>
      <point x="433" y="403" type="curve"/>
      <point x="464" y="437" type="line"/>
      <point x="429" y="502"/>
      <point x="359" y="564"/>
      <point x="293" y="564" type="curve" smooth="yes"/>
      <point x="144" y="564"/>
      <point x="14" y="354"/>
      <point x="14" y="167" type="curve" smooth="yes"/>
      <point x="14" y="104"/>
      <point x="106" y="0"/>
      <point x="172" y="0" type="curve" smooth="yes"/>
      <point x="235" y="0"/>
      <point x="306" y="100"/>
      <point x="363" y="193" type="curve"/>
    </contour>
  </outline>
</glyph>
<glyph name="dcroat" format="1">
  <advance width="700"/>
  <unicode hex="0111"/>
  <outline>
    <contour>
      <point x="589" y="694" type="line"/>
      <point x="556" y="740"/>
      <point x="506" y="775"/>
      <point x="465" y="775" type="curve" smooth="yes"/>
      <point x="439" y="775"/>
      <point x="419" y="753"/>
      <point x="419" y="725" type="curve" smooth="yes"/>
      <point x="419" y="692" type="line"/>
      <point x="311" y="699" type="line"/>
      <point x="269" y="660"/>
      <point x="272" y="602"/>
      <point x="307" y="574" type="curve"/>
      <point x="419" y="581" type="line"/>
      <point x="407" y="479" type="line"/>
      <point x="372" y="513"/>
      <point x="329" y="537"/>
      <point x="288" y="537" type="curve" smooth="yes"/>
      <point x="139" y="537"/>
      <point x="14" y="354"/>
      <point x="14" y="167" type="curve" smooth="yes"/>
      <point x="14" y="104"/>
      <point x="106" y="0"/>
      <point x="172" y="0" type="curve" smooth="yes"/>
      <point x="235" y="0"/>
      <point x="306" y="100"/>
      <point x="363" y="193" type="curve"/>
      <point x="388" y="179" type="line"/>
      <point x="369" y="145"/>
      <point x="348" y="110"/>
      <point x="348" y="93" type="curve"/>
      <point x="347" y="66"/>
      <point x="425" y="0"/>
      <point x="473" y="0" type="curve" smooth="yes"/>
      <point x="538" y="0"/>
      <point x="668" y="57"/>
      <point x="668" y="109" type="curve" smooth="yes"/>
      <point x="668" y="153"/>
      <point x="641" y="190"/>
      <point x="581" y="211" type="curve"/>
      <point x="548" y="184"/>
      <point x="517" y="166"/>
      <point x="478" y="147" type="curve"/>
      <point x="487" y="202"/>
      <point x="505" y="286"/>
      <point x="519" y="343" type="curve" smooth="yes"/>
      <point x="535" y="412"/>
      <point x="560" y="506"/>
      <point x="581" y="583" type="curve"/>
      <point x="658" y="578" type="line"/>
      <point x="695" y="617"/>
      <point x="699" y="671"/>
      <point x="664" y="704" type="curve"/>
    </contour>
    <contour>
      <point x="338" y="410" type="curve" smooth="yes"/>
      <point x="355" y="410"/>
      <point x="373" y="406"/>
      <point x="392" y="397" type="curve"/>
      <point x="389" y="384" type="line"/>
      <point x="333" y="271"/>
      <point x="245" y="194"/>
      <point x="171" y="139" type="curve"/>
      <point x="184" y="289"/>
      <point x="239" y="410"/>
    </contour>
  </outline>
</glyph>
<glyph name="gbreve" format="1">
  <advance width="547"/>
  <unicode hex="011F"/>
  <outline>
    <contour>
      <point x="375" y="593" type="move" name="top"/>
    </contour>
    <contour>
      <point x="574" y="712" type="curve"/>
      <point x="578" y="786"/>
      <point x="516" y="813"/>
      <point x="451" y="789" type="curve"/>
      <point x="426" y="735"/>
      <point x="401" y="702"/>
      <point x="346" y="676" type="curve"/>
      <point x="313" y="699"/>
      <point x="288" y="735"/>
      <point x="272" y="780" type="curve"/>
      <point x="243" y="797"/>
      <point x="208" y="778"/>
      <point x="198" y="754" type="curve"/>
      <point x="215" y="676"/>
      <point x="278" y="593"/>
      <point x="357" y="593" type="curve" smooth="yes"/>
      <point x="450" y="593"/>
      <point x="535" y="655"/>
    </contour>
    <contour>
      <point x="363" y="404" type="curve"/>
      <point x="356" y="309"/>
      <point x="282" y="205"/>
      <point x="152" y="151" type="curve"/>
      <point x="166" y="271"/>
      <point x="223" y="437"/>
      <point x="297" y="437" type="curve" smooth="yes"/>
      <point x="321" y="437"/>
      <point x="348" y="420"/>
    </contour>
    <contour>
      <point x="231" y="-251" type="curve"/>
      <point x="199" y="-240"/>
      <point x="170" y="-222"/>
      <point x="169" y="-195" type="curve" smooth="yes"/>
      <point x="167" y="-151"/>
      <point x="246" y="-76"/>
      <point x="339" y="-3" type="curve"/>
      <point x="305" y="-117"/>
      <point x="273" y="-202"/>
    </contour>
    <contour>
      <point x="373" y="133" type="line"/>
      <point x="220" y="22"/>
      <point x="17" y="-112"/>
      <point x="20" y="-200" type="curve" smooth="yes"/>
      <point x="22" y="-263"/>
      <point x="118" y="-358"/>
      <point x="208" y="-357" type="curve" smooth="yes"/>
      <point x="270" y="-357"/>
      <point x="343" y="-315"/>
      <point x="373" y="-267" type="curve" smooth="yes"/>
      <point x="404" y="-214"/>
      <point x="516" y="361"/>
      <point x="516" y="438" type="curve" smooth="yes"/>
      <point x="516" y="463"/>
      <point x="420" y="537"/>
      <point x="389" y="537" type="curve" smooth="yes"/>
      <point x="377" y="537"/>
      <point x="362" y="518"/>
      <point x="356" y="485" type="curve"/>
      <point x="339" y="520"/>
      <point x="301" y="564"/>
      <point x="262" y="564" type="curve" smooth="yes"/>
      <point x="116" y="564"/>
      <point x="11" y="308"/>
      <point x="11" y="148" type="curve" smooth="yes"/>
      <point x="11" y="103"/>
      <point x="79" y="40"/>
      <point x="127" y="40" type="curve" smooth="yes"/>
      <point x="186" y="40"/>
      <point x="284" y="105"/>
      <point x="351" y="158" type="curve"/>
    </contour>
  </outline>
</glyph>
<glyph name="gcommaaccent" format="1">
  <advance width="547"/>
  <unicode hex="0123"/>
  <outline>
    <contour>
      <point x="375" y="593" type="move" name="top"/>
    </contour>
    <contour>
      <point x="436" y="743" type="line"/>
      <point x="488" y="831" type="line"/>
      <point x="479" y="862"/>
      <point x="452" y="875"/>
      <point x="416" y="873" type="curve"/>
      <point x="344" y="809"/>
      <point x="308" y="755"/>
      <point x="272" y="657" type="curve"/>
      <point x="293" y="594"/>
      <point x="377" y="570"/>
      <point x="447" y="622" type="curve"/>
    </contour>
    <contour>
      <point x="363" y="404" type="curve"/>
      <point x="356" y="309"/>
      <point x="282" y="205"/>
      <point x="152" y="151" type="curve"/>
      <point x="166" y="271"/>
      <point x="223" y="437"/>
      <point x="297" y="437" type="curve" smooth="yes"/>
      <point x="321" y="437"/>
      <point x="348" y="420"/>
    </contour>
    <contour>
      <point x="231" y="-251" type="curve"/>
      <point x="199" y="-240"/>
      <point x="170" y="-222"/>
      <point x="169" y="-195" type="curve" smooth="yes"/>
      <point x="167" y="-151"/>
      <point x="246" y="-76"/>
      <point x="339" y="-3" type="curve"/>
      <point x="305" y="-117"/>
      <point x="273" y="-202"/>
    </contour>
    <contour>
      <point x="373" y="133" type="line"/>
      <point x="220" y="22"/>
      <point x="17" y="-112"/>
      <point x="20" y="-200" type="curve" smooth="yes"/>
      <point x="22" y="-263"/>
      <point x="118" y="-358"/>
      <point x="208" y="-357" type="curve" smooth="yes"/>
      <point x="270" y="-357"/>
      <point x="343" y="-315"/>
      <point x="373" y="-267" type="curve" smooth="yes"/>
      <point x="404" y="-214"/>
      <point x="516" y="361"/>
      <point x="516" y="438" type="curve" smooth="yes"/>
      <point x="516" y="463"/>
      <point x="420" y="537"/>
      <point x="389" y="537" type="curve" smooth="yes"/>
      <point x="377" y="537"/>
      <point x="362" y="518"/>
      <point x="356" y="485" type="curve"/>
      <point x="339" y="520"/>
      <point x="301" y="564"/>
      <point x="262" y="564" type="curve" smooth="yes"/>
      <point x="116" y="564"/>
      <point x="11" y="308"/>
      <point x="11" y="148" type="curve" smooth="yes"/>
      <point x="11" y="103"/>
      <point x="79" y="40"/>
      <point x="127" y="40" type="curve" smooth="yes"/>
      <point x="186" y="40"/>
      <point x="284" y="105"/>
      <point x="351" y="158" type="curve"/>
    </contour>
  </outline>
</glyph>
<glyph name="iogonek" format="1">
  <advance width="385"/>
  <unicode hex="012F"/>
  <outline>
    <contour>
      <point x="169" y="593" type="move" name="top"/>
    </contour>
    <contour>
      <point x="191" y="593" type="move" name="_top"/>
    </contour>
    <contour>
      <point x="266" y="27" type="curve" smooth="yes"/>
      <point x="315" y="49"/>
      <point x="353" y="79"/>
      <point x="353" y="109" type="curve" smooth="yes"/>
      <point x="353" y="148"/>
      <point x="330" y="190"/>
      <point x="266" y="211" type="curve"/>
      <point x="231" y="184"/>
      <point x="209" y="167"/>
      <point x="174" y="151" type="curve"/>
      <point x="217" y="266"/>
      <point x="254" y="390"/>
      <point x="254" y="452" type="curve" smooth="yes"/>
      <point x="254" y="487"/>
      <point x="185" y="564"/>
      <point x="137" y="564" type="curve" smooth="yes"/>
      <point x="98" y="564"/>
      <point x="26" y="491"/>
      <point x="26" y="447" type="curve" smooth="yes"/>
      <point x="26" y="417"/>
      <point x="107" y="383"/>
      <point x="107" y="358" type="curve" smooth="yes"/>
      <point x="107" y="322"/>
      <point x="15" y="148"/>
      <point x="15" y="98" type="curve" smooth="yes"/>
      <point x="15" y="79"/>
      <point x="43" y="51"/>
      <point x="77" y="33" type="curve"/>
      <point x="15" y="1"/>
      <point x="-24" y="-49"/>
      <point x="-24" y="-104" type="curve" smooth="yes"/>
      <point x="-24" y="-177"/>
      <point x="39" y="-225"/>
      <point x="129" y="-225" type="curve" smooth="yes"/>
      <point x="201" y="-225"/>
      <point x="277" y="-196"/>
      <point x="324" y="-145" type="curve"/>
      <point x="333" y="-112"/>
      <point x="320" y="-89"/>
      <point x="286" y="-85" type="curve"/>
      <point x="238" y="-110"/>
      <point x="187" y="-121"/>
      <point x="109" y="-108" type="curve"/>
      <point x="136" y="-38"/>
      <point x="192" y="-6"/>
    </contour>
    <contour>
      <point x="309" y="726" type="curve" smooth="yes"/>
      <point x="295" y="770"/>
      <point x="198" y="794"/>
      <point x="160" y="777" type="curve" smooth="yes"/>
      <point x="131" y="761"/>
      <point x="111" y="719"/>
      <point x="111" y="684" type="curve" smooth="yes"/>
      <point x="111" y="649"/>
      <point x="181" y="593"/>
      <point x="221" y="593" type="curve" smooth="yes"/>
      <point x="268" y="593"/>
      <point x="323" y="684"/>
    </contour>
  </outline>
</glyph>
<glyph name="dotlessi" format="1">
  <advance width="385"/>
  <unicode hex="0131"/>
  <outline>
    <contour>
      <point x="169" y="593" type="move" name="top"/>
    </contour>
    <contour>
      <point x="353" y="109" type="curve" smooth="yes"/>
      <point x="353" y="148"/>
      <point x="330" y="190"/>
      <point x="266" y="211" type="curve"/>
      <point x="231" y="184"/>
      <point x="209" y="167"/>
      <point x="174" y="151" type="curve"/>
      <point x="217" y="266"/>
      <point x="254" y="390"/>
      <point x="254" y="452" type="curve" smooth="yes"/>
      <point x="254" y="487"/>
      <point x="185" y="564"/>
      <point x="137" y="564" type="curve" smooth="yes"/>
      <point x="98" y="564"/>
      <point x="26" y="491"/>
      <point x="26" y="447" type="curve" smooth="yes"/>
      <point x="26" y="417"/>
      <point x="107" y="383"/>
      <point x="107" y="358" type="curve" smooth="yes"/>
      <point x="107" y="322"/>
      <point x="15" y="148"/>
      <point x="15" y="98" type="curve" smooth="yes"/>
      <point x="15" y="66"/>
      <point x="98" y="0"/>
      <point x="153" y="0" type="curve" smooth="yes"/>
      <point x="227" y="0"/>
      <point x="353" y="55"/>
    </contour>
  </outline>
</glyph>
<glyph name="Kcommaaccent" format="1">
  <advance width="572"/>
  <unicode hex="0136"/>
  <outline>
    <contour>
      <point x="326" y="-133" type="curve"/>
      <point x="305" y="-70"/>
      <point x="221" y="-46"/>
      <point x="151" y="-98" type="curve"/>
      <point x="162" y="-219" type="line"/>
      <point x="110" y="-307" type="line"/>
      <point x="119" y="-338"/>
      <point x="146" y="-351"/>
      <point x="182" y="-349" type="curve"/>
      <point x="254" y="-285"/>
      <point x="290" y="-231"/>
    </contour>
    <contour>
      <point x="232" y="434" type="curve"/>
      <point x="254" y="491"/>
      <point x="284" y="589"/>
      <point x="284" y="603" type="curve" smooth="yes"/>
      <point x="284" y="638"/>
      <point x="190" y="700"/>
      <point x="151" y="700" type="curve" smooth="yes"/>
      <point x="120" y="700"/>
      <point x="90" y="490"/>
      <point x="74" y="401" type="curve" smooth="yes"/>
      <point x="50" y="260"/>
      <point x="17" y="127"/>
      <point x="18" y="94" type="curve" smooth="yes"/>
      <point x="18" y="62"/>
      <point x="104" y="0"/>
      <point x="151" y="0" type="curve" smooth="yes"/>
      <point x="180" y="0"/>
      <point x="188" y="103"/>
      <point x="198" y="241" type="curve"/>
      <point x="263" y="140"/>
      <point x="325" y="62"/>
      <point x="429" y="0" type="curve"/>
      <point x="512" y="12"/>
      <point x="547" y="81"/>
      <point x="532" y="153" type="curve"/>
      <point x="444" y="187"/>
      <point x="342" y="253"/>
      <point x="267" y="325" type="curve"/>
      <point x="396" y="396"/>
      <point x="489" y="482"/>
      <point x="563" y="567" type="curve"/>
      <point x="582" y="642"/>
      <point x="535" y="692"/>
      <point x="446" y="689" type="curve"/>
      <point x="383" y="598"/>
      <point x="321" y="510"/>
    </contour>
  </outline>
</glyph>
<glyph name="lacute" format="1">
  <advance width="385"/>
  <unicode hex="013A"/>
  <outline>
    <contour>
      <point x="254" y="801" type="move" name="top"/>
    </contour>
    <contour>
      <point x="353" y="109" type="curve" smooth="yes"/>
      <point x="353" y="153"/>
      <point x="326" y="190"/>
      <point x="266" y="211" type="curve"/>
      <point x="234" y="184"/>
      <point x="217" y="173"/>
      <point x="174" y="152" type="curve"/>
      <point x="191" y="267"/>
      <point x="222" y="434"/>
      <point x="250" y="519" type="curve" smooth="yes"/>
      <point x="266" y="565"/>
      <point x="306" y="616"/>
      <point x="306" y="672" type="curve" smooth="yes"/>
      <point x="306" y="709"/>
      <point x="207" y="774"/>
      <point x="164" y="774" type="curve" smooth="yes"/>
      <point x="131" y="774"/>
      <point x="98" y="553"/>
      <point x="80" y="460" type="curve" smooth="yes"/>
      <point x="52" y="312"/>
      <point x="8" y="133"/>
      <point x="8" y="99" type="curve" smooth="yes"/>
      <point x="8" y="65"/>
      <point x="96" y="0"/>
      <point x="158" y="0" type="curve" smooth="yes"/>
      <point x="223" y="0"/>
      <point x="353" y="57"/>
    </contour>
    <contour>
      <point x="229" y="924" type="curve"/>
      <point x="214" y="899"/>
      <point x="202" y="876"/>
      <point x="180" y="848" type="curve"/>
      <point x="188" y="809"/>
      <point x="223" y="793"/>
      <point x="265" y="799" type="curve"/>
      <point x="322" y="854"/>
      <point x="372" y="912"/>
      <point x="413" y="969" type="curve"/>
      <point x="412" y="1040"/>
      <point x="322" y="1073"/>
      <point x="241" y="1033" type="curve"/>
      <point x="239" y="1001"/>
      <point x="235" y="961"/>
    </contour>
  </outline>
</glyph>
<glyph name="Lcommaaccent" format="1">
  <advance width="493"/>
  <unicode hex="013B"/>
  <outline>
    <contour>
      <point x="350" y="733" type="move" name="top"/>
    </contour>
    <contour>
      <point x="288" y="-133" type="curve"/>
      <point x="267" y="-70"/>
      <point x="183" y="-46"/>
      <point x="113" y="-98" type="curve"/>
      <point x="124" y="-219" type="line"/>
      <point x="72" y="-307" type="line"/>
      <point x="81" y="-338"/>
      <point x="108" y="-351"/>
      <point x="144" y="-349" type="curve"/>
      <point x="216" y="-285"/>
      <point x="252" y="-231"/>
    </contour>
    <contour>
      <point x="178" y="137" type="curve"/>
      <point x="193" y="197"/>
      <point x="204" y="241"/>
      <point x="217" y="303" type="curve" smooth="yes"/>
      <point x="247" y="443"/>
      <point x="292" y="579"/>
      <point x="292" y="603" type="curve" smooth="yes"/>
      <point x="292" y="638"/>
      <point x="199" y="700"/>
      <point x="160" y="700" type="curve" smooth="yes"/>
      <point x="129" y="700"/>
      <point x="96" y="490"/>
      <point x="79" y="401" type="curve" smooth="yes"/>
      <point x="53" y="260"/>
      <point x="20" y="135"/>
      <point x="18" y="102" type="curve" smooth="yes"/>
      <point x="16" y="67"/>
      <point x="101" y="2"/>
      <point x="137" y="0" type="curve" smooth="yes"/>
      <point x="211" y="-4"/>
      <point x="335" y="6"/>
      <point x="433" y="26" type="curve"/>
      <point x="484" y="76"/>
      <point x="470" y="159"/>
      <point x="405" y="187" type="curve"/>
      <point x="330" y="161"/>
      <point x="257" y="145"/>
    </contour>
  </outline>
</glyph>
<glyph name="lslash" format="1">
  <advance width="415"/>
  <unicode hex="0142"/>
  <outline>
    <contour>
      <point x="354" y="578" type="curve"/>
      <point x="241" y="529" type="line"/>
      <point x="270" y="591"/>
      <point x="297" y="639"/>
      <point x="297" y="683" type="curve" smooth="yes"/>
      <point x="297" y="717"/>
      <point x="207" y="774"/>
      <point x="164" y="774" type="curve" smooth="yes"/>
      <point x="134" y="774"/>
      <point x="103" y="587"/>
      <point x="85" y="476" type="curve"/>
      <point x="-16" y="454" type="line"/>
      <point x="-64" y="412"/>
      <point x="-55" y="334"/>
      <point x="1" y="317" type="curve"/>
      <point x="54" y="332" type="line"/>
      <point x="31" y="223"/>
      <point x="8" y="123"/>
      <point x="8" y="99" type="curve" smooth="yes"/>
      <point x="8" y="65"/>
      <point x="96" y="0"/>
      <point x="158" y="0" type="curve" smooth="yes"/>
      <point x="223" y="0"/>
      <point x="353" y="57"/>
      <point x="353" y="109" type="curve" smooth="yes"/>
      <point x="353" y="153"/>
      <point x="326" y="190"/>
      <point x="266" y="211" type="curve"/>
      <point x="234" y="184"/>
      <point x="217" y="173"/>
      <point x="174" y="152" type="curve"/>
      <point x="184" y="221"/>
      <point x="199" y="308"/>
      <point x="217" y="390" type="curve"/>
      <point x="393" y="440" type="line"/>
      <point x="428" y="491"/>
      <point x="412" y="564"/>
    </contour>
  </outline>
</glyph>
<glyph name="Ncommaaccent" format="1">
  <advance width="619"/>
  <unicode hex="0145"/>
  <outline>
    <contour>
      <point x="380" y="733" type="move" name="top"/>
    </contour>
    <contour>
      <point x="356" y="-133" type="curve"/>
      <point x="335" y="-70"/>
      <point x="251" y="-46"/>
      <point x="181" y="-98" type="curve"/>
      <point x="192" y="-219" type="line"/>
      <point x="140" y="-307" type="line"/>
      <point x="149" y="-338"/>
      <point x="176" y="-351"/>
      <point x="212" y="-349" type="curve"/>
      <point x="284" y="-285"/>
      <point x="320" y="-231"/>
    </contour>
    <contour>
      <point x="410" y="401" type="curve"/>
      <point x="398" y="270" type="line"/>
      <point x="359" y="392"/>
      <point x="310" y="537"/>
      <point x="283" y="610" type="curve" smooth="yes"/>
      <point x="269" y="649"/>
      <point x="186" y="700"/>
      <point x="151" y="700" type="curve" smooth="yes"/>
      <point x="120" y="700"/>
      <point x="90" y="490"/>
      <point x="74" y="401" type="curve" smooth="yes"/>
      <point x="50" y="260"/>
      <point x="17" y="127"/>
      <point x="18" y="94" type="curve" smooth="yes"/>
      <point x="18" y="62"/>
      <point x="104" y="0"/>
      <point x="151" y="0" type="curve" smooth="yes"/>
      <point x="186" y="0"/>
      <point x="184" y="135"/>
      <point x="213" y="303" type="curve"/>
      <point x="220" y="429" type="line"/>
      <point x="247" y="294"/>
      <point x="324" y="122"/>
      <point x="353" y="85" type="curve" smooth="yes"/>
      <point x="390" y="37"/>
      <point x="449" y="0"/>
      <point x="487" y="0" type="curve" smooth="yes"/>
      <point x="522" y="0"/>
      <point x="520" y="135"/>
      <point x="549" y="303" type="curve" smooth="yes"/>
      <point x="574" y="443"/>
      <point x="620" y="579"/>
      <point x="620" y="603" type="curve" smooth="yes"/>
      <point x="620" y="638"/>
      <point x="526" y="700"/>
      <point x="487" y="700" type="curve" smooth="yes"/>
      <point x="456" y="700"/>
      <point x="426" y="490"/>
    </contour>
  </outline>
</glyph>
<glyph name="ncommaaccent" format="1">
  <advance width="659"/>
  <unicode hex="0146"/>
  <outline>
    <contour>
      <point x="354" y="593" type="move" name="top"/>
    </contour>
    <contour>
      <point x="366" y="-133" type="curve"/>
      <point x="345" y="-70"/>
      <point x="261" y="-46"/>
      <point x="191" y="-98" type="curve"/>
      <point x="202" y="-219" type="line"/>
      <point x="150" y="-307" type="line"/>
      <point x="159" y="-338"/>
      <point x="186" y="-351"/>
      <point x="222" y="-349" type="curve"/>
      <point x="294" y="-285"/>
      <point x="330" y="-231"/>
    </contour>
    <contour>
      <point x="450" y="151" type="curve"/>
      <point x="473" y="231"/>
      <point x="541" y="394"/>
      <point x="542" y="437" type="curve" smooth="yes"/>
      <point x="543" y="464"/>
      <point x="471" y="537"/>
      <point x="430" y="537" type="curve" smooth="yes"/>
      <point x="389" y="537"/>
      <point x="308" y="433"/>
      <point x="234" y="336" type="curve"/>
      <point x="247" y="383"/>
      <point x="254" y="433"/>
      <point x="254" y="464" type="curve" smooth="yes"/>
      <point x="254" y="490"/>
      <point x="181" y="564"/>
      <point x="137" y="564" type="curve" smooth="yes"/>
      <point x="98" y="564"/>
      <point x="26" y="491"/>
      <point x="26" y="447" type="curve" smooth="yes"/>
      <point x="26" y="417"/>
      <point x="107" y="383"/>
      <point x="107" y="358" type="curve" smooth="yes"/>
      <point x="107" y="322"/>
      <point x="15" y="148"/>
      <point x="15" y="98" type="curve" smooth="yes"/>
      <point x="15" y="66"/>
      <point x="98" y="0"/>
      <point x="153" y="0" type="curve" smooth="yes"/>
      <point x="185" y="0"/>
      <point x="194" y="124"/>
      <point x="213" y="196" type="curve"/>
      <point x="265" y="263"/>
      <point x="328" y="336"/>
      <point x="362" y="336" type="curve" smooth="yes"/>
      <point x="390" y="336"/>
      <point x="308" y="124"/>
      <point x="307" y="96" type="curve" smooth="yes"/>
      <point x="306" y="70"/>
      <point x="385" y="0"/>
      <point x="433" y="0" type="curve" smooth="yes"/>
      <point x="498" y="0"/>
      <point x="628" y="57"/>
      <point x="628" y="109" type="curve" smooth="yes"/>
      <point x="628" y="153"/>
      <point x="601" y="190"/>
      <point x="541" y="211" type="curve"/>
      <point x="508" y="184"/>
      <point x="492" y="173"/>
    </contour>
  </outline>
</glyph>
<glyph name="Omacron" format="1">
  <advance width="571"/>
  <unicode hex="014C"/>
  <outline>
    <contour>
      <point x="366" y="733" type="move" name="top"/>
    </contour>
    <contour>
      <point x="112" y="593" type="curve"/>
      <point x="74" y="507"/>
      <point x="15" y="269"/>
      <point x="15" y="191" type="curve" smooth="yes"/>
      <point x="15" y="117"/>
      <point x="142" y="-5"/>
      <point x="224" y="-5" type="curve" smooth="yes"/>
      <point x="385" y="-5"/>
      <point x="564" y="267"/>
      <point x="564" y="463" type="curve" smooth="yes"/>
      <point x="564" y="590"/>
      <point x="430" y="710"/>
      <point x="281" y="710" type="curve"/>
      <point x="205" y="685"/>
      <point x="182" y="595"/>
      <point x="234" y="532" type="curve"/>
      <point x="316" y="535"/>
      <point x="390" y="513"/>
      <point x="431" y="485" type="curve"/>
      <point x="399" y="345"/>
      <point x="317" y="182"/>
      <point x="178" y="132" type="curve"/>
      <point x="176" y="261"/>
      <point x="205" y="386"/>
      <point x="267" y="502" type="curve"/>
      <point x="262" y="583"/>
      <point x="216" y="624"/>
    </contour>
    <contour>
      <point x="539" y="754" type="curve"/>
      <point x="581" y="787"/>
      <point x="585" y="846"/>
      <point x="533" y="879" type="curve"/>
      <point x="405" y="865"/>
      <point x="300" y="864"/>
      <point x="167" y="864" type="curve"/>
      <point x="126" y="824"/>
      <point x="130" y="763"/>
      <point x="181" y="740" type="curve"/>
      <point x="312" y="747"/>
      <point x="408" y="750"/>
    </contour>
  </outline>
</glyph>
<glyph name="omacron" format="1">
  <advance width="511"/>
  <unicode hex="014D"/>
  <outline>
    <contour>
      <point x="311" y="593" type="move" name="top"/>
    </contour>
    <contour>
      <point x="178" y="400" type="curve"/>
      <point x="243" y="410"/>
      <point x="314" y="404"/>
      <point x="357" y="372" type="curve"/>
      <point x="339" y="255"/>
      <point x="284" y="154"/>
      <point x="167" y="114" type="curve"/>
      <point x="154" y="197"/>
      <point x="172" y="288"/>
      <point x="217" y="358" type="curve"/>
      <point x="218" y="428"/>
      <point x="146" y="468"/>
      <point x="73" y="428" type="curve"/>
      <point x="30" y="343"/>
      <point x="12" y="254"/>
      <point x="12" y="177" type="curve" smooth="yes"/>
      <point x="12" y="109"/>
      <point x="119" y="0"/>
      <point x="203" y="0" type="curve" smooth="yes"/>
      <point x="376" y="0"/>
      <point x="490" y="206"/>
      <point x="490" y="344" type="curve" smooth="yes"/>
      <point x="490" y="440"/>
      <point x="383" y="548"/>
      <point x="236" y="565" type="curve"/>
      <point x="154" y="541"/>
      <point x="123" y="465"/>
    </contour>
    <contour>
      <point x="484" y="614" type="curve"/>
      <point x="526" y="647"/>
      <point x="530" y="706"/>
      <point x="478" y="739" type="curve"/>
      <point x="350" y="725"/>
      <point x="245" y="724"/>
      <point x="112" y="724" type="curve"/>
      <point x="71" y="684"/>
      <point x="75" y="623"/>
      <point x="126" y="600" type="curve"/>
      <point x="257" y="607"/>
      <point x="353" y="610"/>
    </contour>
  </outline>
</glyph>
<glyph name="ohungarumlaut" format="1">
  <advance width="511"/>
  <unicode hex="0151"/>
  <outline>
    <contour>
      <point x="311" y="593" type="move" name="top"/>
    </contour>
    <contour>
      <point x="178" y="400" type="curve"/>
      <point x="243" y="410"/>
      <point x="314" y="404"/>
      <point x="357" y="372" type="curve"/>
      <point x="339" y="255"/>
      <point x="284" y="154"/>
      <point x="167" y="114" type="curve"/>
      <point x="154" y="197"/>
      <point x="172" y="288"/>
      <point x="217" y="358" type="curve"/>
      <point x="218" y="428"/>
      <point x="146" y="468"/>
      <point x="73" y="428" type="curve"/>
      <point x="30" y="343"/>
      <point x="12" y="254"/>
      <point x="12" y="177" type="curve" smooth="yes"/>
      <point x="12" y="109"/>
      <point x="119" y="0"/>
      <point x="203" y="0" type="curve" smooth="yes"/>
      <point x="376" y="0"/>
      <point x="490" y="206"/>
      <point x="490" y="344" type="curve" smooth="yes"/>
      <point x="490" y="440"/>
      <point x="383" y="548"/>
      <point x="236" y="565" type="curve"/>
      <point x="154" y="541"/>
      <point x="123" y="465"/>
    </contour>
    <contour>
      <point x="121" y="631" type="curve"/>
      <point x="143" y="590"/>
      <point x="189" y="587"/>
      <point x="222" y="595" type="curve"/>
      <point x="274" y="648"/>
      <point x="310" y="709"/>
      <point x="335" y="765" type="curve"/>
      <point x="311" y="813"/>
      <point x="235" y="825"/>
      <point x="179" y="806" type="curve"/>
      <point x="162" y="739"/>
      <point x="144" y="693"/>
    </contour>
    <contour>
      <point x="351" y="631" type="curve"/>
      <point x="373" y="590"/>
      <point x="419" y="587"/>
      <point x="452" y="595" type="curve"/>
      <point x="504" y="648"/>
      <point x="540" y="709"/>
      <point x="565" y="765" type="curve"/>
      <point x="541" y="813"/>
      <point x="465" y="825"/>
      <point x="409" y="806" type="curve"/>
      <point x="392" y="739"/>
      <point x="374" y="693"/>
    </contour>
  </outline>
</glyph>
<glyph name="racute" format="1">
  <advance width="517"/>
  <unicode hex="0155"/>
  <outline>
    <contour>
      <point x="302" y="593" type="move" name="top"/>
    </contour>
    <contour>
      <point x="238" y="258" type="curve"/>
      <point x="305" y="300"/>
      <point x="364" y="328"/>
      <point x="462" y="361" type="curve"/>
      <point x="518" y="448"/>
      <point x="500" y="550"/>
      <point x="354" y="546" type="curve"/>
      <point x="331" y="503"/>
      <point x="288" y="417"/>
      <point x="251" y="358" type="curve"/>
      <point x="239" y="364" type="line"/>
      <point x="247" y="397"/>
      <point x="254" y="436"/>
      <point x="254" y="464" type="curve" smooth="yes"/>
      <point x="254" y="490"/>
      <point x="183" y="564"/>
      <point x="139" y="564" type="curve" smooth="yes"/>
      <point x="100" y="564"/>
      <point x="26" y="491"/>
      <point x="26" y="447" type="curve" smooth="yes"/>
      <point x="26" y="417"/>
      <point x="105" y="383"/>
      <point x="105" y="358" type="curve" smooth="yes"/>
      <point x="105" y="300"/>
      <point x="41" y="155"/>
      <point x="41" y="98" type="curve" smooth="yes"/>
      <point x="41" y="66"/>
      <point x="122" y="0"/>
      <point x="178" y="0" type="curve" smooth="yes"/>
      <point x="218" y="0"/>
      <point x="234" y="129"/>
    </contour>
    <contour>
      <point x="277" y="716" type="curve"/>
      <point x="262" y="691"/>
      <point x="250" y="668"/>
      <point x="228" y="640" type="curve"/>
      <point x="236" y="601"/>
      <point x="271" y="585"/>
      <point x="313" y="591" type="curve"/>
      <point x="370" y="646"/>
      <point x="420" y="704"/>
      <point x="461" y="761" type="curve"/>
      <point x="460" y="832"/>
      <point x="370" y="865"/>
      <point x="289" y="825" type="curve"/>
      <point x="287" y="793"/>
      <point x="283" y="753"/>
    </contour>
  </outline>
</glyph>
<glyph name="rcaron" format="1">
  <advance width="517"/>
  <unicode hex="0159"/>
  <outline>
    <contour>
      <point x="302" y="593" type="move" name="top"/>
    </contour>
    <contour>
      <point x="238" y="258" type="curve"/>
      <point x="305" y="300"/>
      <point x="364" y="328"/>
      <point x="462" y="361" type="curve"/>
      <point x="518" y="448"/>
      <point x="500" y="550"/>
      <point x="354" y="546" type="curve"/>
      <point x="331" y="503"/>
      <point x="288" y="417"/>
      <point x="251" y="358" type="curve"/>
      <point x="239" y="364" type="line"/>
      <point x="247" y="397"/>
      <point x="254" y="436"/>
      <point x="254" y="464" type="curve" smooth="yes"/>
      <point x="254" y="490"/>
      <point x="183" y="564"/>
      <point x="139" y="564" type="curve" smooth="yes"/>
      <point x="100" y="564"/>
      <point x="26" y="491"/>
      <point x="26" y="447" type="curve" smooth="yes"/>
      <point x="26" y="417"/>
      <point x="105" y="383"/>
      <point x="105" y="358" type="curve" smooth="yes"/>
      <point x="105" y="300"/>
      <point x="41" y="155"/>
      <point x="41" y="98" type="curve" smooth="yes"/>
      <point x="41" y="66"/>
      <point x="122" y="0"/>
      <point x="178" y="0" type="curve" smooth="yes"/>
      <point x="218" y="0"/>
      <point x="234" y="129"/>
    </contour>
    <contour>
      <point x="394" y="613" type="curve"/>
      <point x="455" y="668"/>
      <point x="501" y="714"/>
      <point x="557" y="770" type="curve"/>
      <point x="545" y="840"/>
      <point x="444" y="831"/>
      <point x="394" y="817" type="curve"/>
      <point x="356" y="762"/>
      <point x="316" y="719"/>
      <point x="265" y="671" type="curve"/>
      <point x="231" y="719"/>
      <point x="213" y="762"/>
      <point x="175" y="825" type="curve"/>
      <point x="127" y="840"/>
      <point x="89" y="816"/>
      <point x="83" y="775" type="curve"/>
      <point x="123" y="717"/>
      <point x="156" y="663"/>
      <point x="197" y="617" type="curve"/>
      <point x="245" y="588"/>
      <point x="332" y="584"/>
    </contour>
  </outline>
</glyph>
<glyph name="tcedilla" format="1">
  <advance width="434"/>
  <unicode hex="0163"/>
  <outline>
    <contour>
      <point x="226" y="0" type="move" name="bottom"/>
    </contour>
    <contour>
      <point x="375" y="533" type="curve"/>
      <point x="336" y="526"/>
      <point x="307" y="520"/>
      <point x="266" y="515" type="curve"/>
      <point x="286" y="558"/>
      <point x="302" y="592"/>
      <point x="302" y="626" type="curve" smooth="yes"/>
      <point x="302" y="663"/>
      <point x="212" y="728"/>
      <point x="169" y="728" type="curve" smooth="yes"/>
      <point x="144" y="728"/>
      <point x="124" y="583"/>
      <point x="124" y="509" type="curve"/>
      <point x="90" y="510"/>
      <point x="65" y="511"/>
      <point x="36" y="513" type="curve"/>
      <point x="-7" y="473"/>
      <point x="-1" y="401"/>
      <point x="42" y="381" type="curve"/>
      <point x="103" y="385" type="line"/>
      <point x="81" y="292"/>
      <point x="37" y="133"/>
      <point x="37" y="99" type="curve" smooth="yes"/>
      <point x="37" y="65"/>
      <point x="125" y="0"/>
      <point x="187" y="0" type="curve" smooth="yes"/>
      <point x="252" y="0"/>
      <point x="382" y="57"/>
      <point x="382" y="109" type="curve" smooth="yes"/>
      <point x="382" y="153"/>
      <point x="355" y="190"/>
      <point x="295" y="211" type="curve"/>
      <point x="263" y="184"/>
      <point x="231" y="166"/>
      <point x="192" y="147" type="curve"/>
      <point x="200" y="221"/>
      <point x="217" y="310"/>
      <point x="235" y="393" type="curve"/>
      <point x="384" y="399" type="line"/>
      <point x="425" y="436"/>
      <point x="419" y="507"/>
    </contour>
    <contour>
      <point x="135" y="64" type="line"/>
      <point x="58" y="-91" type="line"/>
      <point x="61" y="-125"/>
      <point x="99" y="-146"/>
      <point x="136" y="-141" type="curve"/>
      <point x="149" y="-132"/>
      <point x="162" y="-124"/>
      <point x="183" y="-120" type="curve"/>
      <point x="198" y="-131"/>
      <point x="205" y="-144"/>
      <point x="205" y="-157" type="curve" smooth="yes"/>
      <point x="205" y="-188"/>
      <point x="171" y="-210"/>
      <point x="120" y="-210" type="curve" smooth="yes"/>
      <point x="83" y="-210"/>
      <point x="40" y="-196"/>
      <point x="5" y="-165" type="curve"/>
      <point x="-31" y="-161"/>
      <point x="-51" y="-191"/>
      <point x="-45" y="-221" type="curve"/>
      <point x="2" y="-276"/>
      <point x="74" y="-300"/>
      <point x="143" y="-300" type="curve" smooth="yes"/>
      <point x="272" y="-300"/>
      <point x="346" y="-234"/>
      <point x="346" y="-158" type="curve" smooth="yes"/>
      <point x="346" y="-89"/>
      <point x="292" y="-43"/>
      <point x="225" y="-43" type="curve" smooth="yes"/>
      <point x="208" y="-43"/>
      <point x="189" y="-46"/>
      <point x="171" y="-53" type="curve"/>
      <point x="224" y="35" type="line"/>
    </contour>
  </outline>
</glyph>
<glyph name="umacron" format="1">
  <advance width="680"/>
  <unicode hex="016B"/>
  <outline>
    <contour>
      <point x="591" y="0" type="move" name="ogonek"/>
    </contour>
    <contour>
      <point x="344" y="593" type="move" name="top"/>
    </contour>
    <contour>
      <point x="343" y="193" type="curve"/>
      <point x="368" y="179" type="line"/>
      <point x="350" y="145"/>
      <point x="329" y="110"/>
      <point x="329" y="91" type="curve" smooth="yes"/>
      <point x="329" y="68"/>
      <point x="409" y="0"/>
      <point x="453" y="0" type="curve" smooth="yes"/>
      <point x="518" y="0"/>
      <point x="648" y="57"/>
      <point x="648" y="109" type="curve" smooth="yes"/>
      <point x="648" y="153"/>
      <point x="621" y="190"/>
      <point x="561" y="211" type="curve"/>
      <point x="528" y="184"/>
      <point x="500" y="165"/>
      <point x="459" y="147" type="curve"/>
      <point x="490" y="238"/>
      <point x="549" y="396"/>
      <point x="550" y="437" type="curve" smooth="yes"/>
      <point x="550" y="464"/>
      <point x="473" y="537"/>
      <point x="417" y="537" type="curve" smooth="yes"/>
      <point x="392" y="537"/>
      <point x="373" y="469"/>
      <point x="370" y="384" type="curve"/>
      <point x="343" y="315"/>
      <point x="268" y="217"/>
      <point x="179" y="142" type="curve"/>
      <point x="220" y="249"/>
      <point x="254" y="377"/>
      <point x="254" y="464" type="curve" smooth="yes"/>
      <point x="254" y="490"/>
      <point x="181" y="564"/>
      <point x="137" y="564" type="curve" smooth="yes"/>
      <point x="98" y="564"/>
      <point x="26" y="491"/>
      <point x="26" y="447" type="curve" smooth="yes"/>
      <point x="26" y="417"/>
      <point x="107" y="383"/>
      <point x="107" y="358" type="curve" smooth="yes"/>
      <point x="107" y="322"/>
      <point x="30" y="156"/>
      <point x="30" y="106" type="curve" smooth="yes"/>
      <point x="30" y="75"/>
      <point x="103" y="0"/>
      <point x="159" y="0" type="curve" smooth="yes"/>
      <point x="231" y="0"/>
      <point x="280" y="77"/>
    </contour>
    <contour>
      <point x="517" y="614" type="curve"/>
      <point x="559" y="647"/>
      <point x="563" y="706"/>
      <point x="511" y="739" type="curve"/>
      <point x="383" y="725"/>
      <point x="278" y="724"/>
      <point x="145" y="724" type="curve"/>
      <point x="104" y="684"/>
      <point x="108" y="623"/>
      <point x="159" y="600" type="curve"/>
      <point x="290" y="607"/>
      <point x="386" y="610"/>
    </contour>
  </outline>
</glyph>
<glyph name="uring" format="1">
  <advance width="680"/>
  <unicode hex="016F"/>
  <outline>
    <contour>
      <point x="591" y="0" type="move" name="ogonek"/>
    </contour>
    <contour>
      <point x="344" y="593" type="move" name="top"/>
    </contour>
    <contour>
      <point x="343" y="193" type="curve"/>
      <point x="368" y="179" type="line"/>
      <point x="350" y="145"/>
      <point x="329" y="110"/>
      <point x="329" y="91" type="curve" smooth="yes"/>
      <point x="329" y="68"/>
      <point x="409" y="0"/>
      <point x="453" y="0" type="curve" smooth="yes"/>
      <point x="518" y="0"/>
      <point x="648" y="57"/>
      <point x="648" y="109" type="curve" smooth="yes"/>
      <point x="648" y="153"/>
      <point x="621" y="190"/>
      <point x="561" y="211" type="curve"/>
      <point x="528" y="184"/>
      <point x="500" y="165"/>
      <point x="459" y="147" type="curve"/>
      <point x="490" y="238"/>
      <point x="549" y="396"/>
      <point x="550" y="437" type="curve" smooth="yes"/>
      <point x="550" y="464"/>
      <point x="473" y="537"/>
      <point x="417" y="537" type="curve" smooth="yes"/>
      <point x="392" y="537"/>
      <point x="373" y="469"/>
      <point x="370" y="384" type="curve"/>
      <point x="343" y="315"/>
      <point x="268" y="217"/>
      <point x="179" y="142" type="curve"/>
      <point x="220" y="249"/>
      <point x="254" y="377"/>
      <point x="254" y="464" type="curve" smooth="yes"/>
      <point x="254" y="490"/>
      <point x="181" y="564"/>
      <point x="137" y="564" type="curve" smooth="yes"/>
      <point x="98" y="564"/>
      <point x="26" y="491"/>
      <point x="26" y="447" type="curve" smooth="yes"/>
      <point x="26" y="417"/>
      <point x="107" y="383"/>
      <point x="107" y="358" type="curve" smooth="yes"/>
      <point x="107" y="322"/>
      <point x="30" y="156"/>
      <point x="30" y="106" type="curve" smooth="yes"/>
      <point x="30" y="75"/>
      <point x="103" y="0"/>
      <point x="159" y="0" type="curve" smooth="yes"/>
      <point x="231" y="0"/>
      <point x="280" y="77"/>
    </contour>
    <contour>
      <point x="294" y="815" type="curve"/>
      <point x="333" y="821"/>
      <point x="373" y="818"/>
      <point x="401" y="802" type="curve"/>
      <point x="388" y="731"/>
      <point x="352" y="684"/>
      <point x="296" y="664" type="curve"/>
      <point x="289" y="709"/>
      <point x="300" y="759"/>
      <point x="327" y="795" type="curve"/>
      <point x="327" y="838"/>
      <point x="273" y="860"/>
      <point x="228" y="834" type="curve"/>
      <point x="203" y="791"/>
      <point x="190" y="744"/>
      <point x="190" y="694" type="curve" smooth="yes"/>
      <point x="190" y="652"/>
      <point x="261" y="593"/>
      <point x="313" y="593" type="curve" smooth="yes"/>
      <point x="423" y="593"/>
      <point x="495" y="710"/>
      <point x="495" y="787" type="curve" smooth="yes"/>
      <point x="495" y="841"/>
      <point x="426" y="904"/>
      <point x="332" y="913" type="curve"/>
      <point x="274" y="898"/>
      <point x="256" y="853"/>
    </contour>
  </outline>
</glyph>
